<svg version="1.2" xmlns="http://www.w3.org/2000/svg" viewBox="0 0 125 100" width="125" height="100">
	<title>AC-svg</title>
	<style>
		.s0 { fill: #6e72fb;stroke: #f7f7f7;stroke-width: .8 } 
	</style>
	<path id="BR-AC" class="s0" d="m34.7 63h-2l0.5-1.8-0.2-0.8-0.3-0.5-1.2-0.7-0.2-0.5 0.3-1.1-0.8-2-1-0.6-5.6-1.3-7.4-0.2 0.3-0.5 2.5-2.3 0.9-1.2 0.3-1.2-0.3-1.2-0.6-1-0.9-0.4-1.7-2.9-0.7-0.5-0.9-0.2-1.2-1.1-0.9-2.4-2-1.5-1-3.6-0.8-1.7-1.9-1.1-0.1-1.1 0.8 0.1 0.4-0.5 0.1-0.7-0.2-0.4-2.1-1-0.4-0.6-2.1-1.9v-0.4h0.6l0.5-1.4v-1.3l3-0.4 0.5-0.3-0.2-1.4-1.2-1.6 18 7.5 23.6 5.7 12.2 3.1 26.4 14.2 28.5 12.1 3 1.3-0.3 0.5-1.6 0.6-2.1 1.6-2.8 2.8-1.7 0.9-0.6-0.2-1.6 0.2v0.5l-1.9 1.3-2.1 1-1.4 1.8-0.5 1.2-0.6 0.3-1.2-0.8-0.7-0.1-2.4 0.1-0.7 0.2-0.6 0.5-0.4 0.8-2.4 3.5-3.8 1.3-0.8 0.7-2 0.5h-1l0.1-2.1-1.4 0.2-3.5-0.8-5.3-0.5-5 0.4-0.7-0.6-2.3-0.1-3.5 1.8-2.8 0.6-1.6-0.6-1.4-1.5-1.7 1.2 0.1-17.6v-1.1l0.5-0.7v-2.3l-0.2-0.9 1-1.2 0.4-1.1-1.1 0.2-3 2.6-1.6 1-2.1 2.3-1.9 0.7-0.7 1.1-1.8 1z"/>
</svg>