<svg version="1.2" xmlns="http://www.w3.org/2000/svg" viewBox="0 0 301 208" width="150" height="104">
	<title>AM-svg</title>
	<style>
		.s0 { fill: #6e72fb;stroke: #f7f7f7;stroke-width: .8 } 
	</style>
	<path id="BR-AM" class="s0" d="m173.1 10.6l0.7 0.7 0.8 0.4h0.6l1.1-0.4 0.6 0.1 0.1 0.9 1.2 1.2 1 0.4 0.8-0.2 1.4 0.1 2 0.9 0.4 0.7-0.9 3.3-0.7 1.5 2.8 3.7 1.6 4.8 0.2 2.3 0.9 1.1v0.4l-1.6 1.5 0.4 1.6 0.6 1.6-0.7 3-0.6 1 0.3 4.9 0.9 2.2 1.2 0.9 0.6 0.9 1.1 4.3-0.1 0.6-1.1 1.3-1.9-0.3-0.1 1.1 5 4.4 0.5 0.1 2 1.3 1.5 1.6 1 2.1h0.5l1.4-0.4 2.3 1-0.4-2.1 0.8-2.3 0.2-1.7-0.4-1.8 0.9-3 1-1.2 1.3-0.7 2-0.7 0.6-0.9 1.6-0.1 2.8 1 1.9 2 0.9 2.5 1.8 0.2 1.3-0.4 1.4-1.4 2-0.6 0.4-0.4 0.1-0.5-1.2-1.4-0.2-0.7 0.1-0.7 1.2-2.6v-1.2l1.7-3 2.3-3.3v-0.6h18.5l0.4 4.9-0.5 1.4 0.2 2.3 0.3 0.7 1.7 0.8 0.1 0.5-0.3 0.6-0.1 2.2 1.9 1.9 0.3 0.2 0.7-0.1 1.9 1.2 0.5 1.8 0.1 0.9 0.3 0.5 4.6 3.8 4.6 2.5 0.6 0.9 1.4 1.1 1.8 0.7 2.4 1.3 2.3 0.6 1.3 0.2 1.4 0.8v0.6l1.3 1.3 2.7 1.5 1.1 2.2 1.9 0.7 0.8-0.6 1.4-0.3 0.2 0.5-0.1 0.7 1.8 1.7-29.9 64.3-0.8 1.3-1.5 1.1-0.5 1-0.1 1.1 0.9 2.3 0.3 0.6 1.1 0.6 1.6 1.5 0.6 1.3 0.2 2 0.5 0.5-1.1 1.2-0.2 0.6-0.1 0.8 0.3 0.8-0.2 1-1.2 1.9-0.9 0.6-0.4 0.9 0.1 0.8 0.7 1.4 0.4 1.9-1.4 4.2-1.1 5.3-1.3 0.7-47.8 0.3v-0.7l-0.3-0.4-1.4-0.3-1.9 1.1-0.6 1.8-0.7 0.2-3.2-1.5-0.7-2.9-0.6-0.2-1 0.1-0.4-0.2-1.3-3.3-2.5-0.9-1.4-1.3-0.8-1.9-0.4-0.5-2.2-1.1h-10.7l-1.4 2.6-1.7 0.5v1.2l-0.2 0.2-2.5 0.5-1.2 1.6v0.7l0.9 0.7 0.1 0.4-0.3 1-0.8 1.2-2.1 1.2-0.1 1.8 0.2 1.5-3.8-0.5-2.2 0.4-1.2 1.1-1.8-0.1-0.8-0.6h-0.5l-1.7 1.2-0.5 0.9 0.2 1.7-2.5 3.2-0.7 0.1-0.7-0.6-0.6-2.2-0.4-0.1-1.8 1-1.3 1.2-1.4 0.4-0.8-0.1-1.1 0.5-0.4 0.5-0.1 0.7-1.2 0.8h-0.4l-2.3-2.3-0.7-0.4-2.9 0.4-3.9-0.3 0.1 1.3-0.1 0.6-1.6 1.8-1.9 0.6-3.3 2.5-28.5-12.1-26.4-14.2-12.2-3.1-23.6-5.7-18-7.5v-0.6l0.7-2.9 1.2-1.4 4.9-3.5 2.3-0.2 0.4-0.3 1-1.6 0.1-1-1.7-4.5 0.3-1.2 1.2-2.2 1.3-1.3 0.9-1.3 0.4-1 0.3-1.7-0.3-1.3 0.7-2.1 0.3-2.3 0.8-0.7 3.6-1.6 2.2-1.3 1.2-1 0.4-1.4 0.8-0.4 1.4-0.1 1.6-0.9 3.6-2.8 2.4-0.4 1.5 0.3 4.2-1.2 1.5-0.8 1.8-0.3 3.3 0.3 1.3-1.6 0.7-1.4 1.1-0.6 2.1 0.2 0.6 0.5 1.4-0.2 1.1-0.8 1.7 0.2 0.3 0.5v1.2l1.6 1.3h2.8l0.6-0.4 0.4-0.7-0.1-0.4 1.2-4.9 6.7-37.2 1.2-2.9-1-5 0.1-0.3-1.3-1-1.5-2.8v-0.4l0.6-1.4-0.5-1.8-0.4-0.4-1.7-0.6-3-2.4-1.9-2.2 0.2-11.5 3.9-0.3 1.7-1.2 3.5-0.9 2.7 1.8 1.2 0.1 1.3-0.5-0.5-1.6 0.3-1.8-1.4-2.1-0.6-0.5-1.1-0.6-1.5 0.5-2.8-0.6-3.6 0.1v-9.9h0.9l1.3-0.5 2.3-0.6 2.9 0.8 19 0.1-0.5-0.7-0.8-0.1-0.3-1.2 0.9-1.9 1.4 0.4 0.7 1.5 0.8 1.3 0.7 0.4h0.8l1.6-0.6 2-2.1 0.3-0.9 1.2-1.2 2.6-1.4 1.3 0.5 1.2 2.5 1.6 2 0.7 1.3 0.7 1.8 0.2 1.6-0.5 3.6 0.2 1.7 3.2-0.7 8.3 7.1 0.8 0.2 2.5 0.2 2.3-1 1.7-1.7 2.1-1.1 2.2-0.1 0.6 0.3 0.7 1v1l-1.1 1.7 0.4 1 0.6 0.3 1.3-0.8 0.6-0.9 0.2-1.3 1-1.1 0.5-0.2 1 0.1 0.5-0.1 0.4-0.7 0.5-2.3 0.5-0.4 1.5-0.3 2.9-1.8 1 0.5 0.9-0.3 1.6-1 1-1.6 2.2-1.2 2 0.5 2.3-1.6 0.6-0.8 0.4-2.7v-1.3l0.8-0.9 1-0.4h1.7l1.4-0.4 2-1.6 1-0.4 2.3-0.3z"/>
</svg>