<svg version="1.2" xmlns="http://www.w3.org/2000/svg" viewBox="0 0 100 100" width="100" height="100">
	<title>AP-svg</title>
	<style>
		.s0 { fill: #6e72fb;stroke: #f7f7f7;stroke-width: .8 } 
	</style>
	<path id="BR-AP" fill-rule="evenodd" class="s0" d="m57.2 93l-0.9-0.1-0.8 0.3-1.3 0.2-2.8-0.7-1.4-1-0.4-1.5-1.9-1.4-0.1-1.3 0.2-0.7-0.3-1.6-0.3-0.5-1-0.2-0.4-0.9 0.1-2.4-3-3.3-0.7 0.3-0.9-0.1-1.5-3.5 0.2-1.6-0.6-1.8-0.6-0.6-0.7-1.5-0.2-2.1 0.4-3.1-0.1-0.4-2.6-0.7-2-2.3-0.8-2.8 0.2-0.7 0.7-0.2-0.5-1.2h-0.7l-2.8-2.6-1 0.1-0.3 0.4-1.4 0.2-0.8-0.3-0.8-1-1.2-0.8-1.1-0.2-0.5-1.2-0.7-0.8-1.9-1.1-1.3-0.5-3.4-0.3-1.1 0.2h-1.2l-0.3-0.5-0.2-1.5 0.2-4.5 0.7-1.3-0.4-2.3-0.6-0.6 0.3-0.2 1 0.3v0.8l-0.3 0.2 0.3 1 1.5-0.1 0.8 0.3 0.4 0.9 0.8 0.7 2.3 0.7 3.3 0.8 2.7-1.8 0.4-0.7 1.7-1.2 0.8-0.3 0.7 0.9 2.7 1 1.1-0.1 1.7-1.1 0.2-0.4 0.3 0.1 1.4 1.3-0.2 0.8 2.4-0.1 0.5 0.5 1 0.1h0.6l0.9-0.5 1.7-1.5 1.7-1.1 1.8-2.3 0.4-1-0.2-0.5 3.1-6.5 0.1-1.8 1.1-1.3 0.7-0.2 3.6-5.8 0.3-1.2 0.8-1.2 1.8-1.5 0.6-1.7 2.1-1.1 0.5-0.9 1.1-0.6 0.5 1.5 0.9 1.3-1.7-4.8v-1.3l0.1-0.3 3.4 2.4 1.1 1.2 1 1.2 0.5 1.2v1.6l0.4 0.3 0.4-0.5 0.3-0.1 0.3 0.4 0.2 7.9 0.6 3.9 2.7 6.1 2.7 8.9 3.3 5 1 0.3h3.3l2.8 0.9 1.3 0.9 0.7 2.6-0.1 3.3-1.3 1-1.7 0.4-0.4 0.4 1.8-0.2 1-0.4 0.3 0.2 0.1 0.6-0.2 0.7-5 4.1-1.2 2.1-2.1 1.4-2 3.7-2.9 3.5-0.7 0.5-0.9-0.1-1.5 0.5-2 3-1.4 0.1-0.7 0.9-1.5 1.6-1 2.3-1.1 1.8-0.8 0.7-3 3.4-0.4 2.4 0.2 1.8-2 1.8zm23.4-46.9l-0.5-0.4-1.1-1.8 0.1-0.9 0.2-0.4 1.7-0.5 0.4 0.4 0.9 2.3-1 1.1zm2.5 17.6l-0.4-0.3-0.1-0.7 1.1-1.1 0.9-0.1 1.2 0.2 0.5-0.1 0.4-0.6 0.1 0.6-1 1.4-1 0.5zm3.4-2.9l-0.7-0.2v-0.6l0.7-1 1.2-0.1 0.2 0.4-0.1 0.5zm-7.2-18.5l-0.7-0.5 0.2-0.8 0.9-0.2 0.9 0.4v0.7z"/>
</svg>