<svg version="1.2" xmlns="http://www.w3.org/2000/svg" viewBox="0 0 167 170" width="150" height="153">
	<title>BA-svg</title>
	<style>
		.s0 { fill: #6e72fb;stroke: #f7f7f7;stroke-width: .8 } 
	</style>
	<path id="BR-BA" fill-rule="evenodd" class="s0" d="m111.8 157.6l-0.4-0.8 0.7-1.4v-0.5l-0.6-1.1-4.1-3-0.1-0.5 0.2-1.5-0.6-1.3-0.6 0.3-0.2 0.4-0.4 0.2-0.2-0.2 0.5-4.4 0.9-3.3 0.8-0.9 2.4 0.2 1.1-0.7v-0.4l-0.6-1 0.2-2.7 4.9-4.2 1.5-3.1-0.4-1.1-0.8-1.1h-0.9l-0.7-0.4-2.9-2.5h-2.1l-2.2-0.6-2.2-1-2.8-0.6-1.9-0.1-1.4 1-1.4 0.5-2.6-0.5-0.6 0.2-0.5-3.9-6.5-6.2-0.4-0.2-4.3 1.2-1.6-1.2-0.5 0.2-0.9-0.2-2.6-1.3-2.1-1.6-1 0.2-4.4-3.6-1.1-0.6-2.7-0.7-1.8 0.2-1.8 0.9-0.8 1.1-0.7 0.2-5.3-1.4-0.6-0.5-0.3-1.5 0.2-0.9 1.2-2.8-0.8-0.4-2.3-0.5-2.2-0.1-1.2-0.5-1.8-0.1-3.8 1.6-4.3 3-0.6 1.2-3.4 1.8-2 0.4-0.9 1.2-1.8 1.6-1.5 0.5-1-0.2-1.8 2.6-1.1 0.8-2.1-0.4-0.7 0.1-0.7 1-1.3 0.9-0.4-0.2 1.4-3.4-0.5-2.4 1.5-2 0.2-0.8-0.2-1.2-0.7-1.8 0.1-0.6 0.7-1.5v-0.4l-3.2-2.6-1.7-3.5-0.7-3.5 0.1-1.6 1.2-3.8 1.6-1 0.2-0.4 0.1-0.9-1.7-0.9-0.1-0.3 0.5-2.5 1.4-1.1v-0.4l-2.7-2.4v-1l1.3-2.3v-1.1l-0.2-0.4-1.4-0.5-1-0.7-0.3-1.2v-2.9l0.2-0.9 2-1.7 1.1-0.4 1-0.7-0.3-0.6-0.6-0.6-0.9-0.2-1.1 0.1-0.3-0.3-0.1-0.5 0.4-1 2.1-0.8 0.5-0.4v-0.8l-1.9-1-3.6-0.6-1.8-2-0.3-0.9 0.5-1.2 1-0.7 1.6-3.5 0.9-0.6 1-0.3 0.3-0.3-1.3-1.8 0.2-0.4 3.2-2.6 3.9-2.1 0.5-0.4 0.2-1 0.7-0.7h2.4l1.4 1.4 0.7 1 0.5 2.2 1.7 2.5 4.2 1.9 1.8-0.6 2.1 0.2 0.4-0.2 0.7-1.4 1.2-0.4 0.6-0.9 1.2-0.9 2.2-0.7 1.3 0.2 1.5 0.5 1.4-0.4 2.9-2.5 3-5 0.7-0.9 0.2-0.9 0.3-2.5-0.1-1.2-2.2-4.4v-1l3.3-1.6h1.9l1.5 0.4 0.4 1 0.4 0.1 2.1-0.4 1.4-0.5 1.3 0.3 1.7 1-0.1 0.7 0.2 0.3 0.8 0.3 3-0.2 1.5-0.6 1.7-0.1 0.8-1.2 1.5-1.4 2.7-0.3 0.8-0.4 0.8-0.9h2.2l0.6 0.6 0.3 0.1 1.9-1.9-0.1-2.4 1.9-0.3 0.8 0.1 1.1-0.6 1.5-2.3 0.4-1.2 0.9 0.4 1.2-0.2 2.2 0.2 2.8 1.4 0.5 0.5-0.1 2.8 0.7 1.9 2.2 0.9 0.3 2-0.9 1.7 1.8 0.6 1-0.2 0.8-0.9 2.9-0.9 0.7-3.6 0.5-0.8 0.8-0.2 0.8 0.5 0.6 0.1 2.4-1 1.1-1.3 0.1-0.6-0.2-1.3 0.3-0.3 2.2-0.4 0.8-2.1 1.6-0.4 2.6-1.5 0.6-0.1 1.5 0.6 0.8 1.4 1.3 0.8 2.4 0.8 3 0.4 1.6 1.2 0.5 1.6 0.4 0.3 0.4-0.2 0.3-1.7 0.5-0.5h1l0.4 0.3v0.7l-0.6 0.9 0.5 0.8 0.5 0.4 2.1 0.8v1l1.2 3 0.5 1.4 1.1 0.3 0.4-0.1 1.4 0.8 0.2 0.7-0.6 1.2 0.2 2.1 1.3 2.5 1.9 2 0.8 1.1-0.1 3.1-0.6 1.7-0.1 0.8 0.7 2.8-0.3 0.6-0.7 0.5-2.5 1-1.1-0.7h-1.8l-0.3 0.3-0.6 1.5 0.1 0.8 0.9 1.6 1.1 0.7 0.5 1.5 1.5 1.5 0.1 0.4-0.1 1.4-0.4 0.4 0.2 0.4 0.5 0.5 2 0.9 0.5 0.7 0.5 0.4 1.5 0.6 2.9-0.9h0.7l0.3 0.4-4 8.9-3.9 5.1-1 2.4-5 5.7-2.5 1.3h-0.9l0.3-1.5 0.4-0.1 0.2-1.1-0.5-1.9-1.9-0.3-0.4-1.3-0.7-0.7-0.3 0.6-0.5 2.3-0.5 0.9-0.6 0.3-0.5-0.3-0.5-1.7 0.1-0.3 0.3-0.1v-0.4l-0.9 1.3 0.9 1.6 0.5 0.3 0.4-0.2 1.1 0.3-0.4 1.8-1.2 1.1-0.3 1.9-1.2 0.9-0.4 0.7-0.2 0.8 0.2 0.8h-0.3l-1.1-0.3-0.2 0.4-0.3 2.5 0.3-0.7 0.8 0.2 0.2 0.5-0.2 0.5v0.6l0.3 0.3 0.4 1-1.1 2.5 0.6 3.4-0.5 0.5-0.6-0.2-0.2 1.1 0.6 0.5 1.2-1.7-0.4-2.2 0.8-0.7 0.2 0.6v1.7l-1 2.7-0.7 5.4-0.5 1.8 0.2 2.5 0.8 2.8 0.1 4.6 0.9 6.4 1 3.4-2.2 6.6-1.4 6.7-0.4 1-0.2 2.9-1 3.7-0.1 2.3 0.4 4.4 0.8 1.7-2.2 3-1.8 0.7-0.9 0.6-2.8 3.9-0.5 2.1-8.1-5.2zm19.4-73.9h-0.3-0.8l-0.2 1.1 0.5 0.4 0.8 0.2-0.3 0.4v0.6l0.6 0.1 0.7-1.6-0.1-1.1-0.2-0.2h-0.7zm2.8-4.1l-0.2-1.2 0.7-0.4 1.1-1 0.2-0.7-0.4-0.7 0.8 0.2 0.8 1-0.1 0.5z"/>
</svg>