<svg version="1.2" xmlns="http://www.w3.org/2000/svg" viewBox="0 0 100 100" width="100" height="100">
	<title>CE-svg</title>
	<style>
		.s0 { fill: #6e72fb;stroke: #f7f7f7;stroke-width: .8 } 
	</style>
	<path id="BR-CE" class="s0" d="m82.1 43.1l-4.9 1.6-2.6 2-3.3 6.7-0.9 1.1-0.9 0.6-0.6 1.7 0.1 0.7-1.4 2.4-1.4 1.6-0.6 1.1-1 0.2-0.8-0.5-0.5 0.1-0.8 0.9-1.5 2.2-0.3 2 0.6 0.1 0.7-0.3-0.1 0.5-0.8 1.2-1 3 0.5 1.3-0.7 1.3-1.1 0.6-0.1 0.4-0.2 0.9 0.3 0.4 0.6 0.3 0.3 0.7v1.7l1.2 0.9 0.7 0.1 0.4 1.2-1.7 3.4-1.1 1.2 0.1 0.2-1.6 0.5-1 0.8-1.6 2.3-1.6 0.1-0.7-1.7-0.7-0.5-1.4-0.5-1-1.1-0.5-1-1.8-0.8-2.8-1.9-3.1-0.4-1.3 0.1-2.2 0.8-1.6 0.2-0.9-0.3-4.9-0.2 0.1-1.3-0.7-0.7-0.1-0.9 1.1-3.2 1.5-2.2v-0.7l-0.7-1.2-2.6-0.4-1.3-0.7-1-2.6-1.1-5.2-0.7-2.6 0.2-0.5-0.9-8.1-0.1-0.4-0.9-0.7 0.8-0.6 0.5-1.6-0.6-2.9-1-2.1 0.5-1.6-0.8-3.8 0.8-1.4v-0.7l-1.4-1.6-0.4-1.8-3.2-6.4-1.8-4.7-0.2-1.3 0.1-1.5 1.6-1.9 1.1-1.9 0.1-0.8 0.2-0.1v-0.6l-0.4-0.7 0.6-0.8 6.8-0.2 2.8-0.5 2.1-0.6 7.4 0.8 2.1 1.1 2 1.5 4.1 2.2 1.5 0.5 4.8 3 1.2 0.2 2.2 2.3 3 2.1 2.6 0.7 2.4 2.9 1.2 0.6 3 3.8 4.1 3.1 1.5 2 1 1 1.5 0.8 1.2 0.1 2.4 0.9 0.8 0.7z"/>
</svg>