<svg version="1.2" xmlns="http://www.w3.org/2000/svg" viewBox="0 0 100 100" width="100" height="100">
	<title>ES-svg</title>
	<style>
		.s0 { fill: #6e72fb;stroke: #f7f7f7;stroke-width: .8 } 
	</style>
	<path id="BR-ES" class="s0" d="m32.9 69.6l-0.3-0.1 0.4-2.3 0.6-1.3-0.6-3.2 0.2-0.4 1.7-2h5.2l0.5-0.3 1-3.3 1.1-1.2 0.9-2.3 0.2-1.8 0.3-0.4 1.2-0.9 1.7-2 0.6-3-0.3-2.4-1.3-2.9-1.1-1.2-0.5-0.1-0.5 0.3-0.7-0.3-0.5-0.7 0.4-0.6 1.5-0.1 0.8 0.4h1l0.9-0.2 0.3-0.4-0.1-1.8-1.4-0.3-0.2-0.4 0.3-1.6 0.1-1.9-0.6-0.6-1.3-0.7-0.3-0.7 1.2-1.9 2.2-1.3 0.3-0.1 1 0.8 1.1 0.1 0.1-0.8-1.7-2.3 1.3 0.1 2.2-0.3 0.9-0.6 1-0.3 1.6-0.1 2.6 0.8 0.9 0.6 0.3 0.5 8.1 5.2-1 3.3-0.3 2.9 0.1 3.6 0.8 6.1-0.3 2.5-1.5 3.2-2.8 1.4-0.5 0.6-1.7 3.3-1 3.8-0.8 1.5-0.8-0.7-0.9-0.2-0.3 1.3 1.4 0.5-1.9 4.3-3.5 3.8-0.2-0.2-1.9 0.6-0.8 1.2-0.1 1.4-0.4 1.3-1.6 2-0.3 1.1-1.6-1-3 0.3-4.3-1-2.5-1.1-0.7-4.7z"/>
</svg>