<svg version="1.2" xmlns="http://www.w3.org/2000/svg" viewBox="0 0 131 121" width="131" height="121">
	<title>GO-svg</title>
	<style>
		.s0 { fill: #6e72fb;stroke: #f7f7f7;stroke-width: .8 } 
	</style>
	<path id="BR-GO" class="s0" d="m101 61.1l-0.9-1 0.2-2.4 0.6-1.2-0.1-2.2-1.8-2h-11.9l-0.4 3.7-0.9 1.9 0.5 3.2h14.7l-0.6 1.6 0.4 1.5-0.7 1.6-1.1 1.3-0.4 1.4 0.9 1.2 0.8 0.4 1.4 1 1.7 4.6v0.6l-2.3 2.7-3.3 3-0.4 2.1 1.1 1.1 0.9-0.4 1.6 0.5 0.4 0.7 0.2 1-0.1 0.7-0.8 0.9-0.5 1.9 1.2 3.4-3.1 2.1-1.1 0.2-0.9 0.9-0.5 1.1-4.9 2.7-0.7-0.7-4.3-1.9-0.6 0.5-0.6 0.1h-1.7l-1.5-0.3-3.8 0.2-2.1-0.9-4.1 2.6-2.9 2.9h-0.3l-1.3-1.4-1.6-0.3-3.1 1.7-3.8-0.7-2.4 1-2.3 0.5-1.4 2.1-1.2 2.5 0.1 1-0.9 1.3-0.8 0.3-0.8-0.2-0.5 0.2-0.9 0.7-1.7 2.1-0.5 1.9 0.5 0.6v0.3l-0.3 0.3-0.9-0.5-0.2-0.4-2.7-2.3-3.1-0.6-1.7-1.5-1.9-0.5h-1.5l-3.3-1.3-0.7-0.9-3.1-1.6-0.6-0.6-1.5-0.7-1.1-0.1-2.7-1.7-2.8 0.1-3.8-0.7-0.1-0.3 0.2-0.8 0.6-1.2 1.3-1.8-0.1-0.4-2.2-0.9-1.1 0.7-0.7-0.2-0.3-0.4-0.2-1.1 0.2-2.6-0.1-1.8-1-2.2-0.2-3.4-1.4-2.2-0.1-0.7 0.4-3.4 2.5-3.9 0.4-2.9 0.7-0.7 2-0.9 1.9-1.8 1.3-2 0.3-1.9 0.5-1 1.3-1.1 0.8-1.4 0.1-1.5 1.7-1 1.4-2.6 2.7-0.2 2.7-0.8 0.3-0.3 2-4.2 0.7-1 0.7-4.1 0.3-0.7 2-1.9 1.6-1 1.1-0.3 1.2 0.7 1.2-0.8 1.4-1.4 0.8-2.9 1.2-2.9v-0.8l-0.5-1.1 0.6-2.8 1.6-3.1-0.1-5.1 1.2-0.8 1-2.6 2-3.2 0.4-1.1-0.1-2.7 0.3-0.9 1-0.9 0.2-1.1v-0.6l0.3-0.5 0.2-1.9 0.7-1.2 1.8-2.1 0.5-0.3v1.7l-1.2 1.9-0.5 2.4 2.4 0.4 2.2 1 3.9 0.4 3.1 1.7 4.1 1.4 0.6-0.2 1.6-5.9 1.5-2.4 1.2-1 1.1 1.3 1.1 1.9 1.1 3.7 0.6 3.1h1.1l0.8-0.7 0.3-1 0.5-0.5 2.8 0.3 4.5-0.5 0.2 0.7-0.5 1.6 3.1 1.4 3.4 0.7 0.6-0.1 0.6-3.3 0.5 0.1 1.5 2.6 0.5 0.2 1.8-0.9 2.5-2.1 4.5-1h1.6l2.5-1.1 1.8-1.3 5.3-1.4 2.7 2.4 0.1 0.4-1.5 1.1-0.5 2.5 0.1 0.3 1.7 0.9-0.1 0.9-0.2 0.4-1.6 1-1.2 3.9v1.5l0.6 3.5 1.7 3.5 3.2 2.6v0.5l-0.7 1.4-0.1 0.7 0.7 1.7 0.2 1.3-0.2 0.7-1.5 2-1 1-3.2-0.3-0.9-1.8-2.5-1.5-1.1 1.5 0.5 3.8-0.5 0.5-0.4 0.2-2.8-1.2-1.2 0.3-0.3 0.2-0.8 3.2 0.8 0.1 0.4 1.2-0.5 0.9-0.8 0.7 0.1 1.9 0.4 0.6 0.5 0.2 0.7 4.3-0.5 0.5-3.4 0.9-2.3 1.5z"/>
</svg>