<svg version="1.2" xmlns="http://www.w3.org/2000/svg" viewBox="0 0 218 206" width="150" height="142">
	<title>PA-svg</title>
	<style>
		.s0 { fill: #6e72fb;stroke: #f7f7f7;stroke-width: .8 } 
	</style>
	<path id="BR-PA" fill-rule="evenodd" class="s0" d="m148.3 198.5l-63-3.5-34-2.4-3.7-1.5-1.4 0.5-0.3-0.3-0.2-1.1-0.6-0.8-1.6-0.4-0.8 0.2-1-0.4-0.2-0.5v-1.1l-0.2-1-3.4-1.7-3-2.7-1.5-1.1-0.7-2.2-0.5-2.4 0.2-2.5-0.8-1.6-1.3-1.9-1.4-4-0.3-1.7-2.5-4.1-1.2-1.1-0.5-0.5-0.2-2-0.6-1.3-1.6-1.5-1.1-0.6-0.4-0.6-0.8-2.3v-1.1l0.6-1 1.5-1.1 0.7-1.3 29.9-64.3-1.8-1.7 0.2-0.7-0.2-0.5-1.4 0.3-0.9 0.6-1.8-0.7-1.1-2.2-2.7-1.5-1.3-1.3-0.1-0.6-1.3-0.8-1.4-0.2-2.2-0.6-2.4-1.3-1.9-0.7-1.3-1.1-0.7-0.9-4.5-2.5-4.7-3.8-0.3-0.4v-1l-0.6-1.8-1.8-1.2-0.7 0.2-0.4-0.2-1.8-2 0.1-2.1 0.3-0.7-0.2-0.4-1.7-0.9-0.2-0.7-0.2-2.2 0.4-1.5-0.4-4.8-1.5-17 0.7 0.3 0.4 0.6v0.5l0.5 0.4 0.9 0.3 1.4-0.8 0.4-0.8 2.7 0.3 0.8-1.1-0.5-1.8 1.8-0.4 1.4-1.6 2.6 1 1.9 0.1 0.6-1.6 3.3-1.6 2 0.4 1.1-0.1 0.5-0.3 1.2-1.4 0.4-1.4 1.5-1.1 0.8-0.1 0.7 0.4 2.1-1.1 0.4 0.1 0.4 1 0.7 0.4 2 0.5 1.6 0.3 0.6-0.6 1.7-0.4 0.8 0.3 0.8-0.1 0.8-0.3 2.3 0.3 4.6 1.4 1-0.2 1-0.8v-2.3l-2.1-2.5-1.2-0.6 0.5-1.7 1.3-1.5 0.2-1.1 0.4-0.1 0.7 0.1 0.8 0.8 2.3 1.1 11.7-2.3 1.5 1.7h1.1l0.4-0.3 0.6 0.6 0.4 2.3-0.6 1.3-0.3 4.6 0.3 1.4 0.3 0.5 1.1 0.1 1.1-0.3 3.4 0.3 1.3 0.5 1.9 1.1 0.7 0.8 0.5 1.3 1.2 0.1 1.1 0.8 0.8 1 0.9 0.3 1.3-0.2 0.4-0.4 0.9-0.1 2.8 2.6h0.7l0.5 1.2-0.7 0.2-0.2 0.7 0.8 2.9 2 2.2 2.6 0.7 0.2 0.4-0.5 3.1 0.2 2.1 0.7 1.5 0.6 0.6 0.6 1.8-0.1 1.6 1.5 3.5 0.8 0.2 0.8-0.4 2.9 3.3-0.1 2.4 0.4 0.9 1 0.2 0.3 0.5 0.3 1.6-0.2 0.7 0.1 1.3 1.9 1.4 0.4 1.5 1.5 1 2.8 0.7 1.3-0.1 0.7-0.4 1 0.1-0.6 0.7 0.3 1.6-0.1 0.5-1.3 1.1-1.4 0.2-0.5-0.2-0.9-0.8-0.6-0.1-3.4 1.6-0.4 0.5-1.6 0.7h-0.6l-1.5 0.6v0.6l6.5-1.1 0.8 0.7 0.2 0.4v0.7l-0.7 0.5 0.3 0.4 0.7-0.2 0.8-1h1.1l0.5-0.3 0.6 0.1 1.1-0.4 1.1-0.6 3.3-2.3 1.5-0.4 1.8-0.8 3.2-1.8 0.5-1 0.7-0.5 2.1-1.1 0.6-0.7-0.2-0.6 0.2-0.5 1.1-0.2h1.1l0.4 0.2 0.4 3.8-0.5 2.6 0.3 1.6 0.8 1.6 1.3 1.4 0.3 1.6-0.1 0.5-1.8 1.8-0.5 0.2-0.9-0.6-1.8-0.5-1.2-0.3-1 0.2-2.1-1.1-0.3-1.1-0.8-0.5-2.3 3.8-0.6 2.4 0.6 2.9 0.5 0.7 0.9 0.6-1-1.2-0.4-2.6 0.1-0.6 2.6-4.2 2.3 1.2 0.1 0.4 2.5 2.5-0.2 2-0.7 0.6 0.4 2.3 0.5 1.1 1.1 0.8 0.7 0.1 0.6 0.5-0.4-0.6-0.8-0.3-1.2-1-0.2-0.7 0.4-4.2 0.8-1.2 1.4 0.8 0.8 1.2v0.7l1.2 0.9 0.2-0.3-1-1.2-0.9-2.1v-0.5l2.2-2.3 1.7 0.1 1.9 0.6 0.3 0.6-0.6 0.6 0.3 0.3h0.5l1.1-0.2 1.3-0.9 4.1-0.9 0.7 0.2 1.8 1 3.2-0.4 1-0.4 1-1 1-0.6 1.8-0.5h0.7l0.1 0.8-2 4-0.3 1.5-0.4 1.1-0.9 1v0.9l0.6 1.4-0.3 2.5 0.9-1.2v-1.4l1.5-3 1.1-3.2 1.2-1.6 0.2-0.2 0.8-0.1 0.6-0.3 0.5-0.1 1.3-0.2 0.9-1.3 1.5-1.7 1.3-2.3 0.6-0.4 0.7 0.5 0.7-0.5 1.6 2.4 1.2 0.5-0.1-0.7-0.3-0.7 0.6-1.1 3.5-0.5-1-0.3-3.5 0.5-0.3-0.2 0.2-2.5 0.6-0.3 0.6 0.4 1 0.1 1.1-3.1-0.7-1.4 0.1-0.6 1.1-1.8 2.9-2.5 0.3-0.1 1.1 1.1 3-2.1h0.4l0.4 0.4 0.1 0.6-0.3 0.7 1.1-0.2 0.8-0.6 0.4-0.8 0.6-0.1 0.3 0.1 0.7 1.4 1.3 1.2 0.2-0.6-0.1-0.3-0.9-0.5-0.2-0.3-0.1-1.2 0.2-0.4 0.4-0.2 2.3 0.2 1.2 0.7 0.6 1 1.6 0.7 1.7-0.8 0.5 2.2-0.5 0.3v0.6l0.9-0.6 1.1-2.3 0.4 0.2-0.2 1.4 0.4 0.4 2.5-0.3 0.5 0.7 0.4 1.7-0.6 0.9 0.9-0.5 0.2 0.4 1.9 0.1 3.6-1.2-0.4 1.6-0.7 1.8 1.5-0.5 0.6-0.6 0.6 1.6-0.8 0.5-0.5 1 0.2 1.4-0.7 4.4-0.6 0.7-1.1 0.1-0.1 0.7 0.3 0.5 1-0.2 0.4 0.5-0.1 1.6-0.9 3.1-0.3 0.7-1.8 1.5-0.5 2.4 0.2 1.7-3.7 3 1 1.6-0.8 0.8 0.2 1.9-0.4 1.2-0.9 1.5-1.4 1.7-2 1.6-1.6 4.7-0.3 1.9-0.5 1.2-2.4 2.3-1.1 0.5-0.6 2.8-1.6 1.2-0.4 1.2-1.6 2.1-1.1 1-2.4-0.3-14.7 11.9h0.5l2.3 0.8 1.8-0.2 1.3 0.1 1.1 1.7 0.3 0.3 0.9 0.1 1.3 1.2-0.1 0.6-0.3 0.7-0.8 0.4h-0.9l-0.3 0.3 0.1 1.4 1 1.4-0.9 2.7-0.7 0.5-1.4 0.5-0.3 0.4 0.3 1.2-0.2 1.4-1.3 0.1-1.5 1.4-0.8 1.2 0.1 1.5-0.2 0.5-2.5 1.2-3.4 1.2-2.5 1.8-0.2 0.3 0.4 2.2 0.1 2.7-1.3 2.1-1.4 1.6-0.2 0.6 0.2 0.9 0.6 1 1.7 1.7 0.7 0.3 0.2 0.3-0.7 4.1-1.7 5.1-1.1 0.8-1.7 3.3-0.2 0.9-0.9 1.6-0.8 0.8-1 0.2-1.4 0.9-1 1.9-1.2 1.7-1.2 1.1-1.2 1.6-1.1 4.4zm21.2-130.3l-4.6 2-3.4 0.5-2-0.3-0.6 1.1-1.9 1.2-0.7-0.6-0.6-1.5-0.2 0.3 0.4 1.2-0.3 0.8-0.8 0.4-3.7-1.6-0.8 0.7-4.2 1.3-3.2-0.6-0.8-0.6-0.3-1.9-0.2-0.4-1.1-1-1.1-1.6-0.2-1.8 0.5-2.7 0.7-0.4 1.7 0.3 1-0.7v-0.6l-1.3 0.5-1.2-0.2-0.9-0.7-0.2-1 0.3-5.1 0.8-0.8 0.3 0.8 1.8 0.6 0.5-0.1-0.4-0.4-1.3-0.2-0.9-2.2 0.4-1.7 0.8-1.9 1.4-1.4 0.9-0.5 1.4-0.5 1.3-0.1 3.5 0.5 7.2 1.7 3.7-0.4 0.1-0.3 1.1-0.6 2.2-0.4 2.9 0.3 2.8 0.8 6.4 0.9 0.7 0.4-0.1 1.3-0.7 0.7-0.7 1.5-0.3 2.6-0.9 3.3-1.3 0.7-0.3 0.7 0.2 1.2-2 2.6-1.4 3.5zm-47.2-0.2l-0.7-0.5 1.1-2.2-0.1-1.8 0.2-0.2 2.4-0.5 0.9-0.9 0.1-0.5-0.2-2.3 0.9-2.6 1.2-1.5 2.3-1.5 2.9-0.2 0.7 2.4-1.1 2.2-0.8 3-1.1 0.7-1.4 2-0.7 0.7-5 3.4zm28.5-22.9l-1-0.3-2.5 0.1-0.8-0.2-0.3-0.2-0.3-1.1v-1.3l1.5-0.4 1.9 0.1 2.2-1.3 4.8-0.6 0.7 0.2 0.7 0.7-0.2 1-2.5 1.4-1.8 2.5-1.1 0.5zm4.8 0l1.8-1.2h2l1.7 0.6 0.5 1 0.1 0.7-0.9 0.7-2.9 0.3-1.1 0.3-2.3-0.9-0.2-0.5zm-17 4.4l-0.5-0.3-0.6 0.1-1.5-0.7 0.2-1.2 0.6-0.9 1.9-0.4 2.4-0.9 1.3 0.1 0.8 0.7 0.1 0.1-1.9 1.6-1.1 0.3zm9.4-9.6l-0.8-0.3-0.2-1.7 0.2-0.6 1.2-1.3 2.4-0.9 0.3 0.1 0.5 0.7v0.9l-1.9 1.9zm-13.9 20.3l-0.1-0.4 0.2-1 1-2.8 2.6-1.7 0.7-0.3 0.7 0.2-0.1 1.8-1.6 0.4-1.6 2.2zm10.9-17.6l-1.2-0.3-0.3-0.5 0.9-0.9 0.7-4 0.9-1.2 0.3 0.1 0.1 0.4-0.1 2.4 0.6 1.9-0.3 0.9-1 0.4zm-14.8 10.2l-0.3-0.2 0.1-0.6 0.6-0.4 1.2-1.7 0.7-1.5 0.8-0.7 1.4-0.5-0.2 1.5-0.4 1-1.7 1.6zm13.9-7l-0.6-0.2-0.9-0.7-0.9-1.6-0.1-0.4 0.2-0.3 0.8-0.6 1.9 0.9 0.3 0.4 0.2 2.1zm-5.4 30.6l-0.6-0.2-0.9-0.5-0.7 0.5-0.7-0.3-1.7-1.7v-0.6l1.3-0.1 3 1.4zm-21.1-5.6v-1l-0.2-0.3 0.6-1 2.4-0.9 0.8 0.4 0.8 0.9-0.3 0.3-1 0.5-2.5 0.4zm12.7-6.7h-0.2v-0.4l0.5-0.9 1.8-1.6 0.5-1.3v-1.3l0.2-0.3 0.4 0.5v1.5l-0.9 2.7-0.6 0.7zm6.3-9.9l1.6-3 0.9-0.2 0.7 0.2 0.3 0.8-0.6 0.8zm31.4 18.9l-0.8-0.3-0.4-1.1 1.1-1.7 1-0.3 0.2 0.1v0.7l-0.7 2.2zm-33.5-19.4l-0.6-0.2 0.4-2.1 1.3-1.8 0.2 0.1 1.3 0.8v0.3l-1.5 0.6zm2.2 5.1h0.7l-0.4 0.4-0.9 0.4-0.1 1.1-0.8 0.7-1.7 0.8-0.2-0.2 0.3-0.8 0.5-0.6 1.7-1.7zm-22.6 10.2l-0.5-0.2-0.1-0.3 0.4-0.4 3.6-1.6 0.5 0.7v0.2l-1.4 0.7zm63.6-4.8l-1.1-0.2-0.8-0.7 0.9-1.3h1.3l0.2 1.2-0.1 0.6zm-37.2-18.9l-2.4 0.7h-0.6l-0.2-0.2 1.1-1.1 1-0.5 1 0.2 0.5 0.3 0.1 0.3-0.1 0.2zm-5.3 8.6l-0.1-0.8 0.3-0.5 2.5-1.5-0.9 2-0.9 0.7zm2.2 4.5l-0.5-0.1v-0.2l0.7-1.5h1.2l-0.1 1.3zm28.1 15.9l-0.3-0.3 0.9-1.6 0.7-0.4 0.2 0.8 0.5 0.3-0.3 0.6-0.4 0.3-0.6-0.2zm-26.7-23.3l-0.9-0.1v-0.2l2.4-1.8v1l-0.2 0.6-0.2 0.3zm67.4 10.3l-0.4-0.6 0.2-0.7 1.1-0.9 0.2 0.1 0.2 1.8z"/>
</svg>