<svg version="1.2" xmlns="http://www.w3.org/2000/svg" viewBox="0 0 100 134" width="80" height="107">
	<title>PI-svg</title>
	<style>
		.s0 { fill: #6e72fb;stroke: #f7f7f7;stroke-width: .8 } 
	</style>
	<path id="BR-PI" class="s0" d="m75 6.2l1.3 0.1 0.7-0.2 2.2 0.5 1 0.8 0.3 0.6-0.1 0.8-1.1 1.9-1.6 1.9-0.1 1.5 0.2 1.3 1.8 4.7 3.2 6.4 0.4 1.8 1.4 1.6v0.7l-0.8 1.4 0.8 3.8-0.5 1.6 1 2.1 0.6 2.9-0.5 1.6-0.8 0.6 0.9 0.7 0.1 0.4 0.9 8.1-0.2 0.5 0.7 2.6 1.1 5.2 1 2.6 1.3 0.7 2.6 0.4 0.7 1.2v0.7l-1.5 2.2-1.1 3.2 0.1 0.9 0.7 0.7-0.1 1.3-1.8 0.2-0.5 0.3-0.1 0.5v0.9l0.6 1.1v2.2l1.6 1.6 0.3 0.6-0.1 2.2-0.7 1.8-3.9 3.9-1 0.2-2.3 1.4-0.5 0.8-2 1.7-2.6 1.3-0.5 1.2-1.5 2.3-1 0.6-0.8-0.1-2 0.3 0.1 2.4-1.8 1.8h-0.4l-0.6-0.6h-2.1l-0.9 0.9-0.7 0.4-2.8 0.3-1.5 1.4-0.8 1.2-1.7 0.1-1.5 0.6-3 0.2-0.8-0.3-0.2-0.3 0.1-0.7-1.7-0.9-1.3-0.4-1.4 0.5-2.1 0.4-0.3-0.1-0.4-1-1.5-0.4h-2l-3.2 1.6-0.1 1 2.2 4.4 0.2 1.2-0.3 2.5-0.3 0.9-0.7 0.9-2.9 5.1-3 2.4-1.4 0.4-1.4-0.5-1.4-0.2-2.2 0.7-1.2 0.9-0.6 0.9-1.2 0.4-0.7 1.4-0.3 0.2-2.2-0.1-1.8 0.5-4.1-1.9-1.8-2.5-0.5-2.2-0.7-1-1.4-1.3h-2.4l-2.9-0.2v-2l0.3-1 1.2-2.5 0.1-6.3 0.7-1.4 0.1-0.5-1.8-3.1-0.4-3.2-0.7-1.9 0.7-2 1.7-1.4 1.2-2.5 0.1-1.5 0.4-0.8 0.3-0.3 1.4-2.7 0.6-2.3 0.4-3 1-3 2.1-1.9 2.8-0.8 2.6-0.3 1-0.4 1.7-1.5h1.1l1.3-0.5 2.9-2.6 2.3-0.9 2-2 0.7-0.9v-0.5l1.9-1.9 0.5-0.2 0.8-0.2 0.2 0.3 1.2-0.3 1-0.6 1.4-0.2 1 0.2 2.5 1.8 1.6-0.1 2.4-0.8 0.8-0.1 0.7 0.3 2.3-0.3 1.2-1.3 0.5-1.4 0.1-1.2 0.3-0.5 0.4-2.2-0.2-0.8-0.1-0.5-1.6-0.9-1.8-2.1-0.5-2.3-0.1-2.1 0.1-2.5 4.1-4.4 0.2-0.5 0.1-2.5-0.5-3-1.6-2.8 1.1-2.8 0.3-1.5-0.4-1.3-1.2-0.8-0.3-1.9 0.7-1.1 0.7-0.1 0.8-2 1.9-1.9 0.9-1.8-0.1-1.8 2.9-3.4 0.9 0.2 3.3-0.5 4.1-4 1.8-2.2 0.4-1.6-0.7-0.5-0.2-0.7 0.5-1.5 0.7 0.2 1.5 0.8 0.5 0.5-0.1 0.3z"/>
</svg>