<svg version="1.2" xmlns="http://www.w3.org/2000/svg" viewBox="0 0 107 112" width="95" height="99">
	<title>RR-svg</title>
	<style>
		.s0 { fill: #6e72fb;stroke: #f7f7f7;stroke-width: .8 } 
	</style>
	<path id="BR-RR" class="s0" d="m94.9 64.7l1.6 16.9h-18.5v0.6l-2.3 3.3-1.7 3v1.2l-1.2 2.6-0.1 0.7 0.2 0.7 1.2 1.4-0.1 0.5-0.4 0.4-2 0.6-1.4 1.4-1.3 0.4-1.8-0.2-0.9-2.5-1.9-2-2.8-1-1.6 0.1-0.6 0.9-2 0.7-1.3 0.7-1 1.2-0.9 3 0.4 1.8-0.2 1.7-0.8 2.3 0.4 2.1-2.3-1-1.4 0.4h-0.5l-1-2.1-1.5-1.6-2-1.3-0.5-0.1-5-4.4 0.1-1.1 1.9 0.3 1.1-1.3 0.1-0.6-1.1-4.3-0.6-0.9-1.2-0.9-0.9-2.2-0.3-4.9 0.6-1 0.7-3-0.6-1.6-0.4-1.6 1.6-1.5v-0.4l-0.9-1.1-0.2-2.3-1.6-4.8-2.8-3.7 0.7-1.5 0.9-3.3-0.4-0.7-2-0.9-1.4-0.1-0.8 0.2-1-0.4-1.2-1.2-0.1-0.9-0.6-0.1-1.1 0.4h-0.6l-0.8-0.4-0.7-0.7 0.3-0.5 0.2-2.3-0.3-0.2-3.4-0.2-3.7 0.1-3.3-0.7-0.2-0.6 0.8-1.8 0.1-1.4-0.7-1.8-2-3.5-0.7-2.1-0.5-3.7 0.8-1.5-0.1-1-1.8-2-2.2-1-2.8-2.8-1-1.8-0.3-1-1.2-0.6-0.2-0.4v-0.9l0.3-0.3 0.9 0.1 1.1 0.6 1 1.8 0.6 0.1 3.4-0.5 1.3 0.1 1.9 0.6 0.6 1.2 0.6 1.9 0.5 0.3h1l0.7-0.7 1-0.4 3.2 0.2h0.4l1.3 1.2 0.6 0.2 0.6-0.2 0.6-1.5 1.3 0.1 1.4 0.9 4 4.6 1 0.6 0.7 0.1 1.5-0.7 0.8-1.1 0.1-0.9-0.9-2.7 0.4-1.8 0.5-0.2 1.9-0.1 1-1.1 1.6-1.1 0.7 0.1 3.9 1.3 0.6-0.2 0.8-0.7 1-0.3 1.2 0.4 1-0.2 1.3-1.3 1-0.3 1.2 0.3 1.1-0.1 0.7-0.9v-1.3l3-1.8 2.4 0.2 2.7-0.4 0.9-1.1 0.1-0.8 0.6-1.1 0.8-0.1 1.8-0.9 1.1-1 1.1-1.8-1.2-3.5-1.2-0.4 0.7-0.2 1.4 0.1 0.8 0.3 3.6-0.1 1-0.9 0.8-0.2 1.4 0.4 0.5 1.3 1 0.8 0.5 1.4-0.7 4.9-0.7 1.3-1.2 0.7v0.9l1.6 0.4 1.7-0.2 2.3 0.8 1.8 1.1-0.9 1.4v1.2l2.4 3.4 0.2 1.5-1.5 2.9-1.9 1.5-0.7 1.5 0.2 0.3 0.1 2.2-1.5 2.4-0.9 2.8-0.3 2.6-0.1 2.6 1 1.9 0.5 1.8v1.4l1.6 1 0.9 0.2 0.1 0.7-0.5 5.1 0.2 0.8 1.8 0.3-0.7 1.1 0.5 0.5 2.1 0.8 1.5 1.9 2.6 2.7z"/>
</svg>