<svg version="1.2" xmlns="http://www.w3.org/2000/svg" viewBox="0 0 100 100" width="100" height="100">
	<title>SE-svg</title>
	<style>
		.s0 { fill: #6e72fb;stroke: #f7f7f7;stroke-width: .8 } 
	</style>
	<path id="BR-SE" class="s0" d="m48.2 65l-2.9 0.8-1.5-0.6-0.6-0.3-0.5-0.8-1.9-0.9-0.6-0.5-0.1-0.4 0.3-0.4 0.2-1.4-0.2-0.4-1.4-1.5-0.5-1.5-1.1-0.7-1-1.6v-0.7l0.6-1.6 0.3-0.3h1.7l1.1 0.7 2.6-1 0.7-0.5 0.3-0.6-0.8-2.7 0.1-0.9 0.7-1.6v-3.1l-0.7-1.2-2-1.9-1.3-2.5-0.2-2.2 0.7-1.1 6.4 2.9 3.7 1 5.4 3.1 1.3 2.4 1.8 1.5 1.7 0.8h0.4l3.6 2.2 0.6 1.3-2.4 0.8-4.5 2.9-1 0.9-1.6 2.2h-0.3l0.1-1.1-1-1.8-1 0.1 0.3 1.2h1.3l0.2 0.2-0.5 2-1.3 2.1-0.5-0.3-0.4-0.7-1-0.2 0.2 0.7 1.1 0.6-0.2 1.8-0.9 1.1-0.9 2.1-0.8 0.1-0.3-0.4 0.5-1.4 0.4-0.2 0.3-0.4 0.4-1-0.8-0.4 0.1 0.7-0.5 1.1-0.5 0.5-0.2 1.1 0.3 0.7-0.3 0.5z"/>
</svg>