<svg version="1.2" xmlns="http://www.w3.org/2000/svg" viewBox="0 0 100 138" width="72" height="99">
	<title>TO-svg</title>
	<style>
		.s0 { fill: #6e72fb;stroke: #f7f7f7;stroke-width: .8 } 
	</style>
	<path id="BR-TO" class="s0" d="m81.6 125.1l-5.3 1.4-1.8 1.3-2.5 1.1h-1.6l-4.5 1-2.5 2.1-1.8 0.9-0.5-0.2-1.5-2.6-0.5-0.1-0.6 3.3-0.6 0.1-3.4-0.7-3.1-1.4 0.5-1.6-0.2-0.7-4.5 0.5-2.8-0.3-0.5 0.5-0.3 1-0.8 0.7h-1.1l-0.6-3.1-1.1-3.7-1.1-1.9-1.1-1.3-1.2 1-1.5 2.4-1.6 5.9-0.6 0.2-4.1-1.4-3.1-1.7-3.9-0.4-2.2-1-2.4-0.4 0.5-2.4 1.2-1.9v-1.7l-0.5 0.3-1.8 2.1-0.7 1.2-0.2 1.9-0.3 0.5h-0.8l-1-0.6-1-3.3 0.8-2.8-0.5-3-0.5-0.6v-1.6l0.5-3.3-1.1-2.2v-0.5l0.8-0.9 0.2-0.9-1.4-1.3-0.1-0.9 1.9-6 0.1-2.9 0.5-3 1.9-5.3 0.4-0.2 0.4-0.9 0.5-3.1 1.1-1.3 0.5-1.9 0.7-1 1.6-3.7 1.1-4.4 1.2-1.6 1.2-1.1 1.2-1.7 1-1.9 1.4-0.9 1-0.2 0.8-0.8 0.9-1.6 0.2-1 1.7-3.2 1.1-0.8 1.7-5.2 0.7-4-0.1-0.3-0.8-0.3-1.7-1.8-0.6-0.9-0.1-0.9 0.1-0.6 1.4-1.7 1.3-2.1v-2.6l-0.5-2.2 0.2-0.4 2.5-1.7 3.4-1.2 2.5-1.2 0.2-0.5-0.1-1.5 0.9-1.3 1.5-1.3 1.3-0.2 0.1-1.3-0.2-1.2 0.2-0.5 1.5-0.4 0.6-0.5 0.9-2.7-1-1.4-0.1-1.4 0.3-0.3h1l0.7-0.4 0.4-0.7v-0.6l-1.3-1.2-0.8-0.1-0.4-0.3-1-1.7-1.3-0.1-1.9 0.2-2.3-0.8 0.5-0.6 2.7-1.9 1.9-0.5 0.9 0.1 2.8 1.5 1.4 0.1 0.9-0.6 1.8 0.3 0.6 0.7v1l0.3 0.4h1.2l3.4 1.4 0.9 1.1 0.4 3.5 0.7 1.5-0.2 3.7 0.2 1.1 0.7 1.1v0.4l-1.8 6.2-0.3 2.3 0.3 1-0.3 1.6-1.7 2.1-1.8 0.6-0.2 0.8 2 1.3 0.4-0.3 1.4 0.2 0.2 0.4 0.1 0.9-0.6 1.2 0.8 1.4 0.9-0.1 3 4.2 0.9 0.8 2.3 3.1 2.2-1.4 4.2-0.9 1.8 1.2 0.1 1.8-0.6 3.2 0.4 1.4-3.4 0.3-1.4 0.5-0.5 0.6-0.7 1.4-0.8 2.7 0.4 1.3-2.6 2.6-0.3 0.7 0.2 0.4 2.1 0.3 0.9 0.7 0.8 1.5v1.7l0.7 1 3.8 2 0.1 0.5-1.6 1.8 0.1 1.7 2.2 1.6 1 2.9 1.3 2 0.7 0.2 1.8-0.3 1 0.3 0.8 0.5 0.6 0.8 1.3 0.7 2.9 0.2-0.7 0.6-0.2 1-0.5 0.5-3.9 2-3.2 2.6-0.2 0.4 1.3 1.8-0.3 0.4-1 0.2-0.9 0.7-1.6 3.4-1 0.8-0.5 1.1 0.3 0.9 1.8 2 3.6 0.7 1.9 1v0.7l-0.5 0.5-2.1 0.8-0.4 0.9 0.1 0.5 0.3 0.4 1.1-0.2 0.9 0.3 0.6 0.5 0.3 0.6-1 0.7-1.1 0.5-2 1.6-0.2 0.9v2.9l0.3 1.2 1 0.7 1 0.2 0.4 0.3 0.2 0.4v1.1l-1.3 2.4z"/>
</svg>