<svg version="1.2" xmlns="http://www.w3.org/2000/svg" viewBox="0 0 100 100" width="100" height="100">
	<title>AL-svg</title>
	<style>
		.s0 { fill: #6e72fb;stroke: #f7f7f7;stroke-width: .8 } 
	</style>
	<path id="BR-AL" class="s0" d="m29.2 47.6l-0.2-0.8-1.4-0.7h-0.5l-1-0.2-0.6-1.4 1.4-1.1 0.6-1.1 2.2-0.8 2.4-3.3v-0.6l0.9-0.6 1 1.2 1.6 0.3 1.1-0.1 2.6 2 1.9 2.1 1.7 1 2 0.5 2.5-0.6 3.1 0.3 1.2-0.1 1.8-1.1h1.2l1.8-1.1 2.2-2.3 0.1-0.4 1.5-1.2 2-0.3 2.3 0.9 2.5-1.3 1.5-0.2 1.9 0.8 2.9 0.3 0.3 0.2-2.8 4.9-4.5 5.2-3.6 3.5-3 4.6-3.4 2.9-1 2-1.3 1.8-0.6-1.3-3.6-2.2h-0.4l-1.7-0.8-1.8-1.5-1.3-2.4-5.4-3.1-3.7-1z"/>
</svg>