<svg version="1.2" xmlns="http://www.w3.org/2000/svg" viewBox="0 0 120 153" width="100" height="127">
	<title>MA-svg</title>
	<style>
		.s0 { fill: #6e72fb;stroke: #f7f7f7;stroke-width: .8 } 
	</style>
	<path id="BR-MA" fill-rule="evenodd" class="s0" d="m70.8 34.2v0.3l-2 2.2-0.5 0.1v1.5l2-1.7 0.6-1.2 2.2-1.6 0.8-1.2 1.1-6.3 1.1-0.7 1.1-0.1 1.7-0.9 0.7-0.2 0.4 0.2 0.1 1.6-0.2 0.4-1.4 1.9-3.2 1.8-0.1 0.7 0.8 0.1 0.4-0.8 1.2-0.3 0.2 0.8-0.6 0.5 0.2 0.3 4.3-4.9 0.8 0.3 2.6-0.9 4 0.4-0.4-2.4 0.6-0.3 2.4 0.1 1.8 0.4 2.6 1.1 1.1 0.1 2.1 1.3 1.4 0.1 1.3 1.3 1.9 1.3 2.5 0.6 1.1-0.2 0.6 0.7 0.3 0.1 1.6-0.1 2.5 0.7 0.2-0.9-0.6-0.5 1.6-0.4 0.6 0.1-0.1 0.4-0.5 1.5 0.3 0.7 0.6 0.5-0.4 1.6-1.8 2.2-4.1 4-3.3 0.5-0.8-0.2-2.9 3.4v1.8l-0.9 1.8-1.9 1.9-0.8 2-0.6 0.1-0.8 1.1 0.4 1.9 1.2 0.8 0.4 1.3-0.3 1.5-1.1 2.8 1.5 2.9 0.6 2.9-0.1 2.5-0.2 0.5-4.1 4.4-0.2 2.5 0.1 2.1 0.5 2.3 1.8 2.1 1.6 0.9 0.2 0.5 0.1 0.8-0.4 2.2-0.3 0.5-0.1 1.2-0.5 1.4-1.2 1.3-2.3 0.3-0.6-0.3-0.9 0.1-2.4 0.8-1.5 0.2-2.5-1.9-1-0.2-1.5 0.2-1 0.6-1.1 0.3-0.2-0.3-0.9 0.2-0.5 0.2-1.9 1.9v0.5l-0.6 0.9-2 2-2.4 0.9-2.8 2.5-1.4 0.6h-1l-1.7 1.5-1.1 0.4-2.6 0.3-2.7 0.8-2.1 1.9-1 3-0.4 3-0.6 2.3-1.5 2.7-0.3 0.3-0.3 0.8-0.2 1.5-1.2 2.5-1.7 1.4-0.7 2 0.7 1.9 0.5 3.2 1.7 3.1v0.5l-0.8 1.4-0.1 6.3-1.2 2.5-0.2 1-0.1 2-1.3-0.7-0.6-0.8-0.8-0.5-1-0.3-1.8 0.2-0.7-0.1-1.3-2-1-2.9-2.1-1.6-0.2-1.7 1.7-1.8-0.1-0.5-3.9-2-0.6-1-0.1-1.7-0.7-1.6-1-0.6-2-0.3-0.2-0.4 0.2-0.8 2.6-2.5-0.3-1.3 0.7-2.7 0.7-1.4 0.6-0.6 1.3-0.5 3.4-0.4-0.4-1.3 0.6-3.3v-1.7l-1.8-1.2-4.3 0.9-2.2 1.4-2.2-3.1-0.9-0.8-3-4.2-0.9 0.1-0.9-1.4 0.7-1.2-0.2-0.9-0.2-0.3-1.4-0.3-0.4 0.3-1.9-1.3 0.2-0.8 1.7-0.6 1.8-2.1 0.2-1.5-0.3-1 0.3-2.4 1.8-6.2v-0.4l-0.7-1.1-0.2-1.1 0.2-3.7-0.6-1.5-0.5-3.5-0.8-1.1-3.4-1.4h-1.2l-0.3-0.3-0.1-1.1-0.6-0.7-1.7-0.2-1 0.5-1.4-0.1-2.8-1.5-0.8-0.1-2 0.5-2.6 1.9-0.5 0.6h-0.5l14.7-11.9 2.3 0.3 1.2-1 1.5-2.1 0.5-1.2 1.5-1.2 0.6-2.8 1.2-0.5 2.4-2.3 0.5-1.2 0.3-1.9 1.6-4.7 1.9-1.6 1.5-1.7 0.8-1.5 0.5-1.2-0.2-1.9 0.8-0.8-1-1.6 3.6-3-0.1-1.7 0.5-2.4 1.8-1.5 0.3-0.7 0.9-3.1 0.1-1.6-0.4-0.5-1 0.2-0.3-0.5 0.1-0.7 1.1-0.1 0.6-0.7 0.7-4.4-0.2-1.4 0.5-1 0.8-0.5h0.6l0.2-0.2v-0.6l0.3-0.7 0.6-0.6 1.3 1 0.5 1.9 1.2 0.1 0.7-1.4 0.6 3h1l0.3-0.5 0.1-0.9 0.8-0.1 1.7 0.6 0.5 0.6-1.4 1.7 0.7 0.7v0.6l1.2-2 0.5-1.6h0.4l0.4 1v0.6l-0.8 0.9-0.3 1 0.1 2.7 0.2 0.4 0.5 0.1 0.6-0.2 1-0.9-0.5-1 0.1-0.6 1.3-1.4 1.1-0.3 2.1 0.6 1.5-1.1 0.1 0.9-0.4 0.2-1.1 1.6 0.6 0.6 0.1-0.4 1.2-0.6 0.6 0.8-0.1 1.2 1.6 1.7 0.9-0.4 1.5 0.7 0.8 2.4-0.1 0.9-2.2 2.7-0.4 0.9 0.1 0.7 0.6-1 1.8-1.7h0.8l0.9 0.8 0.5 1.9-0.3 1.2-0.9 0.2-1.1 0.9-1.1 1.5v0.7l-1.1 2.4-0.6 3.5 0.2 0.4zm0.5 0.4l-0.1-0.8 0.6-1.5-0.5-1.1 0.2-0.6 0.9-1.3 0.5-0.2 0.1 2.4-0.2 1.3-0.8 0.6zm-6.3-25.7l-0.5-0.5-0.1-0.6 0.8-1.1 0.9-0.1 0.7 0.5 0.1 0.3-0.2 0.4zm3.5 4.1l-0.3-0.3v-0.5l1.1-0.9 0.5 0.1 0.5 0.8-0.2 0.7-0.4-0.2zm-14.1-4.8l-0.2-0.1 0.9-3.6 0.3 0.1 0.1 0.3-0.5 3z"/>
</svg>