<svg version="1.2" xmlns="http://www.w3.org/2000/svg" viewBox="0 0 125 121" width="125" height="121">
	<title>MS-svg</title>
	<style>
		.s0 { fill: #6e72fb;stroke: #f7f7f7;stroke-width: .8 } 
	</style>
	<path id="BR-MS" class="s0" d="m118.2 51.1l-0.4 2.4-0.3 0.4-1.5 0.8-1.3 0.1-0.5 0.2-1.2 1-2 2.7-0.7 0.6-1 0.3-0.6 1.7-0.2 2.9-2.6 3.7-0.9 0.5-0.3 0.4 0.3 1.9v1l-1.2 2.3-2 2.3 0.3 0.8-0.3 1.2-1.4 1.1-0.4 1.2-1.7 1.7-1.3 2.4-2 1.9-7.5 4.5-1.3 1.1-0.7 1.6-0.9 1.1-5.4 2.2-1.1 0.8-0.9 2.4v1.1l-1.4 3.6-0.7 0.7-1.7 1-1.1 0.3-0.3 0.3-1.6 8-0.3 0.8-2.4 1.5-2.6-2.3-3.4-1.9-4 2-0.6 0.7-1.7 0.5-2.6 0.5-2.3-0.5-1.1-0.6-0.4-4.3-0.3-0.7-0.9-1-0.3-2.4 0.5-1.4-0.6-0.8-0.1-0.4v-2.9l-0.9-1.9-0.6-2.8v-0.7l0.6-1.4v-1.6l-1.6-1.1-0.4-0.8-0.1-2.1-1.7-1.8-2.2-0.3-1.5 0.3-1.8-0.3-2.5-1.9-0.5-1.5-1.6 0.3-2.1 2.7-1-0.6-1.7 0.8-1.1 0.2-1.8-0.7-2.5-0.5-3.5 0.3-3.6-0.8-0.5-0.9-2-0.1-0.9 0.5-2.5-0.9 0.9-7.2-0.4-2.4 0.6-1.4 1-1.5 0.6-6-0.7-2.3-0.1-1.8-0.7-0.9-0.4-0.1-0.5 0.6-0.7-3.2-0.8-1.9-1.2-2-0.3-1.9 4-2.3 0.8-0.8-4.2-3.9 5.3-11.4 1.2-0.1-0.3-2.1-0.8-0.1 3.3-10.4 0.6-1.1-3.1-5.9 0.1-1.9 0.7 0.2 1 1.1 2.1 1.5 5.7-1.9 2-2 2-3 0.1-1.2 1.4-1.4h2.6l1.6-0.2 0.7 0.3 1.7-0.5 1.4-1.2 2-0.5 1.2 0.2 0.8 1.1 2.8 1.3 2.6 0.5 0.7 0.3 0.2 0.9 0.8 1 3 1.2 1.3 1.1 1.2 0.5 4.6-0.6 1.2-0.8 0.5-0.8 1.4-0.7 2.5 0.1 1.6 1.1 0.3 1.3 0.2 0.3h1l2.1-0.9 1 0.1 5.7-6 1.3-0.1-1.2 6.6-1.8 0.7-1.7 2.8-0.2 0.5 0.2 0.5 1.3 0.1 1.7 1.3 4.6 0.2 0.6-0.5 2.7-0.1 0.8 0.1 1.2 0.5 1.6-0.3 0.1 1.8-0.2 2.6 0.2 1.1 0.3 0.4 0.7 0.2 1.1-0.7 2.2 0.9 0.1 0.4-1.3 1.8-0.6 1.2-0.2 0.8 0.1 0.3 3.8 0.7 2.8-0.1 2.7 1.7 1.1 0.1 1.5 0.7 0.6 0.6 3.1 1.6 0.7 0.9 3.3 1.3h1.5l1.9 0.5 1.7 1.5 3.1 0.6 2.7 2.3 0.2 0.4-0.6 0.3-1 4.1 0.6 3.3z"/>
</svg>