<svg version="1.2" xmlns="http://www.w3.org/2000/svg" viewBox="0 0 191 180" width="150" height="141">
	<title>MT-svg</title>
	<style>
		.s0 { fill: #6e72fb;stroke: #f7f7f7;stroke-width: .8 } 
	</style>
	<path id="BR-MT" class="s0" d="m21.2 103.3l1.5-1.4 4.1-2.6 0.5-2.4 1.5-3.8 0.9-1.1 1.6-0.5 0.5-0.4 0.5-0.9 0.6-2.2 1.6-2 0.6-2.3v-1.7l-0.5-1.5v-2l-1.5-3.4-0.9 0.1-0.6-0.5-0.4-3.3 0.1-1.3 1.4-1.1 1.4-1.7 0.1-0.8-1.4-3.6-1-0.4-1.2-0.1-3.5 0.1-1.2-1.1 0.3-0.6-17.2-0.1 0.9-9-1.5-2.7-0.3-1.8 0.1-0.8 1-3.5-0.4-1.9 0.9-1.7-0.8-2.3-0.2-1.3-0.2-0.7-0.8-0.4-0.1-0.4 1.3-5 0.8-1.4-0.6-1.2-1.4-1 47.8-0.3 1.3-0.7 1.1-5.3 1.4-4.2-0.4-1.9-0.7-1.4-0.1-0.8 0.4-0.9 0.9-0.6 1.2-1.9 0.2-1-0.3-0.8 0.1-0.8 0.2-0.6 1.1-1.2 1.2 1.1 2.5 4.1 0.4 1.7 1.3 4 1.4 1.9 0.7 1.6-0.2 2.5 0.5 2.4 0.7 2.2 1.5 1.1 3 2.7 3.4 1.7 0.2 1v1.1l0.2 0.5 1 0.4 0.8-0.2 1.6 0.4 0.6 0.8 0.2 1 0.3 0.4 1.4-0.5 3.7 1.5 34 2.4 63 3.5-0.7 1-0.5 1.9-1.1 1.3-0.5 3.1-0.4 0.9-0.4 0.2-1.9 5.3-0.5 3-0.1 2.9-1.9 6 0.1 0.9 1.4 1.3-0.2 0.9-0.8 0.9v0.5l1.1 2.2-0.5 3.3v1.6l0.5 0.6 0.5 3-0.8 2.8 1 3.3 1 0.6h0.8v0.6l-0.2 1.1-1 0.9-0.3 0.9 0.1 2.7-0.4 1.1-2 3.2-1 2.6-1.2 0.8 0.1 5.1-1.6 3.1-0.6 2.8 0.5 1.1v0.8l-1.2 2.9-0.8 2.9-1.4 1.4-1.2 0.8-1.2-0.7-1.1 0.3-1.6 1-2 1.9-0.3 0.7-0.7 4.1-0.7 1-2 4.2-0.3 0.3-2.7 0.8-2.7 0.2-1.4 2.6-1.7 1-0.1 1.5-0.8 1.4-1.3 1.1-0.5 1-0.3 1.9-1.3 2-1.9 1.8-2 0.9-0.7 0.7-0.4 2.9-2.5 3.9-0.4 3.4 0.1 0.7 1.4 2.2 0.2 3.4 1 2.2-1.6 0.3-1.2-0.5-0.8-0.1-2.7 0.1-0.6 0.5-4.6-0.2-1.7-1.3-1.3-0.1-0.2-0.5 0.2-0.5 1.7-2.8 1.8-0.7 1.2-6.6-1.3 0.1-5.7 6-1-0.1-2.1 0.9h-1l-0.2-0.3-0.3-1.3-1.6-1.1-2.5-0.1-1.4 0.7-0.5 0.8-1.2 0.8-4.6 0.6-1.2-0.5-1.3-1.1-3-1.2-0.8-1-0.2-0.9-0.7-0.3-2.6-0.5-2.8-1.3-0.8-1.1-1.2-0.2-2 0.5-1.4 1.2-1.7 0.5-0.7-0.3-1.6 0.2h-2.6l-1.4 1.4-0.1 1.2-2 3-2 2-5.7 1.9-2.1-1.5-1-1.1-0.7-0.2-0.7-0.7-0.3-0.8 0.5-0.7-2.4-2.1-1.3 0.6h-0.5l-1.2-0.7-0.4-0.7-2-1.4-1.9-0.8-0.3-0.3-0.3-1.1-0.3-3-0.6-1.7-0.2-3.7 0.9-1.6 1.2-1.1 0.3-1.8-0.1-1.9-0.9 0.1-0.4 0.6-0.4 0.1-26.9-1-1-12.7-5.4-6.1 4.9-0.1-0.3-7.5-2.7-5.4-0.5-1.9 0.3-1.1 0.6-0.5 0.6-1.3-1.4-2.9-3.1-1.1z"/>
</svg>