<svg version="1.2" xmlns="http://www.w3.org/2000/svg" viewBox="0 0 100 100" width="100" height="100">
	<title>PB-svg</title>
	<style>
		.s0 { fill: #6e72fb;stroke: #f7f7f7;stroke-width: .8 } 
	</style>
	<path id="BR-PB" class="s0" d="m78.7 55.4l-2.5-2-0.8-0.3-2.7-0.2-2.3 1.1-1.5 1.2-0.4 1.8-1.9 1.1-2 0.4h-1.2v0.6l-0.8 0.5-2.1 0.3-3.9-0.2-1.6 0.8-0.6 0.7-1.8 0.1-0.9 0.7-0.5 0.7 0.4 0.8v0.5l-0.4 0.5-1.8 1.5-1.4 0.2-1.6 0.8-1.6-0.8-1-0.9-0.3-2.3 0.2-0.5-0.1-0.3-1.2-0.3-0.4 0.3-1.5 0.3v-0.5l2.5-2.6 0.2-0.5-0.7-1.8-0.1-0.5 0.4-0.8 3-1 0.1-0.3-0.5-1.4-3.5-2-1.5 0.5-2.2 1.2-0.9 1.5-1.5 0.9-1 0.3-2.7 1.9-1.6 1.6-1.6 0.3-2.6 0.9-0.8-0.3 0.1-0.7-0.7-1.2-0.3-0.1-1 0.7-1.5 0.3-1-0.3-1.4-1.9-0.4-0.1-0.1-0.2 1.1-1.2 1.7-3.4-0.4-1.2-0.7-0.1-1.2-0.9v-1.7l-0.3-0.7-0.6-0.3-0.3-0.4 0.2-0.9 0.1-0.4 1.1-0.6 0.7-1.3-0.5-1.3 1-3 0.8-1.2 0.1-0.5 0.6-0.5 1.9 1.6 0.9 0.5 2.9 0.6 1.1-1.2 3.3-1.6 0.8-0.7 0.1-1.1 0.4-0.9 3.2-1.2 1.4-0.1 3.3-1.1 0.6 0.1 0.5 0.4 0.1 1.2-3 3.2-0.5 1-0.4 1.7-0.4 0.4-0.8 0.3-0.2 0.3-0.1 1.7 3.5 0.5 0.3 0.2 0.4 1.4 0.2 0.3 3.2-1.3 1.8-0.1 1.9 0.3 0.9 1.2-0.5 1.5 0.8 0.8 2.4-1 0.5-0.7 0.5-1.2-0.5-1-0.1-1.4 0.5-0.6 1 0.4-0.6-1.6-0.7-0.8 0.3-1.4 1.9-1.4h1.3l0.5 0.4-0.1 1 0.6 0.4 3.4 0.4 0.5 0.4 5.9-0.4 2.1 0.3 2.5 1.1 1-0.4 3.5 0.2 1-0.2v2.4l1.5 4.4 0.1 0.6-0.2 0.9-0.4 0.5v0.9l0.6-0.8 0.5-1.5v2l0.6 1-0.3 5.2-0.4 0.6z"/>
</svg>