<svg version="1.2" xmlns="http://www.w3.org/2000/svg" viewBox="0 0 111 100" width="111" height="100">
	<title>PE-svg</title>
	<style>
		.s0 { fill: #6e72fb;stroke: #f7f7f7;stroke-width: .8 } 
	</style>
	<path id="BR-PE" class="s0" d="m53.5 65.5l-1.2-3.1v-0.9l-2.1-0.9-0.5-0.4-0.4-0.8 0.6-0.9-0.1-0.6-0.4-0.3h-1l-0.4 0.4-0.3 1.8-0.5 0.1-0.3-0.2-0.6-1.7-1.6-1.1-3-0.4-2.3-0.8-1.4-0.8-0.8-1.5-1.5-0.5-0.6 0.1-2.5 1.5-1.7 0.4-0.7 2-2.3 0.5-0.2 0.2 0.2 1.4-0.2 0.6-1.1 1.2-2.4 1.1-0.6-0.1-0.8-0.5-0.7 0.1-0.5 0.9-0.8 3.6-2.9 0.9-0.8 0.9-0.9 0.2-1.9-0.6 0.9-1.7-0.2-2-2.2-0.9-0.8-1.9 0.1-2.8-0.4-0.5-2.8-1.4-2.2-0.2-1.2 0.2-0.9-0.4 2.6-1.3 2-1.7 0.5-0.8 2.3-1.4 1-0.2 3.9-3.9 0.7-1.8 0.1-2.2-0.3-0.6-1.6-1.6v-2.2l-0.6-1.1v-0.9l0.1-0.5 0.5-0.3 1.8-0.2 4.9 0.2 0.9 0.3 1.6-0.2 2.2-0.8 1.3-0.1 3.1 0.4 2.8 1.9 1.8 0.8 0.5 1 1 1.1 1.4 0.5 0.7 0.5 0.7 1.7 1.6-0.1 1.6-2.3 1-0.8 1.6-0.5 0.4 0.1 1.4 1.9 1 0.3 1.5-0.3 1-0.7 0.3 0.1 0.7 1.2-0.1 0.7 0.8 0.3 2.6-0.9 1.6-0.3 1.6-1.6 2.7-1.9 1-0.3 1.5-0.9 0.9-1.5 2.2-1.2 1.5-0.5 3.5 2 0.5 1.4-0.1 0.3-3 1-0.4 0.8 0.1 0.5 0.7 1.8-0.2 0.5-2.5 2.6v0.5l1.5-0.3 0.4-0.3 1.2 0.3 0.1 0.3-0.2 0.5 0.3 2.3 1 0.9 1.6 0.8 1.6-0.8 1.4-0.2 1.8-1.5 0.4-0.5v-0.5l-0.4-0.8 0.5-0.7 0.9-0.7 1.8-0.1 0.6-0.7 1.6-0.8 3.9 0.2 2.1-0.3 0.8-0.5v-0.6h1.2l2-0.4 1.9-1.1 0.4-1.8 1.5-1.2 2.3-1.1 2.7 0.2 0.8 0.3 2.5 2 0.9 0.2 0.5 1.3-1.2 1.7-0.2 0.5 0.1 0.5 0.7 0.4 0.2 0.5 0.2 1-1.9 6.4-3.3 9-0.3-0.2-2.9-0.3-1.9-0.8-1.5 0.2-2.5 1.3-2.3-0.9-2 0.3-1.5 1.2-0.1 0.4-2.2 2.3-1.8 1.1h-1.2l-1.8 1.1-1.2 0.1-3.1-0.3-2.5 0.6-2-0.5-1.7-1-1.9-2.1-2.6-2-1.1 0.1-1.6-0.3-1-1.2-0.9 0.6v0.6l-2.4 3.3-2.2 0.8-0.6 1.1z"/>
</svg>