<svg version="1.2" xmlns="http://www.w3.org/2000/svg" viewBox="0 0 100 100" width="100" height="100">
	<title>RJ-svg</title>
	<style>
		.s0 { fill: #6e72fb;stroke: #f7f7f7;stroke-width: .8 } 
	</style>
	<path id="BR-RJ" fill-rule="evenodd" class="s0" d="m33.6 66.5l-0.1-0.7 0.4-0.3 3.2 0.2 2.6-0.6-2.5-1.5-1.4-0.5-2.8 0.7-1.4 1.6-1 0.3-0.7-0.1-1.4-2.1h-0.5l-0.9 0.4-0.9 1.1-3.2 0.8-0.3 0.9-0.2 1.9 2.2 0.1 1.1 1-1.2 1.1-0.9-0.2-1.4 0.2-0.5-0.3-1.7-1.7v-0.4l1.1-3.5 1.1-1.2 2.3-1 0.5 0.2 2.8-0.4 1.5-0.7 1.6-2.1-0.7-1.7h-1.7l-3.2 0.5-1.7-0.4-1.3-1.5-0.5-1.2-1.3-0.6 0.7-0.4 2.4-0.8 2.9-1.3 2.6-0.2 0.5 0.3 1.7-0.8 1.1-0.8 4.1-1.8h0.5l0.3 0.3 3.2-0.1 1.3-0.2 1.6-0.9 0.6-0.1 2.5 0.3 0.5 0.2v0.5l1.4-0.2 9.5-4.6 2.5-1 0.2-0.5-0.3-0.6-1.4-0.1 0.1-0.8 1.9-3.7 2.3-6-0.7-0.7 0.6-0.5 1.2-0.3 2.5-2.4 2 0.8 0.6 4.7 2.5 1.1 4.4 1.1 3-0.4 1.6 1-0.1 1.3-0.9 1.6-0.3 2.2 1.2 6.7-0.5 0.7-3.1 1.8-6 1.9-2.8 1.7-3.5 3.7-0.1 1.7 0.3 1.2-0.2 1.6-0.7 1.5-1.8 0.5-6.6-0.2-5.8 0.7-2.4-0.5-0.5-0.3v-0.7l1-1.5 0.7-1.4-0.1-0.7-0.8-0.1-2.8 1.1-0.2 0.7 0.3 0.8 1.4 1.2 0.2 0.9-0.6 0.5-1.6 0.6-1.6-0.1-8 1.1zm-5.1 2l-0.7-1 2.1-1.5 1.9 0.9 0.4 0.7-2.5 0.5-0.4-0.3h-0.4z"/>
</svg>