<svg version="1.2" xmlns="http://www.w3.org/2000/svg" viewBox="0 0 100 100" width="100" height="100">
	<title>RN-svg</title>
	<style>
		.s0 { fill: #6e72fb;stroke: #f7f7f7;stroke-width: .8 } 
	</style>
	<path id="BR-RN" class="s0" d="m78.6 59.2l-1 0.2-3.5-0.2-1 0.4-2.5-1.1-2.1-0.3-5.9 0.4-0.5-0.4-3.4-0.4-0.6-0.4 0.1-1-0.5-0.4h-1.3l-1.9 1.4-0.3 1.4 0.7 0.8 0.6 1.6-1-0.4-0.5 0.6 0.1 1.4 0.5 1-0.5 1.2-0.5 0.7-2.4 1-0.8-0.8 0.5-1.5-0.9-1.2-1.9-0.3-1.8 0.1-3.2 1.3-0.2-0.3-0.4-1.4-0.3-0.2-3.5-0.5 0.1-1.7 0.2-0.3 0.8-0.3 0.4-0.4 0.4-1.7 0.5-1 3-3.2-0.1-1.2-0.5-0.4-0.6-0.1-3.3 1.1-1.4 0.1-3.2 1.2-0.4 0.9-0.1 1.1-0.8 0.7-3.3 1.6-1.1 1.2-2.9-0.6-0.9-0.5-1.9-1.6-0.6 0.5-0.7 0.3-0.6-0.1 0.3-2 1.5-2.2 0.8-0.9 0.5-0.1 0.8 0.5 1-0.2 0.6-1.1 1.4-1.6 1.4-2.4-0.1-0.7 0.6-1.7 0.9-0.6 0.9-1.1 3.3-6.7 2.6-2 4.9-1.6 0.4 0.8 0.9 0.7h3.1l1.2 0.4 1.7 1.8 1.3 0.5 3.4-0.3 2.9 0.5 2.5-0.3 2.3-0.7 4.5 0.9 1.3 0.1 1.9 0.8 1.1 0.8 0.6 1 2.3 4.7 0.5 1.8v0.8l1.5 5.3 0.2 1.7 0.7 0.6 0.9 2.7z"/>
</svg>