<svg version="1.2" xmlns="http://www.w3.org/2000/svg" viewBox="0 0 120 100" width="120" height="100">
	<title>RO-svg</title>
	<style>
		.s0 { fill: #6e72fb;stroke: #f7f7f7;stroke-width: .8 } 
	</style>
	<path id="BR-RO" class="s0" d="m80.6 89.2l-1.3-1.4-0.4-1.9-1.6-0.5-0.9 0.3-1.8 0.1-4-1.8-0.1-0.4-0.6-0.7-1.3 0.6-2-1.6-1.5-1-0.8-1.5-0.3-1.4-1.1-0.4-1.7 1.2-1.3-0.1-1.4-0.8-0.8-1.3-3.2-1.6-1.9-0.1-1.2 0.5-0.9 0.8-1.4-0.1-0.3-0.3-2.1-0.5-3.1-0.3-0.8-0.4-1.1-1.2-0.3-2-1.6-0.5-1.9-1-0.8-1.7-0.3-0.2-2.7-0.3-0.4-0.3-0.9-3.7-0.8-0.9-0.5 1.1-0.7-0.3-0.3-0.6 0.7-1.5-0.9-1.6-1.3-0.4-1.3-3.4-0.2-1.7 1.6-2.9-0.2-1.7-1.2-1.9-0.7-2.2-0.1-2.3 0.6-0.5 0.4-1.3 1-1.1 0.4-1.5-0.2-1.5-0.5-0.8v-1.6l0.5-1.6-1.2-2.2-1-0.4-1.1 1v0.5l-0.9 1h-0.6l-2.1-1.1-5.2 0.1-5.6 1.8h-1.7l-1.5 0.5-3-1.3 3.3-2.5 1.9-0.6 1.6-1.8 0.1-0.6-0.1-1.3 3.9 0.3 2.9-0.4 0.7 0.4 2.3 2.3h0.4l1.2-0.8 0.1-0.7 0.4-0.5 1.1-0.5 0.8 0.1 1.4-0.4 1.3-1.2 1.8-1 0.4 0.1 0.6 2.2 0.7 0.6 0.7-0.1 2.5-3.2-0.2-1.7 0.5-0.9 1.7-1.2h0.5l0.8 0.6 1.8 0.1 1.2-1.1 2.2-0.4 3.8 0.5-0.2-1.5 0.1-1.8 2.1-1.2 0.8-1.2 0.3-1-0.1-0.4-0.9-0.7v-0.7l1.2-1.6 2.5-0.5 0.2-0.2v-1.2l1.7-0.5 1.4-2.6h10.7l2.2 1.1 0.4 0.5 0.8 1.9 1.4 1.3 2.5 0.9 1.3 3.3 0.4 0.2 1-0.1 0.6 0.2 0.7 2.9 3.2 1.5 0.7-0.2 0.6-1.8 1.9-1.1 1.4 0.3 0.3 0.4v0.7l1.4 1 0.6 1.2-0.8 1.4-1.3 5 0.1 0.4 0.8 0.4 0.2 0.7 0.2 1.3 0.8 2.3-0.9 1.7 0.4 1.9-1 3.5-0.1 0.8 0.3 1.8 1.5 2.7-0.9 9 17.2 0.1-0.3 0.6 1.2 1.1 3.5-0.1 1.2 0.1 1 0.4 1.4 3.6-0.1 0.8-1.4 1.7-1.4 1.1-0.1 1.3 0.4 3.3 0.6 0.5 0.9-0.1 1.5 3.4v2l0.5 1.5v1.7l-0.6 2.3-1.6 2-0.6 2.2-0.5 0.9-0.5 0.4-1.6 0.5-0.9 1.1-1.5 3.8-0.5 2.4-4.1 2.6-1.5 1.4h-0.7l-2.6-1.6-1.3-1.4-7.1 1-1.3-0.5-0.2-0.3-3.4 0.7-0.5-0.2-0.5-1.3z"/>
</svg>