<svg version="1.2" xmlns="http://www.w3.org/2000/svg" viewBox="0 0 152 100" width="152" height="100">
	<title>SP-svg</title>
	<style>
		.s0 { fill: #6e72fb;stroke: #f7f7f7;stroke-width: .8 } 
	</style>
	<path id="BR-SP" fill-rule="evenodd" class="s0" d="m83.8 96.2l-0.1-1.3-1.4-0.6-0.8-3.3 0.4-2-2.1-0.5-0.8 0.1-1.1 2.8-0.6 0.8-1.1-0.5-0.3-0.8 0.7-3.3 0.8-0.6 0.2-0.4-1.6-1.3-1.6-0.1-1.6 0.2-0.5-0.4-3.4 0.5-2.4 0.1-1-0.2-0.6-0.4-0.3-2 1.3-2.1 0.2-1.1-0.2-0.4-0.6-0.3-1-2 0.1-0.9-0.5-0.7-0.7-0.2-1.2-1.2-1.5-3 0.4-0.5 0.1-1.8-1.3-1.5-0.4-1.9 0.2-0.8 0.3-0.6v-2.7l-0.9-1.8-3.6-2.8-1.1-1.5-3 0.8-5.3-0.1-0.6-0.5-1.7-0.2-0.4 0.4-1.7-0.1-0.7-1.3-0.7-0.5-3.5-0.8-1.7-0.9-0.8-1h-2.6l-1.1 0.6-1.3-0.2-2.6-1.1-2.5-0.4-1.5-0.8-1.2-0.3-0.7 0.4-0.4 0.6-1.2 0.6-3.3-0.3-4 0.1-3.8-0.6-3.2 2.3 0.8-1.1 0.7-1.6 1.3-1.1 7.5-4.5 2-1.9 1.3-2.4 1.7-1.7 0.4-1.2 1.4-1.1 0.3-1.2-0.3-0.8 2-2.3 1.2-2.3v-1l-0.3-1.9 0.3-0.4 0.9-0.5 2.6-3.7 0.2-2.9 0.6-1.7 1-0.3 0.7-0.6 2-2.7 1.2-1 0.5-0.2 1.3-0.1 1.5-0.8 0.3-0.4 0.4-2.4 1.2-1.1 2.2-1.2 1.9-0.3 1.4-1.7 1.5-0.6 0.8 0.1 1.7 1.6h2.6l4.2 1 1.7-0.4 1.6 0.3 2-0.6 2.2 1.4 1.7 0.8-0.1 0.9 0.3 1.4 1.2 2.1h0.6l0.6-0.3 0.6-0.9 0.4-1.1 0.3-0.2h0.6l0.3 0.4 0.3 1v2.7l1.2 0.6 0.4-0.5-0.3-2.5 0.5-1.2 0.5-0.5 8.1-0.7 1-1.2 1.5 1.5 1.2 0.4 2.7-0.7 0.5-1-0.2-0.5 0.3-0.6 2.4-0.1 1.6 0.8 0.9-0.6 1.3-0.3 3.3 3.3 0.2 1.1-0.6 1-0.3 2.3 0.6 0.7 1.9 1.2 0.4 1.5-0.1 0.6-1.5 2-0.2 1.9 0.8 0.8 0.3 0.6 0.4 2.2 1.3 1.8 0.8 2v0.8h1.6l0.8-0.3 0.2-0.4h1l3.7 1.3 0.3 0.4-0.1 1.2-0.7 2.2-1.8 2.7 0.2 3-0.2 3.4-0.5 1.6 0.7 1.6 1.8 1.2 1.8 0.9 0.5 1.7-1.2 0.7 2 3.3 1.2 0.2 2-0.2 0.2 0.5 3.6-1 0.5 0.4 1.3-0.3 0.8-1v-0.8l-0.2-0.2 0.2-2.3 1.2-0.4 0.1 0.4-0.4 0.5v0.5h2.4l2.3-0.2 1.8-0.7 1.3-1.2 1.9-1 2.2-0.3 1.2-0.7 1.3 0.5 0.6 1.2 1.2 1.6 1.8 0.4 3.1-0.5h1.7l0.8 1.6-1.7 2.2-1.5 0.7-2.7 0.3-0.5-0.1-2.4 1-1.1 1.1-1.1 3.5 0.1 0.5 1.6 1.7 0.5 0.2-0.1 0.2-1.7 0.5-1-0.9-1.5 1.2-0.4 0.6 0.2 0.2-0.7 0.7-3.2 1.5-2.3 0.7-0.3 0.5 0.1 0.9 0.5 1.6-0.4 0.4-1.4 0.2-0.7-0.6-1.3-0.3-3.1-0.5-0.9 0.2-1.3 0.3-1.7 0.8-0.5 0.5-1.2 2.2-1.3 0.6-0.5-0.2 0.5-0.4-0.4-1.3-1.2-0.8-0.8 1.2 0.2 0.8-0.3 0.6-7.6 4.2-1 0.8-0.3 1.2-3.2 3-3.3 2-1.9 0.5-4.5 3.2-2.3 2h-0.7l-0.4 0.7 0.9 0.4h0.6l0.9-0.3v0.7l-0.6 1.4-1.3 0.8zm44.3-23l-1.5-0.7-1.2 0.2-0.5-0.4 0.1-0.7 1-0.7 1.1-1.8 0.7 0.2 0.6 0.7 0.2 2.9z"/>
</svg>