<svg version="1.2" xmlns="http://www.w3.org/2000/svg" viewBox="0 0 164 209" width="130" height="166">
	<title>regiao-sul-svg</title>
	<style>
		.s0 { fill: #6e72fb;stroke: #f7f7f7;stroke-width: .8 } 
	</style>
	<path id="BR-SC" class="s0" d="m132.6 124.3h-0.5l-1.2-0.8-0.7-1-1.6-0.6-1.5 0.8v1l0.3 1-0.3 0.2-1.8-1.2 0.1-1.4 1.3-1.7 1.1-0.2 0.6-1.3 0.3-1.6-0.2-2.2 0.8-1.8 1.2-0.4 2.1-1.6-0.9-2.4-3.3-0.3-2.1 0.4-6.7-1.1-1.2-0.5-2.2-2.7-0.4-1.4-1.7-2.3-3-3.4-1.6-1h-0.7l-1.4-1.6-5.5-3.5-1.8 0.3-0.1 0.5-1.6-0.2-1-2.4-2.5-1.4-2.3-0.9-2.7 0.1-1.6-0.1-2.6 0.4-1.9-1.2-2.6 0.4-1.6-1h-3.1l0.2-0.9-1.4-0.6-0.5 0.8-3.3 1.2-3.5-0.4 1.4-2.9 0.8-2.1-0.6-3.3 0.4-3.2v-2.5l0.9-1.8h3.7l0.7-0.3h0.5l1.1 0.2 0.3 0.5 2 1.4 2.7 0.1 2.3-0.6 5.3 1.7 4.3 0.3 1 0.6 0.2 0.5 1.5 1.1 3.8 0.5 4.2-0.2 1.4 1.9 0.2-0.5 0.7-0.4h0.9l0.9-0.8-0.9-3 0.7-1.6 0.7-0.8 2-1.1 3.6 0.4 1.9-1 0.7-0.9 0.6-1.4 1.5-0.7 1.1-0.1 1.5 0.7 0.8 0.1 2.3-0.2 2.8-0.7h0.8l1 0.4 3.2 2.6 1.2 0.6 1.4 0.1 3.4-2.1 1.3-1.4 1.6-0.6 0.1 0.4 0.8 0.1 1.7-0.3 0.3-0.4h5.3l-0.4 1.4 0.5 1.6-0.1 0.4-1.5 1.1-1-0.4-0.8-2.6v1.1l0.6 2.8 1.7 1.6 0.6 1-1 2.3-0.2 2.3 0.1 0.4 0.8 0.7 0.2 5.9 0.3 0.6 0.5 0.2 0.7-0.6 0.4 0.8 0.1 0.8-0.5 0.1-0.4-0.3-1.2 0.6-0.4 3.9 0.6 2.6-0.6 0.7 0.4 2 0.9 1.8-0.9 2.4-0.5 4-1.7 4.7-0.4-0.1-0.3-0.8 0.2-1-0.9-1.1-0.3 0.3 0.2 2.4 1.1 0.8-0.9 1.7-1.6 0.7-4.1 3-2.8 2.6-3.8 4.4zm17.9-26.6l-0.2-0.4 0.3-1.8 0.7-2.4-0.4-1.2 0.2-1 1.4-0.7h0.2l0.7 1-0.6 2.5-0.8 0.9-0.6 1.2 0.2 1.2zm-0.4-24.4l-1.9-2 2.6-2.5 0.2 0.1 0.7 1-0.9 1.4z"/>
	<path id="BR-PR" class="s0" d="m150 65.7l-5.2-0.1-0.4 0.5-1.7 0.2-0.8-0.1-0.1-0.3-1.5 0.5-1.4 1.5-3.3 2.1-1.5-0.2-1.2-0.6-3.1-2.6-1.1-0.4h-0.7l-2.9 0.7-2.3 0.2h-0.8l-1.4-0.8-1.1 0.2-1.6 0.6-0.6 1.5-0.7 0.8-1.9 1-3.5-0.4-2 1.2-0.7 0.7-0.7 1.6 0.8 3-0.9 0.9h-0.9l-0.7 0.4-0.2 0.5-1.3-1.9-4.3 0.1-3.7-0.4-1.6-1.2-0.2-0.4-1-0.6-4.3-0.4-5.3-1.7-2.3 0.6h-2.7l-2-1.5-0.3-0.5-1.1-0.2h-0.5l-0.7 0.4-3.7-0.1-0.2-1.2-2.5-4.2v-2.5l-1-2.9-3.4-2.4-1.1 1.1-2.1-0.1-1.1 0.5-1.1 0.9-1.4-1.1h-0.9l-0.2-2.2 0.6-1.5 1.1-1.3 1.2-2.2 0.1-0.3-0.5-0.8v-1.2l0.9-3.7 1.3-3-0.3-2.3 1.3-2.4-0.2-1-0.9-0.9-0.3-1.6 0.7-1 0.8-0.6 2.4-1.5 0.3-0.8 1.6-8 0.3-0.3 1.1-0.3 1.7-1 0.7-0.7 1.4-3.6v-1.1l0.9-2.4 1.1-0.8 5.4-2.2 3.3-2.3 3.8 0.6 4-0.1 3.3 0.3 1.2-0.6 0.4-0.6 0.7-0.4 1.2 0.3 1.5 0.8 2.5 0.4 2.6 1.1 1.3 0.2 1.1-0.6h2.6l0.8 1 1.7 0.8 3.5 0.8 0.6 0.6 0.8 1.3h1.7l0.4-0.3 1.7 0.2 0.6 0.5 5.3 0.1 3-0.8 1.1 1.5 3.6 2.9 0.9 1.7v2.8l-0.4 0.5-0.1 0.8 0.3 1.9 1.3 1.5v1.8l-0.4 0.5 1.5 3 1.2 1.2 0.7 0.2 0.5 0.7-0.1 0.9 0.9 2 0.6 0.3 0.3 0.4-0.3 1.1-1.2 2.1 0.3 2 0.6 0.4 1 0.2 2.4-0.1 3.4-0.5 0.5 0.4 1.6-0.2 1.6 0.1 1.6 1.3-0.2 0.4-0.8 0.6-0.7 3.3 0.3 0.8 1.1 0.5 0.6-0.8 1.1-2.8 0.8-0.1 2.1 0.5-0.4 2 0.8 3.3 1.4 0.6 0.1 1.3-1.3 1-0.6 1.5-0.6-0.1 0.3-2 1.4-0.9-1.4 0.3-0.9 0.4h-0.8l-0.4-0.4-0.5-0.1-0.6 0.3-0.3 1 0.6 0.8-0.8 0.9-0.3 0.1-2.4-0.5-0.8-0.5-0.5 0.1-0.2 0.9 0.4 0.3 1.6 0.6 1.4-0.2 2.1 0.6 0.3 0.4-1 0.7-1.5 2.8-1.3 0.8-2.4 0.5-0.2 0.5 3-0.2 0.1 1.2z"/>
	<path id="BR-RS" class="s0" d="m75.3 204.8h-0.4l-1.9-1.1-0.2-0.5 0.5-4.2-0.5-4.3 0.2-1.1 0.6-1.2 2.8-2.4 0.9-1.5 2.3-2.6-1.5-1.7-1.1-0.6-2.2-0.6-2.3-2.2-1.2-1.6-0.1-1.6-0.5-1.2-1.2-2-2.1-2.3-0.6-0.6-2.4-1.2-1.5 0.2-1.9-1.5-1.5-1.6-1.2-0.8-0.2-1.7-1.9-2.2-3.3-0.4-0.9-0.5-1.8-1.6-1.7 0.1-2.2-1.4-1.9-3.7-1.1-1.5-2.5-2.1-0.7 0.1-0.7 1.8-2.6 2.2-2.7 0.1 0.1-2.8 0.4-1.3-0.4-1-3.6-4.3-2.4-1.8-2.2-2-1.7-2.2-2.7-2.2-1.9-0.1-2.1 0.2-1.2 1.4v0.9l-1.1 1h-1.1l-0.6-0.5-3.1 0.2-0.7-0.5-0.1-0.9-0.5-0.2 0.8-0.3 1.1-0.7 2.5-2.7 0.1-1.9 0.6-1.2 0.8-0.5 1.3-0.1 0.6-0.2 1-1 5.4-6.5 0.6-1.4 0.2-1.1 0.8-1.1 1.2-0.8 1.4-0.5 2-4.2 0.1-0.6 0.3-0.4 1.6-0.8 1.6-1.8 0.9-1.2 0.5-1.3 1.3-2.1 1-0.2 1.5 0.1 0.6 0.8 0.5-1.3-0.2-0.5-1.4-0.9v-0.3l0.3-0.3 1.1-0.4 0.8-1 2.8-0.9 1-1.1 0.1-0.9 0.9-0.9 2.2-1.2 2.4-0.4 1.8-1.8 0.2-1.1 1.3-2.3 0.3-0.1 0.1 0.4 0.3 0.2 1.3-0.2 2.4-1.1 2.7-0.6 1.2-0.6 2.1-2.3h0.5l0.7-0.4 1-1.3 2.3-0.8 0.3 0.4 3.5 0.4 3.3-1.1 0.5-0.9 1.4 0.6-0.2 0.9h3.1l1.7 1 2.5-0.4 1.9 1.2 2.6-0.4 1.6 0.2 2.8-0.2 2.2 0.9 2.5 1.4 1 2.5 1.6 0.1 0.1-0.4 1.8-0.4 5.5 3.6 1.4 1.5h0.7l1.6 1 3 3.4 1.7 2.3 0.4 1.4 2.2 2.7 1.2 0.5 6.7 1.1 2.1-0.4 3.3 0.3 0.9 2.4-2.1 1.6-1.2 0.4-0.8 1.8 0.2 2.2-0.3 1.6-0.6 1.3-1.1 0.2-1.3 1.7-0.1 1.4 1.8 1.2 0.3-0.2-0.3-1v-1l1.5-0.8 1.6 0.6 0.7 1 1.2 0.8h0.5l-1.4 1.7-3.9 7-4.2 11.6-6.3 10.5-5.5 6.7-6.5 5.9-6.1 3.7-3.1 4.3-0.2-0.4 0.7-1.6 0.3-2.2-1.2-1.7 0.1-0.4 1-0.2 1 0.4 0.5 0.6 1.1 0.1 2.5-1.4 0.9-0.7 2.8-3.7 0.8-0.7 0.4 0.2 1-0.2 1.1-0.9 0.9-1.2 0.4-1.5 0.2-0.9-0.3-2.1 0.2-1.4 1.6-0.1 0.7 0.3 0.3 0.8 0.4-0.2-0.3-1.4 0.5-2.1 0.5-0.6 2.7-1.5 0.7-1.1 0.5-2.8-0.2-2.3 0.6-0.6 0.5 0.8h0.3l0.5-0.4 0.4-3.1-0.1-0.4-0.9-1.3h-0.7l-0.3 0.7 0.2 0.4-0.1 0.6-0.4 0.2-1.5-0.1-2 0.4-0.3 1.6-0.6 0.1-0.8-0.4 0.1-1.8-0.8-0.8-1 0.3-0.6-0.5-0.8-1.3-0.4-1.4 0.2-0.6-0.7-0.7-0.6 2.7 0.4 2.3 1.3 2.1-0.6 0.8-0.7 2.6 0.4 3-0.2 0.8-0.5-0.4 0.3-0.3-0.1-0.7-0.4-1.2-0.5-0.4-0.5 0.6v1.4l-1.5 3.3v1.9l0.2 0.5-0.7 0.7-1.6 0.6-0.6 1.6-4.1 1.6-0.7 0.5-0.6 1.6-0.1 2.3-0.9 2.2-2.4 1.3-0.1 1.8 0.5 0.8 0.2 1-0.9 0.6-0.3 1.5 0.5 0.6 0.6-0.1 1.3 0.6 0.2 0.9-2.1 1.7-2.4 4.5-1.9 6.9-2 4.4-1.7 2.6-7.8 7.5z"/>
</svg>