<svg version="1.2" xmlns="http://www.w3.org/2000/svg" viewBox="0 0 221 191" width="150" height="130">
	<title>sudeste-svg</title>
	<style>
		.s0 { fill: #6e72fb;stroke: #f7f7f7;stroke-width: .8 } 
	</style>
	<path id="BR-SP" fill-rule="evenodd" class="s0" d="m83.8 187.2l-0.1-1.3-1.4-0.6-0.8-3.3 0.4-2-2.1-0.5-0.8 0.1-1.1 2.8-0.6 0.8-1.1-0.5-0.3-0.8 0.7-3.3 0.8-0.6 0.2-0.4-1.6-1.3-1.6-0.1-1.6 0.2-0.5-0.4-3.4 0.5-2.4 0.1-1-0.2-0.6-0.4-0.3-2 1.3-2.1 0.2-1.1-0.2-0.4-0.6-0.3-1-2 0.1-0.9-0.5-0.7-0.7-0.2-1.2-1.2-1.5-3 0.4-0.5 0.1-1.8-1.3-1.5-0.4-1.9 0.2-0.8 0.3-0.6v-2.7l-0.9-1.8-3.6-2.8-1.1-1.5-3 0.8-5.3-0.1-0.6-0.5-1.7-0.2-0.4 0.4-1.7-0.1-0.7-1.3-0.7-0.5-3.5-0.8-1.7-0.9-0.8-1h-2.6l-1.1 0.6-1.3-0.2-2.6-1.1-2.5-0.4-1.5-0.8-1.2-0.3-0.7 0.4-0.4 0.6-1.2 0.6-3.3-0.3-4 0.1-3.8-0.6-3.2 2.3 0.8-1.1 0.7-1.6 1.3-1.1 7.5-4.5 2-1.9 1.3-2.4 1.7-1.7 0.4-1.2 1.4-1.1 0.3-1.2-0.3-0.8 2-2.3 1.2-2.3v-1l-0.3-1.9 0.3-0.4 0.9-0.5 2.6-3.7 0.2-2.9 0.6-1.7 1-0.3 0.7-0.6 2-2.7 1.2-1 0.5-0.2 1.3-0.1 1.5-0.8 0.3-0.4 0.4-2.4 1.2-1.1 2.2-1.2 1.9-0.3 1.4-1.7 1.5-0.6 0.8 0.1 1.7 1.6h2.6l4.2 1 1.7-0.4 1.6 0.3 2-0.6 2.2 1.4 1.7 0.8-0.1 0.9 0.3 1.4 1.2 2.1h0.6l0.6-0.3 0.6-0.9 0.4-1.1 0.3-0.2h0.6l0.3 0.4 0.3 1v2.7l1.2 0.6 0.4-0.5-0.3-2.5 0.5-1.2 0.5-0.5 8.1-0.7 1-1.2 1.5 1.5 1.2 0.4 2.7-0.7 0.5-1-0.2-0.5 0.3-0.6 2.4-0.1 1.6 0.8 0.9-0.6 1.3-0.3 3.3 3.3 0.2 1.1-0.6 1-0.3 2.3 0.6 0.7 1.9 1.2 0.4 1.5-0.1 0.6-1.5 2-0.2 1.9 0.8 0.8 0.3 0.6 0.4 2.2 1.3 1.8 0.8 2v0.8h1.6l0.8-0.3 0.2-0.4h1l3.7 1.3 0.3 0.4-0.1 1.2-0.7 2.2-1.8 2.7 0.2 3-0.2 3.4-0.5 1.6 0.7 1.6 1.8 1.2 1.8 0.9 0.5 1.7-1.2 0.7 2 3.3 1.2 0.2 2-0.2 0.2 0.5 3.6-1 0.5 0.4 1.3-0.3 0.8-1v-0.8l-0.2-0.2 0.2-2.3 1.2-0.4 0.1 0.4-0.4 0.5v0.5h2.4l2.3-0.2 1.8-0.7 1.3-1.2 1.9-1 2.2-0.3 1.2-0.7 1.3 0.5 0.6 1.2 1.2 1.6 1.8 0.4 3.1-0.5h1.7l0.8 1.6-1.7 2.2-1.5 0.7-2.7 0.3-0.5-0.1-2.4 1-1.1 1.1-1.1 3.5 0.1 0.5 1.6 1.7 0.5 0.2-0.1 0.2-1.7 0.5-1-0.9-1.5 1.2-0.4 0.6 0.2 0.2-0.7 0.7-3.2 1.5-2.3 0.7-0.3 0.5 0.1 0.9 0.5 1.6-0.4 0.4-1.4 0.2-0.7-0.6-1.3-0.3-3.1-0.5-0.9 0.2-1.3 0.3-1.7 0.8-0.5 0.5-1.2 2.2-1.3 0.6-0.5-0.2 0.5-0.4-0.4-1.3-1.2-0.8-0.8 1.2 0.2 0.8-0.3 0.6-7.6 4.2-1 0.8-0.3 1.2-3.2 3-3.3 2-1.9 0.5-4.5 3.2-2.3 2h-0.7l-0.4 0.7 0.9 0.4h0.6l0.9-0.3v0.7l-0.6 1.4-1.3 0.8zm44.3-23l-1.5-0.7-1.2 0.2-0.5-0.4 0.1-0.7 1-0.7 1.1-1.8 0.7 0.2 0.6 0.7 0.2 2.9z"/>
	<path id="BR-RJ" fill-rule="evenodd" class="s0" d="m147.6 149.5l-0.1-0.7 0.4-0.3 3.2 0.2 2.6-0.6-2.5-1.5-1.4-0.5-2.8 0.7-1.4 1.6-1 0.3-0.7-0.1-1.4-2.1h-0.5l-0.9 0.4-0.9 1.1-3.2 0.8-0.3 0.9-0.2 1.9 2.2 0.1 1.1 1-1.2 1.1-0.9-0.2-1.4 0.2-0.5-0.3-1.7-1.7v-0.4l1.1-3.5 1.1-1.2 2.3-1 0.5 0.2 2.8-0.4 1.5-0.7 1.6-2.1-0.7-1.7h-1.7l-3.2 0.5-1.7-0.4-1.3-1.5-0.5-1.2-1.3-0.6 0.7-0.4 2.4-0.8 2.9-1.3 2.6-0.2 0.5 0.3 1.7-0.8 1.1-0.8 4.1-1.8h0.5l0.3 0.3 3.2-0.1 1.3-0.2 1.6-0.9 0.6-0.1 2.5 0.3 0.5 0.2v0.5l1.4-0.2 9.5-4.6 2.5-1 0.2-0.5-0.3-0.6-1.4-0.1 0.1-0.8 1.9-3.7 2.3-6-0.7-0.7 0.6-0.5 1.2-0.3 2.5-2.4 2 0.8 0.6 4.7 2.5 1.1 4.4 1.1 3-0.4 1.6 1-0.1 1.3-0.9 1.6-0.3 2.2 1.2 6.7-0.5 0.7-3.1 1.8-6 1.9-2.8 1.7-3.5 3.7-0.1 1.7 0.3 1.2-0.2 1.6-0.7 1.5-1.8 0.5-6.6-0.2-5.8 0.7-2.4-0.5-0.5-0.3v-0.7l1-1.5 0.7-1.4-0.1-0.7-0.8-0.1-2.8 1.1-0.2 0.7 0.3 0.8 1.4 1.2 0.2 0.9-0.6 0.5-1.6 0.6-1.6-0.1-8 1.1zm-5.1 2l-0.7-1 2.1-1.5 1.9 0.9 0.4 0.7-2.5 0.5-0.4-0.3h-0.4z"/>
	<path id="BR-ES" class="s0" d="m180.9 110.6l-0.3-0.1 0.4-2.3 0.6-1.3-0.6-3.2 0.2-0.4 1.7-2h5.2l0.5-0.3 1-3.3 1.1-1.2 0.9-2.3 0.2-1.8 0.3-0.4 1.2-0.9 1.7-2 0.6-3-0.3-2.4-1.3-2.9-1.1-1.2-0.5-0.1-0.5 0.3-0.7-0.3-0.5-0.7 0.4-0.6 1.5-0.1 0.8 0.4h1l0.9-0.2 0.3-0.4-0.1-1.8-1.4-0.3-0.2-0.4 0.3-1.6 0.1-1.9-0.6-0.6-1.3-0.7-0.3-0.7 1.2-1.9 2.2-1.3 0.3-0.1 1 0.8 1.1 0.1 0.1-0.8-1.7-2.3 1.3 0.1 2.2-0.3 0.9-0.6 1-0.3 1.6-0.1 2.6 0.8 0.9 0.6 0.3 0.5 8.1 5.2-1 3.3-0.3 2.9 0.1 3.6 0.8 6.1-0.3 2.5-1.5 3.2-2.8 1.4-0.5 0.6-1.7 3.3-1 3.8-0.8 1.5-0.8-0.7-0.9-0.2-0.3 1.3 1.4 0.5-1.9 4.3-3.5 3.8-0.2-0.2-1.9 0.6-0.8 1.2-0.1 1.4-0.4 1.3-1.6 2-0.3 1.1-1.6-1-3 0.3-4.3-1-2.5-1.1-0.7-4.7z"/>
	<path id="BR-MG" class="s0" d="m206.8 64.6l-0.9-0.6-2.6-0.8-1.6 0.1-1 0.3-0.9 0.6-2.2 0.3-1.3-0.1 1.7 2.3-0.1 0.8-1.1-0.1-1-0.8-0.3 0.1-2.2 1.3-1.2 1.9 0.3 0.7 1.3 0.7 0.6 0.6-0.1 1.9-0.3 1.6 0.2 0.4 1.4 0.3 0.1 1.8-0.3 0.4-0.9 0.2h-1l-0.8-0.4-1.5 0.1-0.4 0.6 0.5 0.7 0.7 0.3 0.5-0.3 0.5 0.1 1.1 1.2 1.3 2.9 0.3 2.4-0.6 3-1.7 2-1.2 0.9-0.3 0.4-0.2 1.8-0.9 2.3-1.1 1.2-1 3.3-0.5 0.3h-5.2l-1.7 2-0.2 0.4 0.6 3.2-0.6 1.3-0.4 2.3 0.3 0.1-2.5 2.4-1.3 0.3-0.5 0.5 0.7 0.7-2.4 6-1.9 3.7v0.8l1.4 0.1 0.3 0.6-0.2 0.5-2.6 1-9.5 4.5-1.3 0.2v-0.4l-0.5-0.2-2.5-0.3-0.6 0.1-1.6 0.9-1.3 0.2-3.2 0.1-0.3-0.3h-0.5l-4.1 1.8-1.1 0.8-1.7 0.8-0.5-0.3-2.6 0.1-2.9 1.4-2.4 0.7-0.7 0.5-1.3 0.7-2.2 0.3-1.9 1-1.2 1.2-1.8 0.7-2.4 0.2h-2.3v-0.5l0.3-0.5-0.1-0.4-1.2 0.4-0.1 2.3 0.2 0.2-0.1 0.8-0.7 1-1.3 0.3-0.6-0.4-3.6 1-0.2-0.5-2 0.2-1.1-0.2-2-3.3 1.2-0.8-0.5-1.7-1.8-0.8-1.8-1.2-0.7-1.6 0.5-1.6 0.2-3.4-0.3-3 1.9-2.7 0.7-2.2v-1.3l-0.2-0.3-3.7-1.3h-1l-0.3 0.4-0.8 0.3h-1.6l0.1-0.8-0.9-2-1.3-1.8-0.3-2.2-0.3-0.6-0.8-0.8 0.2-1.9 1.5-2v-0.6l-0.4-1.6-1.8-1.2-0.6-0.6 0.3-2.3 0.5-1.1-0.2-1-3.2-3.3-1.3 0.2-0.9 0.7-1.6-0.8-2.4 0.1-0.3 0.6 0.2 0.5-0.5 1-2.7 0.7-1.2-0.5-1.5-1.4-1 1.2-8.2 0.7-0.4 0.5-0.5 1.2 0.3 2.5-0.4 0.5-1.2-0.6v-2.7l-0.3-1-0.3-0.4h-0.6l-0.3 0.1-0.4 1.2-0.6 0.9-0.6 0.3h-0.6l-1.2-2.1-0.3-1.4 0.1-0.9-1.7-0.8-2.2-1.4-2 0.6-1.6-0.3-1.6 0.4-4.3-1h-2.6l-1.7-1.6-0.8-0.1-1.5 0.6-1.4 1.7-1.9 0.3-2.2 1.1-1.2 1.2 0.3-2.6-0.6-3.3 1-4.1 0.6-0.3 0.9 0.5 0.3-0.3v-0.3l-0.5-0.6 0.5-1.9 1.7-2.1 0.9-0.7 0.5-0.2 0.8 0.2 0.8-0.3 0.9-1.3-0.1-1 1.2-2.5 1.4-2.1 2.3-0.5 2.4-1 3.8 0.7 3.1-1.7 1.6 0.3 1.3 1.4h0.3l2.9-2.9 4.1-2.6 2.1 0.9 3.8-0.2 1.5 0.3h1.7l0.6-0.1 0.6-0.5 4.3 1.9 0.7 0.7 4.9-2.7 0.5-1.1 0.9-0.9 1.1-0.2 3.1-2.1-1.2-3.4 0.5-1.9 0.8-0.9 0.1-0.7-0.2-1-0.4-0.7-1.6-0.5-0.9 0.4-1.1-1.1 0.4-2.1 3.3-3 2.3-2.7v-0.6l-1.7-4.6-1.4-1-0.8-0.4-0.9-1.2 0.4-1.4 1.1-1.3 0.7-1.6-0.4-1.5 0.6-1.6 1.2-0.1 2.3-1.5 3.4-0.9 0.5-0.5-0.7-4.3-0.5-0.2-0.4-0.6-0.1-1.9 0.8-0.7 0.5-0.9-0.4-1.2-0.8-0.1 0.8-3.2 0.3-0.2 1.2-0.3 2.8 1.2 0.4-0.2 0.5-0.5-0.5-3.8 1.1-1.5 2.5 1.5 0.9 1.8 3.2 0.3 1-1 0.5 2.4-1.4 3.5 0.4 0.2 1.3-0.9 0.7-1 0.7-0.2 2.2 0.4 1-0.7 1.8-2.6 1 0.1 1.5-0.5 1.8-1.5 0.9-1.2 2-0.4 3.4-1.9 0.7-1.1 4.2-3 3.8-1.6 1.8 0.1 1.2 0.5h2.2l2.3 0.5 0.9 0.5-1.3 2.7-0.2 0.9 0.3 1.5 0.6 0.5 5.3 1.5 0.7-0.2 0.8-1.1 1.8-0.9 1.8-0.3 2.7 0.8 1.1 0.5 4.4 3.7 1-0.2 2.1 1.6 2.6 1.2 0.9 0.3 0.5-0.3 1.5 1.3 4.4-1.2 0.4 0.1 6.5 6.2 0.5 4 0.5-0.2 2.7 0.4 1.4-0.5 1.3-1 2 0.2 2.8 0.6 2.2 1 2.2 0.6h2.1l2.9 2.5 0.7 0.4h0.9l0.8 1.1 0.4 1.1-1.5 3.1-4.9 4.2-0.2 2.7 0.6 1v0.4l-1.1 0.7-2.4-0.2-0.9 0.9-0.8 3.3-0.5 4.4 0.2 0.2 0.4-0.2 0.2-0.4 0.6-0.3 0.6 1.3-0.2 1.5 0.1 0.5 4.2 3 0.5 1.1v0.5l-0.7 1.4z"/>
</svg>