<svg version="1.2" xmlns="http://www.w3.org/2000/svg" viewBox="0 0 264 290" width="140" height="154">
	<title>centro-oeste-svg</title>
	<style>
		.s0 { fill: #6e72fb;stroke: #f7f7f7;stroke-width: .8 } 
	</style>
	<path id="BR-MT" class="s0" d="m24.2 110.3l1.5-1.4 4.1-2.6 0.5-2.4 1.5-3.8 0.9-1.1 1.6-0.5 0.5-0.4 0.5-0.9 0.6-2.2 1.6-2 0.6-2.3v-1.7l-0.5-1.5v-2l-1.5-3.4-0.9 0.1-0.6-0.5-0.4-3.3 0.1-1.3 1.4-1.1 1.4-1.7 0.1-0.8-1.4-3.6-1-0.4-1.2-0.1-3.5 0.1-1.2-1.1 0.3-0.6-17.2-0.1 0.9-9-1.5-2.7-0.3-1.8 0.1-0.8 1-3.5-0.4-1.9 0.9-1.7-0.8-2.3-0.2-1.3-0.2-0.7-0.8-0.4-0.1-0.4 1.3-5 0.8-1.4-0.6-1.2-1.4-1 47.8-0.3 1.3-0.7 1.1-5.3 1.4-4.2-0.4-1.9-0.7-1.4-0.1-0.8 0.4-0.9 0.9-0.6 1.2-1.9 0.2-1-0.3-0.8 0.1-0.8 0.2-0.6 1.1-1.2 1.2 1.1 2.5 4.1 0.4 1.7 1.3 4 1.4 1.9 0.7 1.6-0.2 2.5 0.5 2.4 0.7 2.2 1.5 1.1 3 2.7 3.4 1.7 0.2 1v1.1l0.2 0.5 1 0.4 0.8-0.2 1.6 0.4 0.6 0.8 0.2 1 0.3 0.4 1.4-0.5 3.7 1.5 34 2.4 63 3.5-0.7 1-0.5 1.9-1.1 1.3-0.5 3.1-0.4 0.9-0.4 0.2-1.9 5.3-0.5 3-0.1 2.9-1.9 6 0.1 0.9 1.4 1.3-0.2 0.9-0.8 0.9v0.5l1.1 2.2-0.5 3.3v1.6l0.5 0.6 0.5 3-0.8 2.8 1 3.3 1 0.6h0.8v0.6l-0.2 1.1-1 0.9-0.3 0.9 0.1 2.7-0.4 1.1-2 3.2-1 2.6-1.2 0.8 0.1 5.1-1.6 3.1-0.6 2.8 0.5 1.1v0.8l-1.2 2.9-0.8 2.9-1.4 1.4-1.2 0.8-1.2-0.7-1.1 0.3-1.6 1-2 1.9-0.3 0.7-0.7 4.1-0.7 1-2 4.2-0.3 0.3-2.7 0.8-2.7 0.2-1.4 2.6-1.7 1-0.1 1.5-0.8 1.4-1.3 1.1-0.5 1-0.3 1.9-1.3 2-1.9 1.8-2 0.9-0.7 0.7-0.4 2.9-2.5 3.9-0.4 3.4 0.1 0.7 1.4 2.2 0.2 3.4 1 2.2-1.6 0.3-1.2-0.5-0.8-0.1-2.7 0.1-0.6 0.5-4.6-0.2-1.7-1.3-1.3-0.1-0.2-0.5 0.2-0.5 1.7-2.8 1.8-0.7 1.2-6.6-1.3 0.1-5.7 6-1-0.1-2.1 0.9h-1l-0.2-0.3-0.3-1.3-1.6-1.1-2.5-0.1-1.4 0.7-0.5 0.8-1.2 0.8-4.6 0.6-1.2-0.5-1.3-1.1-3-1.2-0.8-1-0.2-0.9-0.7-0.3-2.6-0.5-2.8-1.3-0.8-1.1-1.2-0.2-2 0.5-1.4 1.2-1.7 0.5-0.7-0.3-1.6 0.2h-2.6l-1.4 1.4-0.1 1.2-2 3-2 2-5.7 1.9-2.1-1.5-1-1.1-0.7-0.2-0.7-0.7-0.3-0.8 0.5-0.7-2.4-2.1-1.3 0.6h-0.5l-1.2-0.7-0.4-0.7-2-1.4-1.9-0.8-0.3-0.3-0.3-1.1-0.3-3-0.6-1.7-0.2-3.7 0.9-1.6 1.2-1.1 0.3-1.8-0.1-1.9-0.9 0.1-0.4 0.6-0.4 0.1-26.9-1-1-12.7-5.4-6.1 4.9-0.1-0.3-7.5-2.7-5.4-0.5-1.9 0.3-1.1 0.6-0.5 0.6-1.3-1.4-2.9-3.1-1.1z"/>
	<path id="BR-GO" class="s0" d="m234 148.1l-0.9-1 0.2-2.4 0.6-1.2-0.1-2.2-1.8-2h-11.9l-0.4 3.7-0.9 1.9 0.5 3.2h14.7l-0.6 1.6 0.4 1.5-0.7 1.6-1.1 1.3-0.4 1.4 0.9 1.2 0.8 0.4 1.4 1 1.7 4.6v0.6l-2.3 2.7-3.3 3-0.4 2.1 1.1 1.1 0.9-0.4 1.6 0.5 0.4 0.7 0.2 1-0.1 0.7-0.8 0.9-0.5 1.9 1.2 3.4-3.1 2.1-1.1 0.2-0.9 0.9-0.5 1.1-4.9 2.7-0.7-0.7-4.3-1.9-0.6 0.5-0.6 0.1h-1.7l-1.5-0.3-3.8 0.2-2.1-0.9-4.1 2.6-2.9 2.9h-0.3l-1.3-1.4-1.6-0.3-3.1 1.7-3.8-0.7-2.4 1-2.3 0.5-1.4 2.1-1.2 2.5 0.1 1-0.9 1.3-0.8 0.3-0.8-0.2-0.5 0.2-0.9 0.7-1.7 2.1-0.5 1.9 0.5 0.6v0.3l-0.3 0.3-0.9-0.5-0.2-0.4-2.7-2.3-3.1-0.6-1.7-1.5-1.9-0.5h-1.5l-3.3-1.3-0.7-0.9-3.1-1.6-0.6-0.6-1.5-0.7-1.1-0.1-2.7-1.7-2.8 0.1-3.8-0.7-0.1-0.3 0.2-0.8 0.6-1.2 1.3-1.8-0.1-0.4-2.2-0.9-1.1 0.7-0.7-0.2-0.3-0.4-0.2-1.1 0.2-2.6-0.1-1.8-1-2.2-0.2-3.4-1.4-2.2-0.1-0.7 0.4-3.4 2.5-3.9 0.4-2.9 0.7-0.7 2-0.9 1.9-1.8 1.3-2 0.3-1.9 0.5-1 1.3-1.1 0.8-1.4 0.1-1.5 1.7-1 1.4-2.6 2.7-0.2 2.7-0.8 0.3-0.3 2-4.2 0.7-1 0.7-4.1 0.3-0.7 2-1.9 1.6-1 1.1-0.3 1.2 0.7 1.2-0.8 1.4-1.4 0.8-2.9 1.2-2.9v-0.8l-0.5-1.1 0.6-2.8 1.6-3.1-0.1-5.1 1.2-0.8 1-2.6 2-3.2 0.4-1.1-0.1-2.7 0.3-0.9 1-0.9 0.2-1.1v-0.6l0.3-0.5 0.2-1.9 0.7-1.2 1.8-2.1 0.5-0.3v1.7l-1.2 1.9-0.5 2.4 2.4 0.4 2.2 1 3.9 0.4 3.1 1.7 4.1 1.4 0.6-0.2 1.6-5.9 1.5-2.4 1.2-1 1.1 1.3 1.1 1.9 1.1 3.7 0.6 3.1h1.1l0.8-0.7 0.3-1 0.5-0.5 2.8 0.3 4.5-0.5 0.2 0.7-0.5 1.6 3.1 1.4 3.4 0.7 0.6-0.1 0.6-3.3 0.5 0.1 1.5 2.6 0.5 0.2 1.8-0.9 2.5-2.1 4.5-1h1.6l2.5-1.1 1.8-1.3 5.3-1.4 2.7 2.4 0.1 0.4-1.5 1.1-0.5 2.5 0.1 0.3 1.7 0.9-0.1 0.9-0.2 0.4-1.6 1-1.2 3.9v1.5l0.6 3.5 1.7 3.5 3.2 2.6v0.5l-0.7 1.4-0.1 0.7 0.7 1.7 0.2 1.3-0.2 0.7-1.5 2-1 1-3.2-0.3-0.9-1.8-2.5-1.5-1.1 1.5 0.5 3.8-0.5 0.5-0.4 0.2-2.8-1.2-1.2 0.3-0.3 0.2-0.8 3.2 0.8 0.1 0.4 1.2-0.5 0.9-0.8 0.7 0.1 1.9 0.4 0.6 0.5 0.2 0.7 4.3-0.5 0.5-3.4 0.9-2.3 1.5z"/>
	<path id="BR-DF" class="s0" d="m234 148.1h-14.7l-0.5-3.2 0.9-1.9 0.4-3.7h11.9l1.8 2 0.1 2.2-0.6 1.2-0.2 2.4z"/>
	<path id="BR-MS" class="s0" d="m176.2 214.1l-0.4 2.4-0.3 0.4-1.5 0.8-1.3 0.1-0.5 0.2-1.2 1-2 2.7-0.7 0.6-1 0.3-0.6 1.7-0.2 2.9-2.6 3.7-0.9 0.5-0.3 0.4 0.3 1.9v1l-1.2 2.3-2 2.3 0.3 0.8-0.3 1.2-1.4 1.1-0.4 1.2-1.7 1.7-1.3 2.4-2 1.9-7.5 4.5-1.3 1.1-0.7 1.6-0.9 1.1-5.4 2.2-1.1 0.8-0.9 2.4v1.1l-1.4 3.6-0.7 0.7-1.7 1-1.1 0.3-0.3 0.3-1.6 8-0.3 0.8-2.4 1.5-2.6-2.3-3.4-1.9-4 2-0.6 0.7-1.7 0.5-2.6 0.5-2.3-0.5-1.1-0.6-0.4-4.3-0.3-0.7-0.9-1-0.3-2.4 0.5-1.4-0.6-0.8-0.1-0.4v-2.9l-0.9-1.9-0.6-2.8v-0.7l0.6-1.4v-1.6l-1.6-1.1-0.4-0.8-0.1-2.1-1.7-1.8-2.2-0.3-1.5 0.3-1.8-0.3-2.5-1.9-0.5-1.5-1.6 0.3-2.1 2.7-1-0.6-1.7 0.8-1.1 0.2-1.8-0.7-2.5-0.5-3.5 0.3-3.6-0.8-0.5-0.9-2-0.1-0.9 0.5-2.5-0.9 0.9-7.2-0.4-2.4 0.6-1.4 1-1.5 0.6-6-0.7-2.3-0.1-1.8-0.7-0.9-0.4-0.1-0.5 0.6-0.7-3.2-0.8-1.9-1.2-2-0.3-1.9 4-2.3 0.8-0.8-4.2-3.9 5.3-11.4 1.2-0.1-0.3-2.1-0.8-0.1 3.3-10.4 0.6-1.1-3.1-5.9 0.1-1.9 0.7 0.2 1 1.1 2.1 1.5 5.7-1.9 2-2 2-3 0.1-1.2 1.4-1.4h2.6l1.6-0.2 0.7 0.3 1.7-0.5 1.4-1.2 2-0.5 1.2 0.2 0.8 1.1 2.8 1.3 2.6 0.5 0.7 0.3 0.2 0.9 0.8 1 3 1.2 1.3 1.1 1.2 0.5 4.6-0.6 1.2-0.8 0.5-0.8 1.4-0.7 2.5 0.1 1.6 1.1 0.3 1.3 0.2 0.3h1l2.1-0.9 1 0.1 5.7-6 1.3-0.1-1.2 6.6-1.8 0.7-1.7 2.8-0.2 0.5 0.2 0.5 1.3 0.1 1.7 1.3 4.6 0.2 0.6-0.5 2.7-0.1 0.8 0.1 1.2 0.5 1.6-0.3 0.1 1.8-0.2 2.6 0.2 1.1 0.3 0.4 0.7 0.2 1.1-0.7 2.2 0.9 0.1 0.4-1.3 1.8-0.6 1.2-0.2 0.8 0.1 0.3 3.8 0.7 2.8-0.1 2.7 1.7 1.1 0.1 1.5 0.7 0.6 0.6 3.1 1.6 0.7 0.9 3.3 1.3h1.5l1.9 0.5 1.7 1.5 3.1 0.6 2.7 2.3 0.2 0.4-0.6 0.3-1 4.1 0.6 3.3z"/>
</svg>