<svg version="1.2" xmlns="http://www.w3.org/2000/svg" viewBox="0 0 246 295" width="140" height="168">
	<title>nordeste-svg</title>
	<style>
		.s0 { fill: #6e72fb;stroke: #f7f7f7;stroke-width: .8 } 
	</style>
	<path id="BR-AL" class="s0" d="m182.2 145.6l-0.2-0.8-1.4-0.7h-0.5l-1-0.2-0.6-1.4 1.4-1.1 0.6-1.1 2.2-0.8 2.4-3.3v-0.6l0.9-0.6 1 1.2 1.6 0.3 1.1-0.1 2.6 2 1.9 2.1 1.7 1 2 0.5 2.5-0.6 3.1 0.3 1.2-0.1 1.8-1.1h1.2l1.8-1.1 2.2-2.3 0.1-0.4 1.5-1.2 2-0.3 2.3 0.9 2.5-1.3 1.5-0.2 1.9 0.8 2.9 0.3 0.3 0.2-2.8 4.9-4.5 5.2-3.6 3.5-3 4.6-3.4 2.9-1 2-1.3 1.8-0.6-1.3-3.6-2.2h-0.4l-1.7-0.8-1.8-1.5-1.3-2.4-5.4-3.1-3.7-1z"/>
	<path id="BR-BA" fill-rule="evenodd" class="s0" d="m147.8 280.6l-0.4-0.8 0.7-1.4v-0.5l-0.6-1.1-4.1-3-0.1-0.5 0.2-1.5-0.6-1.3-0.6 0.3-0.2 0.4-0.4 0.2-0.2-0.2 0.5-4.4 0.9-3.3 0.8-0.9 2.4 0.2 1.1-0.7v-0.4l-0.6-1 0.2-2.7 4.9-4.2 1.5-3.1-0.4-1.1-0.8-1.1h-0.9l-0.7-0.4-2.9-2.5h-2.1l-2.2-0.6-2.2-1-2.8-0.6-1.9-0.1-1.4 1-1.4 0.5-2.6-0.5-0.6 0.2-0.5-3.9-6.5-6.2-0.4-0.2-4.3 1.2-1.6-1.2-0.5 0.2-0.9-0.2-2.6-1.3-2.1-1.6-1 0.2-4.4-3.6-1.1-0.6-2.7-0.7-1.8 0.2-1.8 0.9-0.8 1.1-0.7 0.2-5.3-1.4-0.6-0.5-0.3-1.5 0.2-0.9 1.2-2.8-0.8-0.4-2.3-0.5-2.2-0.1-1.2-0.5-1.8-0.1-3.8 1.6-4.3 3-0.6 1.2-3.4 1.8-2 0.4-0.9 1.2-1.8 1.6-1.5 0.5-1-0.2-1.8 2.6-1.1 0.8-2.1-0.4-0.7 0.1-0.7 1-1.3 0.9-0.4-0.2 1.4-3.4-0.5-2.4 1.5-2 0.2-0.8-0.2-1.2-0.7-1.8 0.1-0.6 0.7-1.5v-0.4l-3.2-2.6-1.7-3.5-0.7-3.5 0.1-1.6 1.2-3.8 1.6-1 0.2-0.4 0.1-0.9-1.7-0.9-0.1-0.3 0.5-2.5 1.4-1.1v-0.4l-2.7-2.4v-1l1.3-2.3v-1.1l-0.2-0.4-1.4-0.5-1-0.7-0.3-1.2v-2.9l0.2-0.9 2-1.7 1.1-0.4 1-0.7-0.3-0.6-0.6-0.6-0.9-0.2-1.1 0.1-0.3-0.3-0.1-0.5 0.4-1 2.1-0.8 0.5-0.4v-0.8l-1.9-1-3.6-0.6-1.8-2-0.3-0.9 0.5-1.2 1-0.7 1.6-3.5 0.9-0.6 1-0.3 0.3-0.3-1.3-1.8 0.2-0.4 3.2-2.6 3.9-2.1 0.5-0.4 0.2-1 0.7-0.7h2.4l1.4 1.4 0.7 1 0.5 2.2 1.7 2.5 4.2 1.9 1.8-0.6 2.1 0.2 0.4-0.2 0.7-1.4 1.2-0.4 0.6-0.9 1.2-0.9 2.2-0.7 1.3 0.2 1.5 0.5 1.4-0.4 2.9-2.5 3-5 0.7-0.9 0.2-0.9 0.3-2.5-0.1-1.2-2.2-4.4v-1l3.3-1.6h1.9l1.5 0.4 0.4 1 0.4 0.1 2.1-0.4 1.4-0.5 1.3 0.3 1.7 1-0.1 0.7 0.2 0.3 0.8 0.3 3-0.2 1.5-0.6 1.7-0.1 0.8-1.2 1.5-1.4 2.7-0.3 0.8-0.4 0.8-0.9h2.2l0.6 0.6 0.3 0.1 1.9-1.9-0.1-2.4 1.9-0.3 0.8 0.1 1.1-0.6 1.5-2.3 0.4-1.2 0.9 0.4 1.2-0.2 2.2 0.2 2.8 1.4 0.5 0.5-0.1 2.8 0.7 1.9 2.2 0.9 0.3 2-0.9 1.7 1.8 0.6 1-0.2 0.8-0.9 2.9-0.9 0.7-3.6 0.5-0.8 0.8-0.2 0.8 0.5 0.6 0.1 2.4-1 1.1-1.3 0.1-0.6-0.2-1.3 0.3-0.3 2.2-0.4 0.8-2.1 1.6-0.4 2.6-1.5 0.6-0.1 1.5 0.6 0.8 1.4 1.3 0.8 2.4 0.8 3 0.4 1.6 1.2 0.5 1.6 0.4 0.3 0.4-0.2 0.3-1.7 0.5-0.5h1l0.4 0.3v0.7l-0.6 0.9 0.5 0.8 0.5 0.4 2.1 0.8v1l1.2 3 0.5 1.4 1.1 0.3 0.4-0.1 1.4 0.8 0.2 0.7-0.6 1.2 0.2 2.1 1.3 2.5 1.9 2 0.8 1.1-0.1 3.1-0.6 1.7-0.1 0.8 0.7 2.8-0.3 0.6-0.7 0.5-2.5 1-1.1-0.7h-1.8l-0.3 0.3-0.6 1.5 0.1 0.8 0.9 1.6 1.1 0.7 0.5 1.5 1.5 1.5 0.1 0.4-0.1 1.4-0.4 0.4 0.2 0.4 0.5 0.5 2 0.9 0.5 0.7 0.5 0.4 1.5 0.6 2.9-0.9h0.7l0.3 0.4-4 8.9-3.9 5.1-1 2.4-5 5.7-2.5 1.3h-0.9l0.3-1.5 0.4-0.1 0.2-1.1-0.5-1.9-1.9-0.3-0.4-1.3-0.7-0.7-0.3 0.6-0.5 2.3-0.5 0.9-0.6 0.3-0.5-0.3-0.5-1.7 0.1-0.3 0.3-0.1v-0.4l-0.9 1.3 0.9 1.6 0.5 0.3 0.4-0.2 1.1 0.3-0.4 1.8-1.2 1.1-0.3 1.9-1.2 0.9-0.4 0.7-0.2 0.8 0.2 0.8h-0.3l-1.1-0.3-0.2 0.4-0.3 2.5 0.3-0.7 0.8 0.2 0.2 0.5-0.2 0.5v0.6l0.3 0.3 0.4 1-1.1 2.5 0.6 3.4-0.5 0.5-0.6-0.2-0.2 1.1 0.6 0.5 1.2-1.7-0.4-2.2 0.8-0.7 0.2 0.6v1.7l-1 2.7-0.7 5.4-0.5 1.8 0.2 2.5 0.8 2.8 0.1 4.6 0.9 6.4 1 3.4-2.2 6.6-1.4 6.7-0.4 1-0.2 2.9-1 3.7-0.1 2.3 0.4 4.4 0.8 1.7-2.2 3-1.8 0.7-0.9 0.6-2.8 3.9-0.5 2.1-8.1-5.2zm19.4-73.9h-0.3-0.8l-0.2 1.1 0.5 0.4 0.8 0.2-0.3 0.4v0.6l0.6 0.1 0.7-1.6-0.1-1.1-0.2-0.2h-0.7zm2.8-4.1l-0.2-1.2 0.7-0.4 1.1-1 0.2-0.7-0.4-0.7 0.8 0.2 0.8 1-0.1 0.5z"/>
	<path id="BR-CE" class="s0" d="m194.1 72.1l-4.9 1.6-2.6 2-3.3 6.7-0.9 1.1-0.9 0.6-0.6 1.7 0.1 0.7-1.4 2.4-1.4 1.6-0.6 1.1-1 0.2-0.8-0.5-0.5 0.1-0.8 0.9-1.5 2.2-0.3 2 0.6 0.1 0.7-0.3-0.1 0.5-0.8 1.2-1 3 0.5 1.3-0.7 1.3-1.1 0.6-0.1 0.4-0.2 0.9 0.3 0.4 0.6 0.3 0.3 0.7v1.7l1.2 0.9 0.7 0.1 0.4 1.2-1.7 3.4-1.1 1.2 0.1 0.2-1.6 0.5-1 0.8-1.6 2.3-1.6 0.1-0.7-1.7-0.7-0.5-1.4-0.5-1-1.1-0.5-1-1.8-0.8-2.8-1.9-3.1-0.4-1.3 0.1-2.2 0.8-1.6 0.2-0.9-0.3-4.9-0.2 0.1-1.3-0.7-0.7-0.1-0.9 1.1-3.2 1.5-2.2v-0.7l-0.7-1.2-2.6-0.4-1.3-0.7-1-2.6-1.1-5.2-0.7-2.6 0.2-0.5-0.9-8.1-0.1-0.4-0.9-0.7 0.8-0.6 0.5-1.6-0.6-2.9-1-2.1 0.5-1.6-0.8-3.8 0.8-1.4v-0.7l-1.4-1.6-0.4-1.8-3.2-6.4-1.8-4.7-0.2-1.3 0.1-1.5 1.6-1.9 1.1-1.9 0.1-0.8 0.2-0.1v-0.6l-0.4-0.7 0.6-0.8 6.8-0.2 2.8-0.5 2.1-0.6 7.4 0.8 2.1 1.1 2 1.5 4.1 2.2 1.5 0.5 4.8 3 1.2 0.2 2.2 2.3 3 2.1 2.6 0.7 2.4 2.9 1.2 0.6 3 3.8 4.1 3.1 1.5 2 1 1 1.5 0.8 1.2 0.1 2.4 0.9 0.8 0.7z"/>
	<path id="BR-MA" fill-rule="evenodd" class="s0" d="m78.8 44.2v0.3l-2 2.2-0.5 0.1v1.5l2-1.7 0.6-1.2 2.2-1.6 0.8-1.2 1.1-6.3 1.1-0.7 1.1-0.1 1.7-0.9 0.7-0.2 0.4 0.2 0.1 1.6-0.2 0.4-1.4 1.9-3.2 1.8-0.1 0.7 0.8 0.1 0.4-0.8 1.2-0.3 0.2 0.8-0.6 0.5 0.2 0.3 4.3-4.9 0.8 0.3 2.6-0.9 4 0.4-0.4-2.4 0.6-0.3 2.4 0.1 1.8 0.4 2.6 1.1 1.1 0.1 2.1 1.3 1.4 0.1 1.3 1.3 1.9 1.3 2.5 0.6 1.1-0.2 0.6 0.7 0.3 0.1 1.6-0.1 2.5 0.7 0.2-0.9-0.6-0.5 1.6-0.4 0.6 0.1-0.1 0.4-0.5 1.5 0.3 0.7 0.6 0.5-0.4 1.6-1.8 2.2-4.1 4-3.3 0.5-0.8-0.2-2.9 3.4v1.8l-0.9 1.8-1.9 1.9-0.8 2-0.6 0.1-0.8 1.1 0.4 1.9 1.2 0.8 0.4 1.3-0.3 1.5-1.1 2.8 1.5 2.9 0.6 2.9-0.1 2.5-0.2 0.5-4.1 4.4-0.2 2.5 0.1 2.1 0.5 2.3 1.8 2.1 1.6 0.9 0.2 0.5 0.1 0.8-0.4 2.2-0.3 0.5-0.1 1.2-0.5 1.4-1.2 1.3-2.3 0.3-0.6-0.3-0.9 0.1-2.4 0.8-1.5 0.2-2.5-1.9-1-0.2-1.5 0.2-1 0.6-1.1 0.3-0.2-0.3-0.9 0.2-0.5 0.2-1.9 1.9v0.5l-0.6 0.9-2 2-2.4 0.9-2.8 2.5-1.4 0.6h-1l-1.7 1.5-1.1 0.4-2.6 0.3-2.7 0.8-2.1 1.9-1 3-0.4 3-0.6 2.3-1.5 2.7-0.3 0.3-0.3 0.8-0.2 1.5-1.2 2.5-1.7 1.4-0.7 2 0.7 1.9 0.5 3.2 1.7 3.1v0.5l-0.8 1.4-0.1 6.3-1.2 2.5-0.2 1-0.1 2-1.3-0.7-0.6-0.8-0.8-0.5-1-0.3-1.8 0.2-0.7-0.1-1.3-2-1-2.9-2.1-1.6-0.2-1.7 1.7-1.8-0.1-0.5-3.9-2-0.6-1-0.1-1.7-0.7-1.6-1-0.6-2-0.3-0.2-0.4 0.2-0.8 2.6-2.5-0.3-1.3 0.7-2.7 0.7-1.4 0.6-0.6 1.3-0.5 3.4-0.4-0.4-1.3 0.6-3.3v-1.7l-1.8-1.2-4.3 0.9-2.2 1.4-2.2-3.1-0.9-0.8-3-4.2-0.9 0.1-0.9-1.4 0.7-1.2-0.2-0.9-0.2-0.3-1.4-0.3-0.4 0.3-1.9-1.3 0.2-0.8 1.7-0.6 1.8-2.1 0.2-1.5-0.3-1 0.3-2.4 1.8-6.2v-0.4l-0.7-1.1-0.2-1.1 0.2-3.7-0.6-1.5-0.5-3.5-0.8-1.1-3.4-1.4h-1.2l-0.3-0.3-0.1-1.1-0.6-0.7-1.7-0.2-1 0.5-1.4-0.1-2.8-1.5-0.8-0.1-2 0.5-2.6 1.9-0.5 0.6h-0.5l14.7-11.9 2.3 0.3 1.2-1 1.5-2.1 0.5-1.2 1.5-1.2 0.6-2.8 1.2-0.5 2.4-2.3 0.5-1.2 0.3-1.9 1.6-4.7 1.9-1.6 1.5-1.7 0.8-1.5 0.5-1.2-0.2-1.9 0.8-0.8-1-1.6 3.6-3-0.1-1.7 0.5-2.4 1.8-1.5 0.3-0.7 0.9-3.1 0.1-1.6-0.4-0.5-1 0.2-0.3-0.5 0.1-0.7 1.1-0.1 0.6-0.7 0.7-4.4-0.2-1.4 0.5-1 0.8-0.5h0.6l0.2-0.2v-0.6l0.3-0.7 0.6-0.6 1.3 1 0.5 1.9 1.2 0.1 0.7-1.4 0.6 3h1l0.3-0.5 0.1-0.9 0.8-0.1 1.7 0.6 0.5 0.6-1.4 1.7 0.7 0.7v0.6l1.2-2 0.5-1.6h0.4l0.4 1v0.6l-0.8 0.9-0.3 1 0.1 2.7 0.2 0.4 0.5 0.1 0.6-0.2 1-0.9-0.5-1 0.1-0.6 1.3-1.4 1.1-0.3 2.1 0.6 1.5-1.1 0.1 0.9-0.4 0.2-1.1 1.6 0.6 0.6 0.1-0.4 1.2-0.6 0.6 0.8-0.1 1.2 1.6 1.7 0.9-0.4 1.5 0.7 0.8 2.4-0.1 0.9-2.2 2.7-0.4 0.9 0.1 0.7 0.6-1 1.8-1.7h0.8l0.9 0.8 0.5 1.9-0.3 1.2-0.9 0.2-1.1 0.9-1.1 1.5v0.7l-1.1 2.4-0.6 3.5 0.2 0.4zm0.5 0.4l-0.1-0.8 0.6-1.5-0.5-1.1 0.2-0.6 0.9-1.3 0.5-0.2 0.1 2.4-0.2 1.3-0.8 0.6zm-6.3-25.7l-0.5-0.5-0.1-0.6 0.8-1.1 0.9-0.1 0.7 0.5 0.1 0.3-0.2 0.4zm3.5 4.1l-0.3-0.3v-0.5l1.1-0.9 0.5 0.1 0.5 0.8-0.2 0.7-0.4-0.2zm-14.1-4.8l-0.2-0.1 0.9-3.6 0.3 0.1 0.1 0.3-0.5 3z"/>
	<path id="BR-PB" class="s0" d="m230.7 114.4l-2.5-2-0.8-0.3-2.7-0.2-2.3 1.1-1.5 1.2-0.4 1.8-1.9 1.1-2 0.4h-1.2v0.6l-0.8 0.5-2.1 0.3-3.9-0.2-1.6 0.8-0.6 0.7-1.8 0.1-0.9 0.7-0.5 0.7 0.4 0.8v0.5l-0.4 0.5-1.8 1.5-1.4 0.2-1.6 0.8-1.6-0.8-1-0.9-0.3-2.3 0.2-0.5-0.1-0.3-1.2-0.3-0.4 0.3-1.5 0.3v-0.5l2.5-2.6 0.2-0.5-0.7-1.8-0.1-0.5 0.4-0.8 3-1 0.1-0.3-0.5-1.4-3.5-2-1.5 0.5-2.2 1.2-0.9 1.5-1.5 0.9-1 0.3-2.7 1.9-1.6 1.6-1.6 0.3-2.6 0.9-0.8-0.3 0.1-0.7-0.7-1.2-0.3-0.1-1 0.7-1.5 0.3-1-0.3-1.4-1.9-0.4-0.1-0.1-0.2 1.1-1.2 1.7-3.4-0.4-1.2-0.7-0.1-1.2-0.9v-1.7l-0.3-0.7-0.6-0.3-0.3-0.4 0.2-0.9 0.1-0.4 1.1-0.6 0.7-1.3-0.5-1.3 1-3 0.8-1.2 0.1-0.5 0.6-0.5 1.9 1.6 0.9 0.5 2.9 0.6 1.1-1.2 3.3-1.6 0.8-0.7 0.1-1.1 0.4-0.9 3.2-1.2 1.4-0.1 3.3-1.1 0.6 0.1 0.5 0.4 0.1 1.2-3 3.2-0.5 1-0.4 1.7-0.4 0.4-0.8 0.3-0.2 0.3-0.1 1.7 3.5 0.5 0.3 0.2 0.4 1.4 0.2 0.3 3.2-1.3 1.8-0.1 1.9 0.3 0.9 1.2-0.5 1.5 0.8 0.8 2.4-1 0.5-0.7 0.5-1.2-0.5-1-0.1-1.4 0.5-0.6 1 0.4-0.6-1.6-0.7-0.8 0.3-1.4 1.9-1.4h1.3l0.5 0.4-0.1 1 0.6 0.4 3.4 0.4 0.5 0.4 5.9-0.4 2.1 0.3 2.5 1.1 1-0.4 3.5 0.2 1-0.2v2.4l1.5 4.4 0.1 0.6-0.2 0.9-0.4 0.5v0.9l0.6-0.8 0.5-1.5v2l0.6 1-0.3 5.2-0.4 0.6z"/>
	<path id="BR-PE" class="s0" d="m178.5 142.5l-1.2-3.1v-0.9l-2.1-0.9-0.5-0.4-0.4-0.8 0.6-0.9-0.1-0.6-0.4-0.3h-1l-0.4 0.4-0.3 1.8-0.5 0.1-0.3-0.2-0.6-1.7-1.6-1.1-3-0.4-2.3-0.8-1.4-0.8-0.8-1.5-1.5-0.5-0.6 0.1-2.5 1.5-1.7 0.4-0.7 2-2.3 0.5-0.2 0.2 0.2 1.4-0.2 0.6-1.1 1.2-2.4 1.1-0.6-0.1-0.8-0.5-0.7 0.1-0.5 0.9-0.8 3.6-2.9 0.9-0.8 0.9-0.9 0.2-1.9-0.6 0.9-1.7-0.2-2-2.2-0.9-0.8-1.9 0.1-2.8-0.4-0.5-2.8-1.4-2.2-0.2-1.2 0.2-0.9-0.4 2.6-1.3 2-1.7 0.5-0.8 2.3-1.4 1-0.2 3.9-3.9 0.7-1.8 0.1-2.2-0.3-0.6-1.6-1.6v-2.2l-0.6-1.1v-0.9l0.1-0.5 0.5-0.3 1.8-0.2 4.9 0.2 0.9 0.3 1.6-0.2 2.2-0.8 1.3-0.1 3.1 0.4 2.8 1.9 1.8 0.8 0.5 1 1 1.1 1.4 0.5 0.7 0.5 0.7 1.7 1.6-0.1 1.6-2.3 1-0.8 1.6-0.5 0.4 0.1 1.4 1.9 1 0.3 1.5-0.3 1-0.7 0.3 0.1 0.7 1.2-0.1 0.7 0.8 0.3 2.6-0.9 1.6-0.3 1.6-1.6 2.7-1.9 1-0.3 1.5-0.9 0.9-1.5 2.2-1.2 1.5-0.5 3.5 2 0.5 1.4-0.1 0.3-3 1-0.4 0.8 0.1 0.5 0.7 1.8-0.2 0.5-2.5 2.6v0.5l1.5-0.3 0.4-0.3 1.2 0.3 0.1 0.3-0.2 0.5 0.3 2.3 1 0.9 1.6 0.8 1.6-0.8 1.4-0.2 1.8-1.5 0.4-0.5v-0.5l-0.4-0.8 0.5-0.7 0.9-0.7 1.8-0.1 0.6-0.7 1.6-0.8 3.9 0.2 2.1-0.3 0.8-0.5v-0.6h1.2l2-0.4 1.9-1.1 0.4-1.8 1.5-1.2 2.3-1.1 2.7 0.2 0.8 0.3 2.5 2 0.9 0.2 0.5 1.3-1.2 1.7-0.2 0.5 0.1 0.5 0.7 0.4 0.2 0.5 0.2 1-1.9 6.4-3.3 9-0.3-0.2-2.9-0.3-1.9-0.8-1.5 0.2-2.5 1.3-2.3-0.9-2 0.3-1.5 1.2-0.1 0.4-2.2 2.3-1.8 1.1h-1.2l-1.8 1.1-1.2 0.1-3.1-0.3-2.5 0.6-2-0.5-1.7-1-1.9-2.1-2.6-2-1.1 0.1-1.6-0.3-1-1.2-0.9 0.6v0.6l-2.4 3.3-2.2 0.8-0.6 1.1z"/>
	<path id="BR-PI" class="s0" d="m126 42.2l1.3 0.1 0.7-0.2 2.2 0.5 1 0.8 0.3 0.6-0.1 0.8-1.1 1.9-1.6 1.9-0.1 1.5 0.2 1.3 1.8 4.7 3.2 6.4 0.4 1.8 1.4 1.6v0.7l-0.8 1.4 0.8 3.8-0.5 1.6 1 2.1 0.6 2.9-0.5 1.6-0.8 0.6 0.9 0.7 0.1 0.4 0.9 8.1-0.2 0.5 0.7 2.6 1.1 5.2 1 2.6 1.3 0.7 2.6 0.4 0.7 1.2v0.7l-1.5 2.2-1.1 3.2 0.1 0.9 0.7 0.7-0.1 1.3-1.8 0.2-0.5 0.3-0.1 0.5v0.9l0.6 1.1v2.2l1.6 1.6 0.3 0.6-0.1 2.2-0.7 1.8-3.9 3.9-1 0.2-2.3 1.4-0.5 0.8-2 1.7-2.6 1.3-0.5 1.2-1.5 2.3-1 0.6-0.8-0.1-2 0.3 0.1 2.4-1.8 1.8h-0.4l-0.6-0.6h-2.1l-0.9 0.9-0.7 0.4-2.8 0.3-1.5 1.4-0.8 1.2-1.7 0.1-1.5 0.6-3 0.2-0.8-0.3-0.2-0.3 0.1-0.7-1.7-0.9-1.3-0.4-1.4 0.5-2.1 0.4-0.3-0.1-0.4-1-1.5-0.4h-2l-3.2 1.6-0.1 1 2.2 4.4 0.2 1.2-0.3 2.5-0.3 0.9-0.7 0.9-2.9 5.1-3 2.4-1.4 0.4-1.4-0.5-1.4-0.2-2.2 0.7-1.2 0.9-0.6 0.9-1.2 0.4-0.7 1.4-0.3 0.2-2.2-0.1-1.8 0.5-4.1-1.9-1.8-2.5-0.5-2.2-0.7-1-1.4-1.3h-2.4l-2.9-0.2v-2l0.3-1 1.2-2.5 0.1-6.3 0.7-1.4 0.1-0.5-1.8-3.1-0.4-3.2-0.7-1.9 0.7-2 1.7-1.4 1.2-2.5 0.1-1.5 0.4-0.8 0.3-0.3 1.4-2.7 0.6-2.3 0.4-3 1-3 2.1-1.9 2.8-0.8 2.6-0.3 1-0.4 1.7-1.5h1.1l1.3-0.5 2.9-2.6 2.3-0.9 2-2 0.7-0.9v-0.5l1.9-1.9 0.5-0.2 0.8-0.2 0.2 0.3 1.2-0.3 1-0.6 1.4-0.2 1 0.2 2.5 1.8 1.6-0.1 2.4-0.8 0.8-0.1 0.7 0.3 2.3-0.3 1.2-1.3 0.5-1.4 0.1-1.2 0.3-0.5 0.4-2.2-0.2-0.8-0.1-0.5-1.6-0.9-1.8-2.1-0.5-2.3-0.1-2.1 0.1-2.5 4.1-4.4 0.2-0.5 0.1-2.5-0.5-3-1.6-2.8 1.1-2.8 0.3-1.5-0.4-1.3-1.2-0.8-0.3-1.9 0.7-1.1 0.7-0.1 0.8-2 1.9-1.9 0.9-1.8-0.1-1.8 2.9-3.4 0.9 0.2 3.3-0.5 4.1-4 1.8-2.2 0.4-1.6-0.7-0.5-0.2-0.7 0.5-1.5 0.7 0.2 1.5 0.8 0.5 0.5-0.1 0.3z"/>
	<path id="BR-RN" class="s0" d="m229.6 98.2l-1 0.2-3.5-0.2-1 0.4-2.5-1.1-2.1-0.3-5.9 0.4-0.5-0.4-3.4-0.4-0.6-0.4 0.1-1-0.5-0.4h-1.3l-1.9 1.4-0.3 1.4 0.7 0.8 0.6 1.6-1-0.4-0.5 0.6 0.1 1.4 0.5 1-0.5 1.2-0.5 0.7-2.4 1-0.8-0.8 0.5-1.5-0.9-1.2-1.9-0.3-1.8 0.1-3.2 1.3-0.2-0.3-0.4-1.4-0.3-0.2-3.5-0.5 0.1-1.7 0.2-0.3 0.8-0.3 0.4-0.4 0.4-1.7 0.5-1 3-3.2-0.1-1.2-0.5-0.4-0.6-0.1-3.3 1.1-1.4 0.1-3.2 1.2-0.4 0.9-0.1 1.1-0.8 0.7-3.3 1.6-1.1 1.2-2.9-0.6-0.9-0.5-1.9-1.6-0.6 0.5-0.7 0.3-0.6-0.1 0.3-2 1.5-2.2 0.8-0.9 0.5-0.1 0.8 0.5 1-0.2 0.6-1.1 1.4-1.6 1.4-2.4-0.1-0.7 0.6-1.7 0.9-0.6 0.9-1.1 3.3-6.7 2.6-2 4.9-1.6 0.4 0.8 0.9 0.7h3.1l1.2 0.4 1.7 1.8 1.3 0.5 3.4-0.3 2.9 0.5 2.5-0.3 2.3-0.7 4.5 0.9 1.3 0.1 1.9 0.8 1.1 0.8 0.6 1 2.3 4.7 0.5 1.8v0.8l1.5 5.3 0.2 1.7 0.7 0.6 0.9 2.7z"/>
	<path id="BR-SE" class="s0" d="m190.2 177l-2.9 0.8-1.5-0.6-0.6-0.3-0.5-0.8-1.9-0.9-0.6-0.5-0.1-0.4 0.3-0.4 0.2-1.4-0.2-0.4-1.4-1.5-0.5-1.5-1.1-0.7-1-1.6v-0.7l0.6-1.6 0.3-0.3h1.7l1.1 0.7 2.6-1 0.7-0.5 0.3-0.6-0.8-2.7 0.1-0.9 0.7-1.6v-3.1l-0.7-1.2-2-1.9-1.3-2.5-0.2-2.2 0.7-1.1 6.4 2.9 3.7 1 5.4 3.1 1.3 2.4 1.8 1.5 1.7 0.8h0.4l3.6 2.2 0.6 1.3-2.4 0.8-4.5 2.9-1 0.9-1.6 2.2h-0.3l0.1-1.1-1-1.8-1 0.1 0.3 1.2h1.3l0.2 0.2-0.5 2-1.3 2.1-0.5-0.3-0.4-0.7-1-0.2 0.2 0.7 1.1 0.6-0.2 1.8-0.9 1.1-0.9 2.1-0.8 0.1-0.3-0.4 0.5-1.4 0.4-0.2 0.3-0.4 0.4-1-0.8-0.4 0.1 0.7-0.5 1.1-0.5 0.5-0.2 1.1 0.3 0.7-0.3 0.5z"/>
</svg>