<svg version="1.2" xmlns="http://www.w3.org/2000/svg" viewBox="0 0 613 640" width="150" height="157">
	<title>brazil-svg</title>
	<style>
		.s0 { fill: #6e72fb } 
	</style>
	<path id="BR-AC" class="s0" d="m30.7 238h-2l0.5-1.8-0.2-0.8-0.3-0.5-1.2-0.7-0.2-0.5 0.3-1.1-0.8-2-1-0.6-5.6-1.3-7.4-0.2 0.3-0.5 2.5-2.3 0.9-1.2 0.3-1.2-0.3-1.2-0.6-1-0.9-0.4-1.7-2.9-0.7-0.5-0.9-0.2-1.2-1.1-0.9-2.4-2-1.5-1-3.6-0.8-1.7-1.9-1.1-0.1-1.1 0.8 0.1 0.4-0.5 0.1-0.7-0.2-0.4-2.1-1-0.4-0.6-2.1-1.9v-0.4h0.6l0.5-1.4v-1.3l3-0.4 0.5-0.3-0.2-1.4-1.2-1.6 18 7.5 23.6 5.7 12.2 3.1 26.4 14.2 28.5 12.1 3 1.3-0.3 0.5-1.6 0.6-2.1 1.6-2.8 2.8-1.7 0.9-0.6-0.2-1.6 0.2v0.5l-1.9 1.3-2.1 1-1.4 1.8-0.5 1.2-0.6 0.3-1.2-0.8-0.7-0.1-2.4 0.1-0.7 0.2-0.6 0.5-0.4 0.8-2.4 3.5-3.8 1.3-0.8 0.7-2 0.5h-1l0.1-2.1-1.4 0.2-3.5-0.8-5.3-0.5-5 0.4-0.7-0.6-2.3-0.1-3.5 1.8-2.8 0.6-1.6-0.6-1.4-1.5-1.7 1.2 0.1-17.6v-1.1l0.5-0.7v-2.3l-0.2-0.9 1-1.2 0.4-1.1-1.1 0.2-3 2.6-1.6 1-2.1 2.3-1.9 0.7-0.7 1.1-1.8 1z"/>
	<path id="BR-AL" class="s0" d="m562.2 230.6l-0.2-0.8-1.4-0.7h-0.5l-1-0.2-0.6-1.4 1.4-1.1 0.6-1.1 2.2-0.8 2.4-3.3v-0.6l0.9-0.6 1 1.2 1.6 0.3 1.1-0.1 2.6 2 1.9 2.1 1.7 1 2 0.5 2.5-0.6 3.1 0.3 1.2-0.1 1.8-1.1h1.2l1.8-1.1 2.2-2.3 0.1-0.4 1.5-1.2 2-0.3 2.3 0.9 2.5-1.3 1.5-0.2 1.9 0.8 2.9 0.3 0.3 0.2-2.8 4.9-4.5 5.2-3.6 3.5-3 4.6-3.4 2.9-1 2-1.3 1.8-0.6-1.3-3.6-2.2h-0.4l-1.7-0.8-1.8-1.5-1.3-2.4-5.4-3.1-3.7-1z"/>
	<path id="BR-AM" class="s0" d="m166.1 47.6l0.7 0.7 0.8 0.4h0.6l1.1-0.4 0.6 0.1 0.1 0.9 1.2 1.2 1 0.4 0.8-0.2 1.4 0.1 2 0.9 0.4 0.7-0.9 3.3-0.7 1.5 2.8 3.7 1.6 4.8 0.2 2.3 0.9 1.1v0.4l-1.6 1.5 0.4 1.6 0.6 1.6-0.7 3-0.6 1 0.3 4.9 0.9 2.2 1.2 0.9 0.6 0.9 1.1 4.3-0.1 0.6-1.1 1.3-1.9-0.3-0.1 1.1 5 4.4 0.5 0.1 2 1.3 1.5 1.6 1 2.1h0.5l1.4-0.4 2.3 1-0.4-2.1 0.8-2.3 0.2-1.7-0.4-1.8 0.9-3 1-1.2 1.3-0.7 2-0.7 0.6-0.9 1.6-0.1 2.8 1 1.9 2 0.9 2.5 1.8 0.2 1.3-0.4 1.4-1.4 2-0.6 0.4-0.4 0.1-0.5-1.2-1.4-0.2-0.7 0.1-0.7 1.2-2.6v-1.2l1.7-3 2.3-3.3v-0.6h18.5l0.4 4.9-0.5 1.4 0.2 2.3 0.3 0.7 1.7 0.8 0.1 0.5-0.3 0.6-0.1 2.2 1.9 1.9 0.3 0.2 0.7-0.1 1.9 1.2 0.5 1.8 0.1 0.9 0.3 0.5 4.6 3.8 4.6 2.5 0.6 0.9 1.4 1.1 1.8 0.7 2.4 1.3 2.3 0.6 1.3 0.2 1.4 0.8v0.6l1.3 1.3 2.7 1.5 1.1 2.2 1.9 0.7 0.8-0.6 1.4-0.3 0.2 0.5-0.1 0.7 1.8 1.7-29.9 64.3-0.8 1.3-1.5 1.1-0.5 1-0.1 1.1 0.9 2.3 0.3 0.6 1.1 0.6 1.6 1.5 0.6 1.3 0.2 2 0.5 0.5-1.1 1.2-0.2 0.6-0.1 0.8 0.3 0.8-0.2 1-1.2 1.9-0.9 0.6-0.4 0.9 0.1 0.8 0.7 1.4 0.4 1.9-1.4 4.2-1.1 5.3-1.3 0.7-47.8 0.3v-0.7l-0.3-0.4-1.4-0.3-1.9 1.1-0.6 1.8-0.7 0.2-3.2-1.5-0.7-2.9-0.6-0.2-1 0.1-0.4-0.2-1.3-3.3-2.5-0.9-1.4-1.3-0.8-1.9-0.4-0.5-2.2-1.1h-10.7l-1.4 2.6-1.7 0.5v1.2l-0.2 0.2-2.5 0.5-1.2 1.6v0.7l0.9 0.7 0.1 0.4-0.3 1-0.8 1.2-2.1 1.2-0.1 1.8 0.2 1.5-3.8-0.5-2.2 0.4-1.2 1.1-1.8-0.1-0.8-0.6h-0.5l-1.7 1.2-0.5 0.9 0.2 1.7-2.5 3.2-0.7 0.1-0.7-0.6-0.6-2.2-0.4-0.1-1.8 1-1.3 1.2-1.4 0.4-0.8-0.1-1.1 0.5-0.4 0.5-0.1 0.7-1.2 0.8h-0.4l-2.3-2.3-0.7-0.4-2.9 0.4-3.9-0.3 0.1 1.3-0.1 0.6-1.6 1.8-1.9 0.6-3.3 2.5-28.5-12.1-26.4-14.2-12.2-3.1-23.6-5.7-18-7.5v-0.6l0.7-2.9 1.2-1.4 4.9-3.5 2.3-0.2 0.4-0.3 1-1.6 0.1-1-1.7-4.5 0.3-1.2 1.2-2.2 1.3-1.3 0.9-1.3 0.4-1 0.3-1.7-0.3-1.3 0.7-2.1 0.3-2.3 0.8-0.7 3.6-1.6 2.2-1.3 1.2-1 0.4-1.4 0.8-0.4 1.4-0.1 1.6-0.9 3.6-2.8 2.4-0.4 1.5 0.3 4.2-1.2 1.5-0.8 1.8-0.3 3.3 0.3 1.3-1.6 0.7-1.4 1.1-0.6 2.1 0.2 0.6 0.5 1.4-0.2 1.1-0.8 1.7 0.2 0.3 0.5v1.2l1.6 1.3h2.8l0.6-0.4 0.4-0.7-0.1-0.4 1.2-4.9 6.7-37.2 1.2-2.9-1-5 0.1-0.3-1.3-1-1.5-2.8v-0.4l0.6-1.4-0.5-1.8-0.4-0.4-1.7-0.6-3-2.4-1.9-2.2 0.2-11.5 3.9-0.3 1.7-1.2 3.5-0.9 2.7 1.8 1.2 0.1 1.3-0.5-0.5-1.6 0.3-1.8-1.4-2.1-0.6-0.5-1.1-0.6-1.5 0.5-2.8-0.6-3.6 0.1v-9.9h0.9l1.3-0.5 2.3-0.6 2.9 0.8 19 0.1-0.5-0.7-0.8-0.1-0.3-1.2 0.9-1.9 1.4 0.4 0.7 1.5 0.8 1.3 0.7 0.4h0.8l1.6-0.6 2-2.1 0.3-0.9 1.2-1.2 2.6-1.4 1.3 0.5 1.2 2.5 1.6 2 0.7 1.3 0.7 1.8 0.2 1.6-0.5 3.6 0.2 1.7 3.2-0.7 8.3 7.1 0.8 0.2 2.5 0.2 2.3-1 1.7-1.7 2.1-1.1 2.2-0.1 0.6 0.3 0.7 1v1l-1.1 1.7 0.4 1 0.6 0.3 1.3-0.8 0.6-0.9 0.2-1.3 1-1.1 0.5-0.2 1 0.1 0.5-0.1 0.4-0.7 0.5-2.3 0.5-0.4 1.5-0.3 2.9-1.8 1 0.5 0.9-0.3 1.6-1 1-1.6 2.2-1.2 2 0.5 2.3-1.6 0.6-0.8 0.4-2.7v-1.3l0.8-0.9 1-0.4h1.7l1.4-0.4 2-1.6 1-0.4 2.3-0.3z"/>
	<path id="BR-AP" fill-rule="evenodd" class="s0" d="m345.2 100l-0.9-0.1-0.8 0.3-1.3 0.2-2.8-0.7-1.4-1-0.4-1.5-1.9-1.4-0.1-1.3 0.2-0.7-0.3-1.6-0.3-0.5-1-0.2-0.4-0.9 0.1-2.4-3-3.3-0.7 0.3-0.9-0.1-1.5-3.5 0.2-1.6-0.6-1.8-0.6-0.6-0.7-1.5-0.2-2.1 0.4-3.1-0.1-0.4-2.6-0.7-2-2.3-0.8-2.8 0.2-0.7 0.7-0.2-0.5-1.2h-0.7l-2.8-2.6-1 0.1-0.3 0.4-1.4 0.2-0.8-0.3-0.8-1-1.2-0.8-1.1-0.2-0.5-1.2-0.7-0.8-1.9-1.1-1.3-0.5-3.4-0.3-1.1 0.2h-1.2l-0.3-0.5-0.2-1.5 0.2-4.5 0.7-1.3-0.4-2.3-0.6-0.6 0.3-0.2 1 0.3v0.8l-0.3 0.2 0.3 1 1.5-0.1 0.8 0.3 0.4 0.9 0.8 0.7 2.3 0.7 3.3 0.8 2.7-1.8 0.4-0.7 1.7-1.2 0.8-0.3 0.7 0.9 2.7 1 1.1-0.1 1.7-1.1 0.2-0.4 0.3 0.1 1.4 1.3-0.2 0.8 2.4-0.1 0.5 0.5 1 0.1h0.6l0.9-0.5 1.7-1.5 1.7-1.1 1.8-2.3 0.4-1-0.2-0.5 3.1-6.5 0.1-1.8 1.1-1.3 0.7-0.2 3.6-5.8 0.3-1.2 0.8-1.2 1.8-1.5 0.6-1.7 2.1-1.1 0.5-0.9 1.1-0.6 0.5 1.5 0.9 1.3-1.7-4.8v-1.3l0.1-0.3 3.4 2.4 1.1 1.2 1 1.2 0.5 1.2v1.6l0.4 0.3 0.4-0.5 0.3-0.1 0.3 0.4 0.2 7.9 0.6 3.9 2.7 6.1 2.7 8.9 3.3 5 1 0.3h3.3l2.8 0.9 1.3 0.9 0.7 2.6-0.1 3.3-1.3 1-1.7 0.4-0.4 0.4 1.8-0.2 1-0.4 0.3 0.2 0.1 0.6-0.2 0.7-5 4.1-1.2 2.1-2.1 1.4-2 3.7-2.9 3.5-0.7 0.5-0.9-0.1-1.5 0.5-2 3-1.4 0.1-0.7 0.9-1.5 1.6-1 2.3-1.1 1.8-0.8 0.7-3 3.4-0.4 2.4 0.2 1.8-2 1.8zm23.4-46.9l-0.5-0.4-1.1-1.8 0.1-0.9 0.2-0.4 1.7-0.5 0.4 0.4 0.9 2.3-1 1.1zm2.5 17.6l-0.4-0.3-0.1-0.7 1.1-1.1 0.9-0.1 1.2 0.2 0.5-0.1 0.4-0.6 0.1 0.6-1 1.4-1 0.5zm3.4-2.9l-0.7-0.2v-0.6l0.7-1 1.2-0.1 0.2 0.4-0.1 0.5zm-7.2-18.5l-0.7-0.5 0.2-0.8 0.9-0.2 0.9 0.4v0.7z"/>
	<path id="BR-BA" fill-rule="evenodd" class="s0" d="m527.8 365.6l-0.4-0.8 0.7-1.4v-0.5l-0.6-1.1-4.1-3-0.1-0.5 0.2-1.5-0.6-1.3-0.6 0.3-0.2 0.4-0.4 0.2-0.2-0.2 0.5-4.4 0.9-3.3 0.8-0.9 2.4 0.2 1.1-0.7v-0.4l-0.6-1 0.2-2.7 4.9-4.2 1.5-3.1-0.4-1.1-0.8-1.1h-0.9l-0.7-0.4-2.9-2.5h-2.1l-2.2-0.6-2.2-1-2.8-0.6-1.9-0.1-1.4 1-1.4 0.5-2.6-0.5-0.6 0.2-0.5-3.9-6.5-6.2-0.4-0.2-4.3 1.2-1.6-1.2-0.5 0.2-0.9-0.2-2.6-1.3-2.1-1.6-1 0.2-4.4-3.6-1.1-0.6-2.7-0.7-1.8 0.2-1.8 0.9-0.8 1.1-0.7 0.2-5.3-1.4-0.6-0.5-0.3-1.5 0.2-0.9 1.2-2.8-0.8-0.4-2.3-0.5-2.2-0.1-1.2-0.5-1.8-0.1-3.8 1.6-4.3 3-0.6 1.2-3.4 1.8-2 0.4-0.9 1.2-1.8 1.6-1.5 0.5-1-0.2-1.8 2.6-1.1 0.8-2.1-0.4-0.7 0.1-0.7 1-1.3 0.9-0.4-0.2 1.4-3.4-0.5-2.4 1.5-2 0.2-0.8-0.2-1.2-0.7-1.8 0.1-0.6 0.7-1.5v-0.4l-3.2-2.6-1.7-3.5-0.7-3.5 0.1-1.6 1.2-3.8 1.6-1 0.2-0.4 0.1-0.9-1.7-0.9-0.1-0.3 0.5-2.5 1.4-1.1v-0.4l-2.7-2.4v-1l1.3-2.3v-1.1l-0.2-0.4-1.4-0.5-1-0.7-0.3-1.2v-2.9l0.2-0.9 2-1.7 1.1-0.4 1-0.7-0.3-0.6-0.6-0.6-0.9-0.2-1.1 0.1-0.3-0.3-0.1-0.5 0.4-1 2.1-0.8 0.5-0.4v-0.8l-1.9-1-3.6-0.6-1.8-2-0.3-0.9 0.5-1.2 1-0.7 1.6-3.5 0.9-0.6 1-0.3 0.3-0.3-1.3-1.8 0.2-0.4 3.2-2.6 3.9-2.1 0.5-0.4 0.2-1 0.7-0.7h2.4l1.4 1.4 0.7 1 0.5 2.2 1.7 2.5 4.2 1.9 1.8-0.6 2.1 0.2 0.4-0.2 0.7-1.4 1.2-0.4 0.6-0.9 1.2-0.9 2.2-0.7 1.3 0.2 1.5 0.5 1.4-0.4 2.9-2.5 3-5 0.7-0.9 0.2-0.9 0.3-2.5-0.1-1.2-2.2-4.4v-1l3.3-1.6h1.9l1.5 0.4 0.4 1 0.4 0.1 2.1-0.4 1.4-0.5 1.3 0.3 1.7 1-0.1 0.7 0.2 0.3 0.8 0.3 3-0.2 1.5-0.6 1.7-0.1 0.8-1.2 1.5-1.4 2.7-0.3 0.8-0.4 0.8-0.9h2.2l0.6 0.6 0.3 0.1 1.9-1.9-0.1-2.4 1.9-0.3 0.8 0.1 1.1-0.6 1.5-2.3 0.4-1.2 0.9 0.4 1.2-0.2 2.2 0.2 2.8 1.4 0.5 0.5-0.1 2.8 0.7 1.9 2.2 0.9 0.3 2-0.9 1.7 1.8 0.6 1-0.2 0.8-0.9 2.9-0.9 0.7-3.6 0.5-0.8 0.8-0.2 0.8 0.5 0.6 0.1 2.4-1 1.1-1.3 0.1-0.6-0.2-1.3 0.3-0.3 2.2-0.4 0.8-2.1 1.6-0.4 2.6-1.5 0.6-0.1 1.5 0.6 0.8 1.4 1.3 0.8 2.4 0.8 3 0.4 1.6 1.2 0.5 1.6 0.4 0.3 0.4-0.2 0.3-1.7 0.5-0.5h1l0.4 0.3v0.7l-0.6 0.9 0.5 0.8 0.5 0.4 2.1 0.8v1l1.2 3 0.5 1.4 1.1 0.3 0.4-0.1 1.4 0.8 0.2 0.7-0.6 1.2 0.2 2.1 1.3 2.5 1.9 2 0.8 1.1-0.1 3.1-0.6 1.7-0.1 0.8 0.7 2.8-0.3 0.6-0.7 0.5-2.5 1-1.1-0.7h-1.8l-0.3 0.3-0.6 1.5 0.1 0.8 0.9 1.6 1.1 0.7 0.5 1.5 1.5 1.5 0.1 0.4-0.1 1.4-0.4 0.4 0.2 0.4 0.5 0.5 2 0.9 0.5 0.7 0.5 0.4 1.5 0.6 2.9-0.9h0.7l0.3 0.4-4 8.9-3.9 5.1-1 2.4-5 5.7-2.5 1.3h-0.9l0.3-1.5 0.4-0.1 0.2-1.1-0.5-1.9-1.9-0.3-0.4-1.3-0.7-0.7-0.3 0.6-0.5 2.3-0.5 0.9-0.6 0.3-0.5-0.3-0.5-1.7 0.1-0.3 0.3-0.1v-0.4l-0.9 1.3 0.9 1.6 0.5 0.3 0.4-0.2 1.1 0.3-0.4 1.8-1.2 1.1-0.3 1.9-1.2 0.9-0.4 0.7-0.2 0.8 0.2 0.8h-0.3l-1.1-0.3-0.2 0.4-0.3 2.5 0.3-0.7 0.8 0.2 0.2 0.5-0.2 0.5v0.6l0.3 0.3 0.4 1-1.1 2.5 0.6 3.4-0.5 0.5-0.6-0.2-0.2 1.1 0.6 0.5 1.2-1.7-0.4-2.2 0.8-0.7 0.2 0.6v1.7l-1 2.7-0.7 5.4-0.5 1.8 0.2 2.5 0.8 2.8 0.1 4.6 0.9 6.4 1 3.4-2.2 6.6-1.4 6.7-0.4 1-0.2 2.9-1 3.7-0.1 2.3 0.4 4.4 0.8 1.7-2.2 3-1.8 0.7-0.9 0.6-2.8 3.9-0.5 2.1-8.1-5.2zm19.4-73.9h-0.3-0.8l-0.2 1.1 0.5 0.4 0.8 0.2-0.3 0.4v0.6l0.6 0.1 0.7-1.6-0.1-1.1-0.2-0.2h-0.7zm2.8-4.1l-0.2-1.2 0.7-0.4 1.1-1 0.2-0.7-0.4-0.7 0.8 0.2 0.8 1-0.1 0.5z"/>
	<path id="BR-CE" class="s0" d="m574.1 157.1l-4.9 1.6-2.6 2-3.3 6.7-0.9 1.1-0.9 0.6-0.6 1.7 0.1 0.7-1.4 2.4-1.4 1.6-0.6 1.1-1 0.2-0.8-0.5-0.5 0.1-0.8 0.9-1.5 2.2-0.3 2 0.6 0.1 0.7-0.3-0.1 0.5-0.8 1.2-1 3 0.5 1.3-0.7 1.3-1.1 0.6-0.1 0.4-0.2 0.9 0.3 0.4 0.6 0.3 0.3 0.7v1.7l1.2 0.9 0.7 0.1 0.4 1.2-1.7 3.4-1.1 1.2 0.1 0.2-1.6 0.5-1 0.8-1.6 2.3-1.6 0.1-0.7-1.7-0.7-0.5-1.4-0.5-1-1.1-0.5-1-1.8-0.8-2.8-1.9-3.1-0.4-1.3 0.1-2.2 0.8-1.6 0.2-0.9-0.3-4.9-0.2 0.1-1.3-0.7-0.7-0.1-0.9 1.1-3.2 1.5-2.2v-0.7l-0.7-1.2-2.6-0.4-1.3-0.7-1-2.6-1.1-5.2-0.7-2.6 0.2-0.5-0.9-8.1-0.1-0.4-0.9-0.7 0.8-0.6 0.5-1.6-0.6-2.9-1-2.1 0.5-1.6-0.8-3.8 0.8-1.4v-0.7l-1.4-1.6-0.4-1.8-3.2-6.4-1.8-4.7-0.2-1.3 0.1-1.5 1.6-1.9 1.1-1.9 0.1-0.8 0.2-0.1v-0.6l-0.4-0.7 0.6-0.8 6.8-0.2 2.8-0.5 2.1-0.6 7.4 0.8 2.1 1.1 2 1.5 4.1 2.2 1.5 0.5 4.8 3 1.2 0.2 2.2 2.3 3 2.1 2.6 0.7 2.4 2.9 1.2 0.6 3 3.8 4.1 3.1 1.5 2 1 1 1.5 0.8 1.2 0.1 2.4 0.9 0.8 0.7z"/>
	<path id="BR-DF" class="s0" d="m417 334.1h-14.7l-0.5-3.2 0.9-1.9 0.4-3.7h11.9l1.8 2 0.1 2.2-0.6 1.2-0.2 2.4z"/>
	<path id="BR-ES" class="s0" d="m501.9 411.6l-0.3-0.1 0.4-2.3 0.6-1.3-0.6-3.2 0.2-0.4 1.7-2h5.2l0.5-0.3 1-3.3 1.1-1.2 0.9-2.3 0.2-1.8 0.3-0.4 1.2-0.9 1.7-2 0.6-3-0.3-2.4-1.3-2.9-1.1-1.2-0.5-0.1-0.5 0.3-0.7-0.3-0.5-0.7 0.4-0.6 1.5-0.1 0.8 0.4h1l0.9-0.2 0.3-0.4-0.1-1.8-1.4-0.3-0.2-0.4 0.3-1.6 0.1-1.9-0.6-0.6-1.3-0.7-0.3-0.7 1.2-1.9 2.2-1.3 0.3-0.1 1 0.8 1.1 0.1 0.1-0.8-1.7-2.3 1.3 0.1 2.2-0.3 0.9-0.6 1-0.3 1.6-0.1 2.6 0.8 0.9 0.6 0.3 0.5 8.1 5.2-1 3.3-0.3 2.9 0.1 3.6 0.8 6.1-0.3 2.5-1.5 3.2-2.8 1.4-0.5 0.6-1.7 3.3-1 3.8-0.8 1.5-0.8-0.7-0.9-0.2-0.3 1.3 1.4 0.5-1.9 4.3-3.5 3.8-0.2-0.2-1.9 0.6-0.8 1.2-0.1 1.4-0.4 1.3-1.6 2-0.3 1.1-1.6-1-3 0.3-4.3-1-2.5-1.1-0.7-4.7z"/>
	<path id="BR-GO" class="s0" d="m417 334.1l-0.9-1 0.2-2.4 0.6-1.2-0.1-2.2-1.8-2h-11.9l-0.4 3.7-0.9 1.9 0.5 3.2h14.7l-0.6 1.6 0.4 1.5-0.7 1.6-1.1 1.3-0.4 1.4 0.9 1.2 0.8 0.4 1.4 1 1.7 4.6v0.6l-2.3 2.7-3.3 3-0.4 2.1 1.1 1.1 0.9-0.4 1.6 0.5 0.4 0.7 0.2 1-0.1 0.7-0.8 0.9-0.5 1.9 1.2 3.4-3.1 2.1-1.1 0.2-0.9 0.9-0.5 1.1-4.9 2.7-0.7-0.7-4.3-1.9-0.6 0.5-0.6 0.1h-1.7l-1.5-0.3-3.8 0.2-2.1-0.9-4.1 2.6-2.9 2.9h-0.3l-1.3-1.4-1.6-0.3-3.1 1.7-3.8-0.7-2.4 1-2.3 0.5-1.4 2.1-1.2 2.5 0.1 1-0.9 1.3-0.8 0.3-0.8-0.2-0.5 0.2-0.9 0.7-1.7 2.1-0.5 1.9 0.5 0.6v0.3l-0.3 0.3-0.9-0.5-0.2-0.4-2.7-2.3-3.1-0.6-1.7-1.5-1.9-0.5h-1.5l-3.3-1.3-0.7-0.9-3.1-1.6-0.6-0.6-1.5-0.7-1.1-0.1-2.7-1.7-2.8 0.1-3.8-0.7-0.1-0.3 0.2-0.8 0.6-1.2 1.3-1.8-0.1-0.4-2.2-0.9-1.1 0.7-0.7-0.2-0.3-0.4-0.2-1.1 0.2-2.6-0.1-1.8-1-2.2-0.2-3.4-1.4-2.2-0.1-0.7 0.4-3.4 2.5-3.9 0.4-2.9 0.7-0.7 2-0.9 1.9-1.8 1.3-2 0.3-1.9 0.5-1 1.3-1.1 0.8-1.4 0.1-1.5 1.7-1 1.4-2.6 2.7-0.2 2.7-0.8 0.3-0.3 2-4.2 0.7-1 0.7-4.1 0.3-0.7 2-1.9 1.6-1 1.1-0.3 1.2 0.7 1.2-0.8 1.4-1.4 0.8-2.9 1.2-2.9v-0.8l-0.5-1.1 0.6-2.8 1.6-3.1-0.1-5.1 1.2-0.8 1-2.6 2-3.2 0.4-1.1-0.1-2.7 0.3-0.9 1-0.9 0.2-1.1v-0.6l0.3-0.5 0.2-1.9 0.7-1.2 1.8-2.1 0.5-0.3v1.7l-1.2 1.9-0.5 2.4 2.4 0.4 2.2 1 3.9 0.4 3.1 1.7 4.1 1.4 0.6-0.2 1.6-5.9 1.5-2.4 1.2-1 1.1 1.3 1.1 1.9 1.1 3.7 0.6 3.1h1.1l0.8-0.7 0.3-1 0.5-0.5 2.8 0.3 4.5-0.5 0.2 0.7-0.5 1.6 3.1 1.4 3.4 0.7 0.6-0.1 0.6-3.3 0.5 0.1 1.5 2.6 0.5 0.2 1.8-0.9 2.5-2.1 4.5-1h1.6l2.5-1.1 1.8-1.3 5.3-1.4 2.7 2.4 0.1 0.4-1.5 1.1-0.5 2.5 0.1 0.3 1.7 0.9-0.1 0.9-0.2 0.4-1.6 1-1.2 3.9v1.5l0.6 3.5 1.7 3.5 3.2 2.6v0.5l-0.7 1.4-0.1 0.7 0.7 1.7 0.2 1.3-0.2 0.7-1.5 2-1 1-3.2-0.3-0.9-1.8-2.5-1.5-1.1 1.5 0.5 3.8-0.5 0.5-0.4 0.2-2.8-1.2-1.2 0.3-0.3 0.2-0.8 3.2 0.8 0.1 0.4 1.2-0.5 0.9-0.8 0.7 0.1 1.9 0.4 0.6 0.5 0.2 0.7 4.3-0.5 0.5-3.4 0.9-2.3 1.5z"/>
	<path id="BR-MA" fill-rule="evenodd" class="s0" d="m458.8 129.2v0.3l-2 2.2-0.5 0.1v1.5l2-1.7 0.6-1.2 2.2-1.6 0.8-1.2 1.1-6.3 1.1-0.7 1.1-0.1 1.7-0.9 0.7-0.2 0.4 0.2 0.1 1.6-0.2 0.4-1.4 1.9-3.2 1.8-0.1 0.7 0.8 0.1 0.4-0.8 1.2-0.3 0.2 0.8-0.6 0.5 0.2 0.3 4.3-4.9 0.8 0.3 2.6-0.9 4 0.4-0.4-2.4 0.6-0.3 2.4 0.1 1.8 0.4 2.6 1.1 1.1 0.1 2.1 1.3 1.4 0.1 1.3 1.3 1.9 1.3 2.5 0.6 1.1-0.2 0.6 0.7 0.3 0.1 1.6-0.1 2.5 0.7 0.2-0.9-0.6-0.5 1.6-0.4 0.6 0.1-0.1 0.4-0.5 1.5 0.3 0.7 0.6 0.5-0.4 1.6-1.8 2.2-4.1 4-3.3 0.5-0.8-0.2-2.9 3.4v1.8l-0.9 1.8-1.9 1.9-0.8 2-0.6 0.1-0.8 1.1 0.4 1.9 1.2 0.8 0.4 1.3-0.3 1.5-1.1 2.8 1.5 2.9 0.6 2.9-0.1 2.5-0.2 0.5-4.1 4.4-0.2 2.5 0.1 2.1 0.5 2.3 1.8 2.1 1.6 0.9 0.2 0.5 0.1 0.8-0.4 2.2-0.3 0.5-0.1 1.2-0.5 1.4-1.2 1.3-2.3 0.3-0.6-0.3-0.9 0.1-2.4 0.8-1.5 0.2-2.5-1.9-1-0.2-1.5 0.2-1 0.6-1.1 0.3-0.2-0.3-0.9 0.2-0.5 0.2-1.9 1.9v0.5l-0.6 0.9-2 2-2.4 0.9-2.8 2.5-1.4 0.6h-1l-1.7 1.5-1.1 0.4-2.6 0.3-2.7 0.8-2.1 1.9-1 3-0.4 3-0.6 2.3-1.5 2.7-0.3 0.3-0.3 0.8-0.2 1.5-1.2 2.5-1.7 1.4-0.7 2 0.7 1.9 0.5 3.2 1.7 3.1v0.5l-0.8 1.4-0.1 6.3-1.2 2.5-0.2 1-0.1 2-1.3-0.7-0.6-0.8-0.8-0.5-1-0.3-1.8 0.2-0.7-0.1-1.3-2-1-2.9-2.1-1.6-0.2-1.7 1.7-1.8-0.1-0.5-3.9-2-0.6-1-0.1-1.7-0.7-1.6-1-0.6-2-0.3-0.2-0.4 0.2-0.8 2.6-2.5-0.3-1.3 0.7-2.7 0.7-1.4 0.6-0.6 1.3-0.5 3.4-0.4-0.4-1.3 0.6-3.3v-1.7l-1.8-1.2-4.3 0.9-2.2 1.4-2.2-3.1-0.9-0.8-3-4.2-0.9 0.1-0.9-1.4 0.7-1.2-0.2-0.9-0.2-0.3-1.4-0.3-0.4 0.3-1.9-1.3 0.2-0.8 1.7-0.6 1.8-2.1 0.2-1.5-0.3-1 0.3-2.4 1.8-6.2v-0.4l-0.7-1.1-0.2-1.1 0.2-3.7-0.6-1.5-0.5-3.5-0.8-1.1-3.4-1.4h-1.2l-0.3-0.3-0.1-1.1-0.6-0.7-1.7-0.2-1 0.5-1.4-0.1-2.8-1.5-0.8-0.1-2 0.5-2.6 1.9-0.5 0.6h-0.5l14.7-11.9 2.3 0.3 1.2-1 1.5-2.1 0.5-1.2 1.5-1.2 0.6-2.8 1.2-0.5 2.4-2.3 0.5-1.2 0.3-1.9 1.6-4.7 1.9-1.6 1.5-1.7 0.8-1.5 0.5-1.2-0.2-1.9 0.8-0.8-1-1.6 3.6-3-0.1-1.7 0.5-2.4 1.8-1.5 0.3-0.7 0.9-3.1 0.1-1.6-0.4-0.5-1 0.2-0.3-0.5 0.1-0.7 1.1-0.1 0.6-0.7 0.7-4.4-0.2-1.4 0.5-1 0.8-0.5h0.6l0.2-0.2v-0.6l0.3-0.7 0.6-0.6 1.3 1 0.5 1.9 1.2 0.1 0.7-1.4 0.6 3h1l0.3-0.5 0.1-0.9 0.8-0.1 1.7 0.6 0.5 0.6-1.4 1.7 0.7 0.7v0.6l1.2-2 0.5-1.6h0.4l0.4 1v0.6l-0.8 0.9-0.3 1 0.1 2.7 0.2 0.4 0.5 0.1 0.6-0.2 1-0.9-0.5-1 0.1-0.6 1.3-1.4 1.1-0.3 2.1 0.6 1.5-1.1 0.1 0.9-0.4 0.2-1.1 1.6 0.6 0.6 0.1-0.4 1.2-0.6 0.6 0.8-0.1 1.2 1.6 1.7 0.9-0.4 1.5 0.7 0.8 2.4-0.1 0.9-2.2 2.7-0.4 0.9 0.1 0.7 0.6-1 1.8-1.7h0.8l0.9 0.8 0.5 1.9-0.3 1.2-0.9 0.2-1.1 0.9-1.1 1.5v0.7l-1.1 2.4-0.6 3.5 0.2 0.4zm0.5 0.4l-0.1-0.8 0.6-1.5-0.5-1.1 0.2-0.6 0.9-1.3 0.5-0.2 0.1 2.4-0.2 1.3-0.8 0.6zm-6.3-25.7l-0.5-0.5-0.1-0.6 0.8-1.1 0.9-0.1 0.7 0.5 0.1 0.3-0.2 0.4zm3.5 4.1l-0.3-0.3v-0.5l1.1-0.9 0.5 0.1 0.5 0.8-0.2 0.7-0.4-0.2zm-14.1-4.8l-0.2-0.1 0.9-3.6 0.3 0.1 0.1 0.3-0.5 3z"/>
	<path id="BR-MG" class="s0" d="m527.8 365.6l-0.9-0.6-2.6-0.8-1.6 0.1-1 0.3-0.9 0.6-2.2 0.3-1.3-0.1 1.7 2.3-0.1 0.8-1.1-0.1-1-0.8-0.3 0.1-2.2 1.3-1.2 1.9 0.3 0.7 1.3 0.7 0.6 0.6-0.1 1.9-0.3 1.6 0.2 0.4 1.4 0.3 0.1 1.8-0.3 0.4-0.9 0.2h-1l-0.8-0.4-1.5 0.1-0.4 0.6 0.5 0.7 0.7 0.3 0.5-0.3 0.5 0.1 1.1 1.2 1.3 2.9 0.3 2.4-0.6 3-1.7 2-1.2 0.9-0.3 0.4-0.2 1.8-0.9 2.3-1.1 1.2-1 3.3-0.5 0.3h-5.2l-1.7 2-0.2 0.4 0.6 3.2-0.6 1.3-0.4 2.3 0.3 0.1-2.5 2.4-1.3 0.3-0.5 0.5 0.7 0.7-2.4 6-1.9 3.7v0.8l1.4 0.1 0.3 0.6-0.2 0.5-2.6 1-9.5 4.5-1.3 0.2v-0.4l-0.5-0.2-2.5-0.3-0.6 0.1-1.6 0.9-1.3 0.2-3.2 0.1-0.3-0.3h-0.5l-4.1 1.8-1.1 0.8-1.7 0.8-0.5-0.3-2.6 0.1-2.9 1.4-2.4 0.7-0.7 0.5-1.3 0.7-2.2 0.3-1.9 1-1.2 1.2-1.8 0.7-2.4 0.2h-2.3v-0.5l0.3-0.5-0.1-0.4-1.2 0.4-0.1 2.3 0.2 0.2-0.1 0.8-0.7 1-1.3 0.3-0.6-0.4-3.6 1-0.2-0.5-2 0.2-1.1-0.2-2-3.3 1.2-0.8-0.5-1.7-1.8-0.8-1.8-1.2-0.7-1.6 0.5-1.6 0.2-3.4-0.3-3 1.9-2.7 0.7-2.2v-1.3l-0.2-0.3-3.7-1.3h-1l-0.3 0.4-0.8 0.3h-1.6l0.1-0.8-0.9-2-1.3-1.8-0.3-2.2-0.3-0.6-0.8-0.8 0.2-1.9 1.5-2v-0.6l-0.4-1.6-1.8-1.2-0.6-0.6 0.3-2.3 0.5-1.1-0.2-1-3.2-3.3-1.3 0.2-0.9 0.7-1.6-0.8-2.4 0.1-0.3 0.6 0.2 0.5-0.5 1-2.7 0.7-1.2-0.5-1.5-1.4-1 1.2-8.2 0.7-0.4 0.5-0.5 1.2 0.3 2.5-0.4 0.5-1.2-0.6v-2.7l-0.3-1-0.3-0.4h-0.6l-0.3 0.1-0.4 1.2-0.6 0.9-0.6 0.3h-0.6l-1.2-2.1-0.3-1.4 0.1-0.9-1.7-0.8-2.2-1.4-2 0.6-1.6-0.3-1.6 0.4-4.3-1h-2.6l-1.7-1.6-0.8-0.1-1.5 0.6-1.4 1.7-1.9 0.3-2.2 1.1-1.2 1.2 0.3-2.6-0.6-3.3 1-4.1 0.6-0.3 0.9 0.5 0.3-0.3v-0.3l-0.5-0.6 0.5-1.9 1.7-2.1 0.9-0.7 0.5-0.2 0.8 0.2 0.8-0.3 0.9-1.3-0.1-1 1.2-2.5 1.4-2.1 2.3-0.5 2.4-1 3.8 0.7 3.1-1.7 1.6 0.3 1.3 1.4h0.3l2.9-2.9 4.1-2.6 2.1 0.9 3.8-0.2 1.5 0.3h1.7l0.6-0.1 0.6-0.5 4.3 1.9 0.7 0.7 4.9-2.7 0.5-1.1 0.9-0.9 1.1-0.2 3.1-2.1-1.2-3.4 0.5-1.9 0.8-0.9 0.1-0.7-0.2-1-0.4-0.7-1.6-0.5-0.9 0.4-1.1-1.1 0.4-2.1 3.3-3 2.3-2.7v-0.6l-1.7-4.6-1.4-1-0.8-0.4-0.9-1.2 0.4-1.4 1.1-1.3 0.7-1.6-0.4-1.5 0.6-1.6 1.2-0.1 2.3-1.5 3.4-0.9 0.5-0.5-0.7-4.3-0.5-0.2-0.4-0.6-0.1-1.9 0.8-0.7 0.5-0.9-0.4-1.2-0.8-0.1 0.8-3.2 0.3-0.2 1.2-0.3 2.8 1.2 0.4-0.2 0.5-0.5-0.5-3.8 1.1-1.5 2.5 1.5 0.9 1.8 3.2 0.3 1-1 0.5 2.4-1.4 3.5 0.4 0.2 1.3-0.9 0.7-1 0.7-0.2 2.2 0.4 1-0.7 1.8-2.6 1 0.1 1.5-0.5 1.8-1.5 0.9-1.2 2-0.4 3.4-1.9 0.7-1.1 4.2-3 3.8-1.6 1.8 0.1 1.2 0.5h2.2l2.3 0.5 0.9 0.5-1.3 2.7-0.2 0.9 0.3 1.5 0.6 0.5 5.3 1.5 0.7-0.2 0.8-1.1 1.8-0.9 1.8-0.3 2.7 0.8 1.1 0.5 4.4 3.7 1-0.2 2.1 1.6 2.6 1.2 0.9 0.3 0.5-0.3 1.5 1.3 4.4-1.2 0.4 0.1 6.5 6.2 0.5 4 0.5-0.2 2.7 0.4 1.4-0.5 1.3-1 2 0.2 2.8 0.6 2.2 1 2.2 0.6h2.1l2.9 2.5 0.7 0.4h0.9l0.8 1.1 0.4 1.1-1.5 3.1-4.9 4.2-0.2 2.7 0.6 1v0.4l-1.1 0.7-2.4-0.2-0.9 0.9-0.8 3.3-0.5 4.4 0.2 0.2 0.4-0.2 0.2-0.4 0.6-0.3 0.6 1.3-0.2 1.5 0.1 0.5 4.2 3 0.5 1.1v0.5l-0.7 1.4z"/>
	<path id="BR-MS" class="s0" d="m359.2 400.1l-0.4 2.4-0.3 0.4-1.5 0.8-1.3 0.1-0.5 0.2-1.2 1-2 2.7-0.7 0.6-1 0.3-0.6 1.7-0.2 2.9-2.6 3.7-0.9 0.5-0.3 0.4 0.3 1.9v1l-1.2 2.3-2 2.3 0.3 0.8-0.3 1.2-1.4 1.1-0.4 1.2-1.7 1.7-1.3 2.4-2 1.9-7.5 4.5-1.3 1.1-0.7 1.6-0.9 1.1-5.4 2.2-1.1 0.8-0.9 2.4v1.1l-1.4 3.6-0.7 0.7-1.7 1-1.1 0.3-0.3 0.3-1.6 8-0.3 0.8-2.4 1.5-2.6-2.3-3.4-1.9-4 2-0.6 0.7-1.7 0.5-2.6 0.5-2.3-0.5-1.1-0.6-0.4-4.3-0.3-0.7-0.9-1-0.3-2.4 0.5-1.4-0.6-0.8-0.1-0.4v-2.9l-0.9-1.9-0.6-2.8v-0.7l0.6-1.4v-1.6l-1.6-1.1-0.4-0.8-0.1-2.1-1.7-1.8-2.2-0.3-1.5 0.3-1.8-0.3-2.5-1.9-0.5-1.5-1.6 0.3-2.1 2.7-1-0.6-1.7 0.8-1.1 0.2-1.8-0.7-2.5-0.5-3.5 0.3-3.6-0.8-0.5-0.9-2-0.1-0.9 0.5-2.5-0.9 0.9-7.2-0.4-2.4 0.6-1.4 1-1.5 0.6-6-0.7-2.3-0.1-1.8-0.7-0.9-0.4-0.1-0.5 0.6-0.7-3.2-0.8-1.9-1.2-2-0.3-1.9 4-2.3 0.8-0.8-4.2-3.9 5.3-11.4 1.2-0.1-0.3-2.1-0.8-0.1 3.3-10.4 0.6-1.1-3.1-5.9 0.1-1.9 0.7 0.2 1 1.1 2.1 1.5 5.7-1.9 2-2 2-3 0.1-1.2 1.4-1.4h2.6l1.6-0.2 0.7 0.3 1.7-0.5 1.4-1.2 2-0.5 1.2 0.2 0.8 1.1 2.8 1.3 2.6 0.5 0.7 0.3 0.2 0.9 0.8 1 3 1.2 1.3 1.1 1.2 0.5 4.6-0.6 1.2-0.8 0.5-0.8 1.4-0.7 2.5 0.1 1.6 1.1 0.3 1.3 0.2 0.3h1l2.1-0.9 1 0.1 5.7-6 1.3-0.1-1.2 6.6-1.8 0.7-1.7 2.8-0.2 0.5 0.2 0.5 1.3 0.1 1.7 1.3 4.6 0.2 0.6-0.5 2.7-0.1 0.8 0.1 1.2 0.5 1.6-0.3 0.1 1.8-0.2 2.6 0.2 1.1 0.3 0.4 0.7 0.2 1.1-0.7 2.2 0.9 0.1 0.4-1.3 1.8-0.6 1.2-0.2 0.8 0.1 0.3 3.8 0.7 2.8-0.1 2.7 1.7 1.1 0.1 1.5 0.7 0.6 0.6 3.1 1.6 0.7 0.9 3.3 1.3h1.5l1.9 0.5 1.7 1.5 3.1 0.6 2.7 2.3 0.2 0.4-0.6 0.3-1 4.1 0.6 3.3z"/>
	<path id="BR-MT" class="s0" d="m207.2 296.3l1.5-1.4 4.1-2.6 0.5-2.4 1.5-3.8 0.9-1.1 1.6-0.5 0.5-0.4 0.5-0.9 0.6-2.2 1.6-2 0.6-2.3v-1.7l-0.5-1.5v-2l-1.5-3.4-0.9 0.1-0.6-0.5-0.4-3.3 0.1-1.3 1.4-1.1 1.4-1.7 0.1-0.8-1.4-3.6-1-0.4-1.2-0.1-3.5 0.1-1.2-1.1 0.3-0.6-17.2-0.1 0.9-9-1.5-2.7-0.3-1.8 0.1-0.8 1-3.5-0.4-1.9 0.9-1.7-0.8-2.3-0.2-1.3-0.2-0.7-0.8-0.4-0.1-0.4 1.3-5 0.8-1.4-0.6-1.2-1.4-1 47.8-0.3 1.3-0.7 1.1-5.3 1.4-4.2-0.4-1.9-0.7-1.4-0.1-0.8 0.4-0.9 0.9-0.6 1.2-1.9 0.2-1-0.3-0.8 0.1-0.8 0.2-0.6 1.1-1.2 1.2 1.1 2.5 4.1 0.4 1.7 1.3 4 1.4 1.9 0.7 1.6-0.2 2.5 0.5 2.4 0.7 2.2 1.5 1.1 3 2.7 3.4 1.7 0.2 1v1.1l0.2 0.5 1 0.4 0.8-0.2 1.6 0.4 0.6 0.8 0.2 1 0.3 0.4 1.4-0.5 3.7 1.5 34 2.4 63 3.5-0.7 1-0.5 1.9-1.1 1.3-0.5 3.1-0.4 0.9-0.4 0.2-1.9 5.3-0.5 3-0.1 2.9-1.9 6 0.1 0.9 1.4 1.3-0.2 0.9-0.8 0.9v0.5l1.1 2.2-0.5 3.3v1.6l0.5 0.6 0.5 3-0.8 2.8 1 3.3 1 0.6h0.8v0.6l-0.2 1.1-1 0.9-0.3 0.9 0.1 2.7-0.4 1.1-2 3.2-1 2.6-1.2 0.8 0.1 5.1-1.6 3.1-0.6 2.8 0.5 1.1v0.8l-1.2 2.9-0.8 2.9-1.4 1.4-1.2 0.8-1.2-0.7-1.1 0.3-1.6 1-2 1.9-0.3 0.7-0.7 4.1-0.7 1-2 4.2-0.3 0.3-2.7 0.8-2.7 0.2-1.4 2.6-1.7 1-0.1 1.5-0.8 1.4-1.3 1.1-0.5 1-0.3 1.9-1.3 2-1.9 1.8-2 0.9-0.7 0.7-0.4 2.9-2.5 3.9-0.4 3.4 0.1 0.7 1.4 2.2 0.2 3.4 1 2.2-1.6 0.3-1.2-0.5-0.8-0.1-2.7 0.1-0.6 0.5-4.6-0.2-1.7-1.3-1.3-0.1-0.2-0.5 0.2-0.5 1.7-2.8 1.8-0.7 1.2-6.6-1.3 0.1-5.7 6-1-0.1-2.1 0.9h-1l-0.2-0.3-0.3-1.3-1.6-1.1-2.5-0.1-1.4 0.7-0.5 0.8-1.2 0.8-4.6 0.6-1.2-0.5-1.3-1.1-3-1.2-0.8-1-0.2-0.9-0.7-0.3-2.6-0.5-2.8-1.3-0.8-1.1-1.2-0.2-2 0.5-1.4 1.2-1.7 0.5-0.7-0.3-1.6 0.2h-2.6l-1.4 1.4-0.1 1.2-2 3-2 2-5.7 1.9-2.1-1.5-1-1.1-0.7-0.2-0.7-0.7-0.3-0.8 0.5-0.7-2.4-2.1-1.3 0.6h-0.5l-1.2-0.7-0.4-0.7-2-1.4-1.9-0.8-0.3-0.3-0.3-1.1-0.3-3-0.6-1.7-0.2-3.7 0.9-1.6 1.2-1.1 0.3-1.8-0.1-1.9-0.9 0.1-0.4 0.6-0.4 0.1-26.9-1-1-12.7-5.4-6.1 4.9-0.1-0.3-7.5-2.7-5.4-0.5-1.9 0.3-1.1 0.6-0.5 0.6-1.3-1.4-2.9-3.1-1.1z"/>
	<path id="BR-PA" fill-rule="evenodd" class="s0" d="m371.3 235.5l-63-3.5-34-2.4-3.7-1.5-1.4 0.5-0.3-0.3-0.2-1.1-0.6-0.8-1.6-0.4-0.8 0.2-1-0.4-0.2-0.5v-1.1l-0.2-1-3.4-1.7-3-2.7-1.5-1.1-0.7-2.2-0.5-2.4 0.2-2.5-0.8-1.6-1.3-1.9-1.4-4-0.3-1.7-2.5-4.1-1.2-1.1-0.5-0.5-0.2-2-0.6-1.3-1.6-1.5-1.1-0.6-0.4-0.6-0.8-2.3v-1.1l0.6-1 1.5-1.1 0.7-1.3 29.9-64.3-1.8-1.7 0.2-0.7-0.2-0.5-1.4 0.3-0.9 0.6-1.8-0.7-1.1-2.2-2.7-1.5-1.3-1.3-0.1-0.6-1.3-0.8-1.4-0.2-2.2-0.6-2.4-1.3-1.9-0.7-1.3-1.1-0.7-0.9-4.5-2.5-4.7-3.8-0.3-0.4v-1l-0.6-1.8-1.8-1.2-0.7 0.2-0.4-0.2-1.8-2 0.1-2.1 0.3-0.7-0.2-0.4-1.7-0.9-0.2-0.7-0.2-2.2 0.4-1.5-0.4-4.8-1.5-17 0.7 0.3 0.4 0.6v0.5l0.5 0.4 0.9 0.3 1.4-0.8 0.4-0.8 2.7 0.3 0.8-1.1-0.5-1.8 1.8-0.4 1.4-1.6 2.6 1 1.9 0.1 0.6-1.6 3.3-1.6 2 0.4 1.1-0.1 0.5-0.3 1.2-1.4 0.4-1.4 1.5-1.1 0.8-0.1 0.7 0.4 2.1-1.1 0.4 0.1 0.4 1 0.7 0.4 2 0.5 1.6 0.3 0.6-0.6 1.7-0.4 0.8 0.3 0.8-0.1 0.8-0.3 2.3 0.3 4.6 1.4 1-0.2 1-0.8v-2.3l-2.1-2.5-1.2-0.6 0.5-1.7 1.3-1.5 0.2-1.1 0.4-0.1 0.7 0.1 0.8 0.8 2.3 1.1 11.7-2.3 1.5 1.7h1.1l0.4-0.3 0.6 0.6 0.4 2.3-0.6 1.3-0.3 4.6 0.3 1.4 0.3 0.5 1.1 0.1 1.1-0.3 3.4 0.3 1.3 0.5 1.9 1.1 0.7 0.8 0.5 1.3 1.2 0.1 1.1 0.8 0.8 1 0.9 0.3 1.3-0.2 0.4-0.4 0.9-0.1 2.8 2.6h0.7l0.5 1.2-0.7 0.2-0.2 0.7 0.8 2.9 2 2.2 2.6 0.7 0.2 0.4-0.5 3.1 0.2 2.1 0.7 1.5 0.6 0.6 0.6 1.8-0.1 1.6 1.5 3.5 0.8 0.2 0.8-0.4 2.9 3.3-0.1 2.4 0.4 0.9 1 0.2 0.3 0.5 0.3 1.6-0.2 0.7 0.1 1.3 1.9 1.4 0.4 1.5 1.5 1 2.8 0.7 1.3-0.1 0.7-0.4 1 0.1-0.6 0.7 0.3 1.6-0.1 0.5-1.3 1.1-1.4 0.2-0.5-0.2-0.9-0.8-0.6-0.1-3.4 1.6-0.4 0.5-1.6 0.7h-0.6l-1.5 0.6v0.6l6.5-1.1 0.8 0.7 0.2 0.4v0.7l-0.7 0.5 0.3 0.4 0.7-0.2 0.8-1h1.1l0.5-0.3 0.6 0.1 1.1-0.4 1.1-0.6 3.3-2.3 1.5-0.4 1.8-0.8 3.2-1.8 0.5-1 0.7-0.5 2.1-1.1 0.6-0.7-0.2-0.6 0.2-0.5 1.1-0.2h1.1l0.4 0.2 0.4 3.8-0.5 2.6 0.3 1.6 0.8 1.6 1.3 1.4 0.3 1.6-0.1 0.5-1.8 1.8-0.5 0.2-0.9-0.6-1.8-0.5-1.2-0.3-1 0.2-2.1-1.1-0.3-1.1-0.8-0.5-2.3 3.8-0.6 2.4 0.6 2.9 0.5 0.7 0.9 0.6-1-1.2-0.4-2.6 0.1-0.6 2.6-4.2 2.3 1.2 0.1 0.4 2.5 2.5-0.2 2-0.7 0.6 0.4 2.3 0.5 1.1 1.1 0.8 0.7 0.1 0.6 0.5-0.4-0.6-0.8-0.3-1.2-1-0.2-0.7 0.4-4.2 0.8-1.2 1.4 0.8 0.8 1.2v0.7l1.2 0.9 0.2-0.3-1-1.2-0.9-2.1v-0.5l2.2-2.3 1.7 0.1 1.9 0.6 0.3 0.6-0.6 0.6 0.3 0.3h0.5l1.1-0.2 1.3-0.9 4.1-0.9 0.7 0.2 1.8 1 3.2-0.4 1-0.4 1-1 1-0.6 1.8-0.5h0.7l0.1 0.8-2 4-0.3 1.5-0.4 1.1-0.9 1v0.9l0.6 1.4-0.3 2.5 0.9-1.2v-1.4l1.5-3 1.1-3.2 1.2-1.6 0.2-0.2 0.8-0.1 0.6-0.3 0.5-0.1 1.3-0.2 0.9-1.3 1.5-1.7 1.3-2.3 0.6-0.4 0.7 0.5 0.7-0.5 1.6 2.4 1.2 0.5-0.1-0.7-0.3-0.7 0.6-1.1 3.5-0.5-1-0.3-3.5 0.5-0.3-0.2 0.2-2.5 0.6-0.3 0.6 0.4 1 0.1 1.1-3.1-0.7-1.4 0.1-0.6 1.1-1.8 2.9-2.5 0.3-0.1 1.1 1.1 3-2.1h0.4l0.4 0.4 0.1 0.6-0.3 0.7 1.1-0.2 0.8-0.6 0.4-0.8 0.6-0.1 0.3 0.1 0.7 1.4 1.3 1.2 0.2-0.6-0.1-0.3-0.9-0.5-0.2-0.3-0.1-1.2 0.2-0.4 0.4-0.2 2.3 0.2 1.2 0.7 0.6 1 1.6 0.7 1.7-0.8 0.5 2.2-0.5 0.3v0.6l0.9-0.6 1.1-2.3 0.4 0.2-0.2 1.4 0.4 0.4 2.5-0.3 0.5 0.7 0.4 1.7-0.6 0.9 0.9-0.5 0.2 0.4 1.9 0.1 3.6-1.2-0.4 1.6-0.7 1.8 1.5-0.5 0.6-0.6 0.6 1.6-0.8 0.5-0.5 1 0.2 1.4-0.7 4.4-0.6 0.7-1.1 0.1-0.1 0.7 0.3 0.5 1-0.2 0.4 0.5-0.1 1.6-0.9 3.1-0.3 0.7-1.8 1.5-0.5 2.4 0.2 1.7-3.7 3 1 1.6-0.8 0.8 0.2 1.9-0.4 1.2-0.9 1.5-1.4 1.7-2 1.6-1.6 4.7-0.3 1.9-0.5 1.2-2.4 2.3-1.1 0.5-0.6 2.8-1.6 1.2-0.4 1.2-1.6 2.1-1.1 1-2.4-0.3-14.7 11.9h0.5l2.3 0.8 1.8-0.2 1.3 0.1 1.1 1.7 0.3 0.3 0.9 0.1 1.3 1.2-0.1 0.6-0.3 0.7-0.8 0.4h-0.9l-0.3 0.3 0.1 1.4 1 1.4-0.9 2.7-0.7 0.5-1.4 0.5-0.3 0.4 0.3 1.2-0.2 1.4-1.3 0.1-1.5 1.4-0.8 1.2 0.1 1.5-0.2 0.5-2.5 1.2-3.4 1.2-2.5 1.8-0.2 0.3 0.4 2.2 0.1 2.7-1.3 2.1-1.4 1.6-0.2 0.6 0.2 0.9 0.6 1 1.7 1.7 0.7 0.3 0.2 0.3-0.7 4.1-1.7 5.1-1.1 0.8-1.7 3.3-0.2 0.9-0.9 1.6-0.8 0.8-1 0.2-1.4 0.9-1 1.9-1.2 1.7-1.2 1.1-1.2 1.6-1.1 4.4zm21.2-130.3l-4.6 2-3.4 0.5-2-0.3-0.6 1.1-1.9 1.2-0.7-0.6-0.6-1.5-0.2 0.3 0.4 1.2-0.3 0.8-0.8 0.4-3.7-1.6-0.8 0.7-4.2 1.3-3.2-0.6-0.8-0.6-0.3-1.9-0.2-0.4-1.1-1-1.1-1.6-0.2-1.8 0.5-2.7 0.7-0.4 1.7 0.3 1-0.7v-0.6l-1.3 0.5-1.2-0.2-0.9-0.7-0.2-1 0.3-5.1 0.8-0.8 0.3 0.8 1.8 0.6 0.5-0.1-0.4-0.4-1.3-0.2-0.9-2.2 0.4-1.7 0.8-1.9 1.4-1.4 0.9-0.5 1.4-0.5 1.3-0.1 3.5 0.5 7.2 1.7 3.7-0.4 0.1-0.3 1.1-0.6 2.2-0.4 2.9 0.3 2.8 0.8 6.4 0.9 0.7 0.4-0.1 1.3-0.7 0.7-0.7 1.5-0.3 2.6-0.9 3.3-1.3 0.7-0.3 0.7 0.2 1.2-2 2.6-1.4 3.5zm-47.2-0.2l-0.7-0.5 1.1-2.2-0.1-1.8 0.2-0.2 2.4-0.5 0.9-0.9 0.1-0.5-0.2-2.3 0.9-2.6 1.2-1.5 2.3-1.5 2.9-0.2 0.7 2.4-1.1 2.2-0.8 3-1.1 0.7-1.4 2-0.7 0.7-5 3.4zm28.5-22.9l-1-0.3-2.5 0.1-0.8-0.2-0.3-0.2-0.3-1.1v-1.3l1.5-0.4 1.9 0.1 2.2-1.3 4.8-0.6 0.7 0.2 0.7 0.7-0.2 1-2.5 1.4-1.8 2.5-1.1 0.5zm4.8 0l1.8-1.2h2l1.7 0.6 0.5 1 0.1 0.7-0.9 0.7-2.9 0.3-1.1 0.3-2.3-0.9-0.2-0.5zm-17 4.4l-0.5-0.3-0.6 0.1-1.5-0.7 0.2-1.2 0.6-0.9 1.9-0.4 2.4-0.9 1.3 0.1 0.8 0.7 0.1 0.1-1.9 1.6-1.1 0.3zm9.4-9.6l-0.8-0.3-0.2-1.7 0.2-0.6 1.2-1.3 2.4-0.9 0.3 0.1 0.5 0.7v0.9l-1.9 1.9zm-13.9 20.3l-0.1-0.4 0.2-1 1-2.8 2.6-1.7 0.7-0.3 0.7 0.2-0.1 1.8-1.6 0.4-1.6 2.2zm10.9-17.6l-1.2-0.3-0.3-0.5 0.9-0.9 0.7-4 0.9-1.2 0.3 0.1 0.1 0.4-0.1 2.4 0.6 1.9-0.3 0.9-1 0.4zm-14.8 10.2l-0.3-0.2 0.1-0.6 0.6-0.4 1.2-1.7 0.7-1.5 0.8-0.7 1.4-0.5-0.2 1.5-0.4 1-1.7 1.6zm13.9-7l-0.6-0.2-0.9-0.7-0.9-1.6-0.1-0.4 0.2-0.3 0.8-0.6 1.9 0.9 0.3 0.4 0.2 2.1zm-5.4 30.6l-0.6-0.2-0.9-0.5-0.7 0.5-0.7-0.3-1.7-1.7v-0.6l1.3-0.1 3 1.4zm-21.1-5.6v-1l-0.2-0.3 0.6-1 2.4-0.9 0.8 0.4 0.8 0.9-0.3 0.3-1 0.5-2.5 0.4zm12.7-6.7h-0.2v-0.4l0.5-0.9 1.8-1.6 0.5-1.3v-1.3l0.2-0.3 0.4 0.5v1.5l-0.9 2.7-0.6 0.7zm6.3-9.9l1.6-3 0.9-0.2 0.7 0.2 0.3 0.8-0.6 0.8zm31.4 18.9l-0.8-0.3-0.4-1.1 1.1-1.7 1-0.3 0.2 0.1v0.7l-0.7 2.2zm-33.5-19.4l-0.6-0.2 0.4-2.1 1.3-1.8 0.2 0.1 1.3 0.8v0.3l-1.5 0.6zm2.2 5.1h0.7l-0.4 0.4-0.9 0.4-0.1 1.1-0.8 0.7-1.7 0.8-0.2-0.2 0.3-0.8 0.5-0.6 1.7-1.7zm-22.6 10.2l-0.5-0.2-0.1-0.3 0.4-0.4 3.6-1.6 0.5 0.7v0.2l-1.4 0.7zm63.6-4.8l-1.1-0.2-0.8-0.7 0.9-1.3h1.3l0.2 1.2-0.1 0.6zm-37.2-18.9l-2.4 0.7h-0.6l-0.2-0.2 1.1-1.1 1-0.5 1 0.2 0.5 0.3 0.1 0.3-0.1 0.2zm-5.3 8.6l-0.1-0.8 0.3-0.5 2.5-1.5-0.9 2-0.9 0.7zm2.2 4.5l-0.5-0.1v-0.2l0.7-1.5h1.2l-0.1 1.3zm28.1 15.9l-0.3-0.3 0.9-1.6 0.7-0.4 0.2 0.8 0.5 0.3-0.3 0.6-0.4 0.3-0.6-0.2zm-26.7-23.3l-0.9-0.1v-0.2l2.4-1.8v1l-0.2 0.6-0.2 0.3zm67.4 10.3l-0.4-0.6 0.2-0.7 1.1-0.9 0.2 0.1 0.2 1.8z"/>
	<path id="BR-PB" class="s0" d="m610.7 199.4l-2.5-2-0.8-0.3-2.7-0.2-2.3 1.1-1.5 1.2-0.4 1.8-1.9 1.1-2 0.4h-1.2v0.6l-0.8 0.5-2.1 0.3-3.9-0.2-1.6 0.8-0.6 0.7-1.8 0.1-0.9 0.7-0.5 0.7 0.4 0.8v0.5l-0.4 0.5-1.8 1.5-1.4 0.2-1.6 0.8-1.6-0.8-1-0.9-0.3-2.3 0.2-0.5-0.1-0.3-1.2-0.3-0.4 0.3-1.5 0.3v-0.5l2.5-2.6 0.2-0.5-0.7-1.8-0.1-0.5 0.4-0.8 3-1 0.1-0.3-0.5-1.4-3.5-2-1.5 0.5-2.2 1.2-0.9 1.5-1.5 0.9-1 0.3-2.7 1.9-1.6 1.6-1.6 0.3-2.6 0.9-0.8-0.3 0.1-0.7-0.7-1.2-0.3-0.1-1 0.7-1.5 0.3-1-0.3-1.4-1.9-0.4-0.1-0.1-0.2 1.1-1.2 1.7-3.4-0.4-1.2-0.7-0.1-1.2-0.9v-1.7l-0.3-0.7-0.6-0.3-0.3-0.4 0.2-0.9 0.1-0.4 1.1-0.6 0.7-1.3-0.5-1.3 1-3 0.8-1.2 0.1-0.5 0.6-0.5 1.9 1.6 0.9 0.5 2.9 0.6 1.1-1.2 3.3-1.6 0.8-0.7 0.1-1.1 0.4-0.9 3.2-1.2 1.4-0.1 3.3-1.1 0.6 0.1 0.5 0.4 0.1 1.2-3 3.2-0.5 1-0.4 1.7-0.4 0.4-0.8 0.3-0.2 0.3-0.1 1.7 3.5 0.5 0.3 0.2 0.4 1.4 0.2 0.3 3.2-1.3 1.8-0.1 1.9 0.3 0.9 1.2-0.5 1.5 0.8 0.8 2.4-1 0.5-0.7 0.5-1.2-0.5-1-0.1-1.4 0.5-0.6 1 0.4-0.6-1.6-0.7-0.8 0.3-1.4 1.9-1.4h1.3l0.5 0.4-0.1 1 0.6 0.4 3.4 0.4 0.5 0.4 5.9-0.4 2.1 0.3 2.5 1.1 1-0.4 3.5 0.2 1-0.2v2.4l1.5 4.4 0.1 0.6-0.2 0.9-0.4 0.5v0.9l0.6-0.8 0.5-1.5v2l0.6 1-0.3 5.2-0.4 0.6z"/>
	<path id="BR-PE" class="s0" d="m558.5 227.5l-1.2-3.1v-0.9l-2.1-0.9-0.5-0.4-0.4-0.8 0.6-0.9-0.1-0.6-0.4-0.3h-1l-0.4 0.4-0.3 1.8-0.5 0.1-0.3-0.2-0.6-1.7-1.6-1.1-3-0.4-2.3-0.8-1.4-0.8-0.8-1.5-1.5-0.5-0.6 0.1-2.5 1.5-1.7 0.4-0.7 2-2.3 0.5-0.2 0.2 0.2 1.4-0.2 0.6-1.1 1.2-2.4 1.1-0.6-0.1-0.8-0.5-0.7 0.1-0.5 0.9-0.8 3.6-2.9 0.9-0.8 0.9-0.9 0.2-1.9-0.6 0.9-1.7-0.2-2-2.2-0.9-0.8-1.9 0.1-2.8-0.4-0.5-2.8-1.4-2.2-0.2-1.2 0.2-0.9-0.4 2.6-1.3 2-1.7 0.5-0.8 2.3-1.4 1-0.2 3.9-3.9 0.7-1.8 0.1-2.2-0.3-0.6-1.6-1.6v-2.2l-0.6-1.1v-0.9l0.1-0.5 0.5-0.3 1.8-0.2 4.9 0.2 0.9 0.3 1.6-0.2 2.2-0.8 1.3-0.1 3.1 0.4 2.8 1.9 1.8 0.8 0.5 1 1 1.1 1.4 0.5 0.7 0.5 0.7 1.7 1.6-0.1 1.6-2.3 1-0.8 1.6-0.5 0.4 0.1 1.4 1.9 1 0.3 1.5-0.3 1-0.7 0.3 0.1 0.7 1.2-0.1 0.7 0.8 0.3 2.6-0.9 1.6-0.3 1.6-1.6 2.7-1.9 1-0.3 1.5-0.9 0.9-1.5 2.2-1.2 1.5-0.5 3.5 2 0.5 1.4-0.1 0.3-3 1-0.4 0.8 0.1 0.5 0.7 1.8-0.2 0.5-2.5 2.6v0.5l1.5-0.3 0.4-0.3 1.2 0.3 0.1 0.3-0.2 0.5 0.3 2.3 1 0.9 1.6 0.8 1.6-0.8 1.4-0.2 1.8-1.5 0.4-0.5v-0.5l-0.4-0.8 0.5-0.7 0.9-0.7 1.8-0.1 0.6-0.7 1.6-0.8 3.9 0.2 2.1-0.3 0.8-0.5v-0.6h1.2l2-0.4 1.9-1.1 0.4-1.8 1.5-1.2 2.3-1.1 2.7 0.2 0.8 0.3 2.5 2 0.9 0.2 0.5 1.3-1.2 1.7-0.2 0.5 0.1 0.5 0.7 0.4 0.2 0.5 0.2 1-1.9 6.4-3.3 9-0.3-0.2-2.9-0.3-1.9-0.8-1.5 0.2-2.5 1.3-2.3-0.9-2 0.3-1.5 1.2-0.1 0.4-2.2 2.3-1.8 1.1h-1.2l-1.8 1.1-1.2 0.1-3.1-0.3-2.5 0.6-2-0.5-1.7-1-1.9-2.1-2.6-2-1.1 0.1-1.6-0.3-1-1.2-0.9 0.6v0.6l-2.4 3.3-2.2 0.8-0.6 1.1z"/>
	<path id="BR-PI" class="s0" d="m506 127.2l1.3 0.1 0.7-0.2 2.2 0.5 1 0.8 0.3 0.6-0.1 0.8-1.1 1.9-1.6 1.9-0.1 1.5 0.2 1.3 1.8 4.7 3.2 6.4 0.4 1.8 1.4 1.6v0.7l-0.8 1.4 0.8 3.8-0.5 1.6 1 2.1 0.6 2.9-0.5 1.6-0.8 0.6 0.9 0.7 0.1 0.4 0.9 8.1-0.2 0.5 0.7 2.6 1.1 5.2 1 2.6 1.3 0.7 2.6 0.4 0.7 1.2v0.7l-1.5 2.2-1.1 3.2 0.1 0.9 0.7 0.7-0.1 1.3-1.8 0.2-0.5 0.3-0.1 0.5v0.9l0.6 1.1v2.2l1.6 1.6 0.3 0.6-0.1 2.2-0.7 1.8-3.9 3.9-1 0.2-2.3 1.4-0.5 0.8-2 1.7-2.6 1.3-0.5 1.2-1.5 2.3-1 0.6-0.8-0.1-2 0.3 0.1 2.4-1.8 1.8h-0.4l-0.6-0.6h-2.1l-0.9 0.9-0.7 0.4-2.8 0.3-1.5 1.4-0.8 1.2-1.7 0.1-1.5 0.6-3 0.2-0.8-0.3-0.2-0.3 0.1-0.7-1.7-0.9-1.3-0.4-1.4 0.5-2.1 0.4-0.3-0.1-0.4-1-1.5-0.4h-2l-3.2 1.6-0.1 1 2.2 4.4 0.2 1.2-0.3 2.5-0.3 0.9-0.7 0.9-2.9 5.1-3 2.4-1.4 0.4-1.4-0.5-1.4-0.2-2.2 0.7-1.2 0.9-0.6 0.9-1.2 0.4-0.7 1.4-0.3 0.2-2.2-0.1-1.8 0.5-4.1-1.9-1.8-2.5-0.5-2.2-0.7-1-1.4-1.3h-2.4l-2.9-0.2v-2l0.3-1 1.2-2.5 0.1-6.3 0.7-1.4 0.1-0.5-1.8-3.1-0.4-3.2-0.7-1.9 0.7-2 1.7-1.4 1.2-2.5 0.1-1.5 0.4-0.8 0.3-0.3 1.4-2.7 0.6-2.3 0.4-3 1-3 2.1-1.9 2.8-0.8 2.6-0.3 1-0.4 1.7-1.5h1.1l1.3-0.5 2.9-2.6 2.3-0.9 2-2 0.7-0.9v-0.5l1.9-1.9 0.5-0.2 0.8-0.2 0.2 0.3 1.2-0.3 1-0.6 1.4-0.2 1 0.2 2.5 1.8 1.6-0.1 2.4-0.8 0.8-0.1 0.7 0.3 2.3-0.3 1.2-1.3 0.5-1.4 0.1-1.2 0.3-0.5 0.4-2.2-0.2-0.8-0.1-0.5-1.6-0.9-1.8-2.1-0.5-2.3-0.1-2.1 0.1-2.5 4.1-4.4 0.2-0.5 0.1-2.5-0.5-3-1.6-2.8 1.1-2.8 0.3-1.5-0.4-1.3-1.2-0.8-0.3-1.9 0.7-1.1 0.7-0.1 0.8-2 1.9-1.9 0.9-1.8-0.1-1.8 2.9-3.4 0.9 0.2 3.3-0.5 4.1-4 1.8-2.2 0.4-1.6-0.7-0.5-0.2-0.7 0.5-1.5 0.7 0.2 1.5 0.8 0.5 0.5-0.1 0.3z"/>
	<path id="BR-PR" class="s0" d="m397 499.7l-5.2-0.1-0.4 0.5-1.7 0.2-0.8-0.1-0.1-0.3-1.5 0.5-1.4 1.5-3.3 2.1-1.5-0.2-1.2-0.6-3.1-2.6-1.1-0.4h-0.7l-2.9 0.7-2.3 0.2h-0.8l-1.4-0.8-1.1 0.2-1.6 0.6-0.6 1.5-0.7 0.8-1.9 1-3.5-0.4-2 1.2-0.7 0.7-0.7 1.6 0.8 3-0.9 0.9h-0.9l-0.7 0.4-0.2 0.5-1.3-1.9-4.3 0.1-3.7-0.4-1.6-1.2-0.2-0.4-1-0.6-4.3-0.4-5.3-1.7-2.3 0.6h-2.7l-2-1.5-0.3-0.5-1.1-0.2h-0.5l-0.7 0.4-3.7-0.1-0.2-1.2-2.5-4.2v-2.5l-1-2.9-3.4-2.4-1.1 1.1-2.1-0.1-1.1 0.5-1.1 0.9-1.4-1.1h-0.9l-0.2-2.2 0.6-1.5 1.1-1.3 1.2-2.2 0.1-0.3-0.5-0.8v-1.2l0.9-3.7 1.3-3-0.3-2.3 1.3-2.4-0.2-1-0.9-0.9-0.3-1.6 0.7-1 0.8-0.6 2.4-1.5 0.3-0.8 1.6-8 0.3-0.3 1.1-0.3 1.7-1 0.7-0.7 1.4-3.6v-1.1l0.9-2.4 1.1-0.8 5.4-2.2 3.3-2.3 3.8 0.6 4-0.1 3.3 0.3 1.2-0.6 0.4-0.6 0.7-0.4 1.2 0.3 1.5 0.8 2.5 0.4 2.6 1.1 1.3 0.2 1.1-0.6h2.6l0.8 1 1.7 0.8 3.5 0.8 0.6 0.6 0.8 1.3h1.7l0.4-0.3 1.7 0.2 0.6 0.5 5.3 0.1 3-0.8 1.1 1.5 3.6 2.9 0.9 1.7v2.8l-0.4 0.5-0.1 0.8 0.3 1.9 1.3 1.5v1.8l-0.4 0.5 1.5 3 1.2 1.2 0.7 0.2 0.5 0.7-0.1 0.9 0.9 2 0.6 0.3 0.3 0.4-0.3 1.1-1.2 2.1 0.3 2 0.6 0.4 1 0.2 2.4-0.1 3.4-0.5 0.5 0.4 1.6-0.2 1.6 0.1 1.6 1.3-0.2 0.4-0.8 0.6-0.7 3.3 0.3 0.8 1.1 0.5 0.6-0.8 1.1-2.8 0.8-0.1 2.1 0.5-0.4 2 0.8 3.3 1.4 0.6 0.1 1.3-1.3 1-0.6 1.5-0.6-0.1 0.3-2 1.4-0.9-1.4 0.3-0.9 0.4h-0.8l-0.4-0.4-0.5-0.1-0.6 0.3-0.3 1 0.6 0.8-0.8 0.9-0.3 0.1-2.4-0.5-0.8-0.5-0.5 0.1-0.2 0.9 0.4 0.3 1.6 0.6 1.4-0.2 2.1 0.6 0.3 0.4-1 0.7-1.5 2.8-1.3 0.8-2.4 0.5-0.2 0.5 3-0.2 0.1 1.2z"/>
	<path id="BR-RJ" fill-rule="evenodd" class="s0" d="m468.6 450.5l-0.1-0.7 0.4-0.3 3.2 0.2 2.6-0.6-2.5-1.5-1.4-0.5-2.8 0.7-1.4 1.6-1 0.3-0.7-0.1-1.4-2.1h-0.5l-0.9 0.4-0.9 1.1-3.2 0.8-0.3 0.9-0.2 1.9 2.2 0.1 1.1 1-1.2 1.1-0.9-0.2-1.4 0.2-0.5-0.3-1.7-1.7v-0.4l1.1-3.5 1.1-1.2 2.3-1 0.5 0.2 2.8-0.4 1.5-0.7 1.6-2.1-0.7-1.7h-1.7l-3.2 0.5-1.7-0.4-1.3-1.5-0.5-1.2-1.3-0.6 0.7-0.4 2.4-0.8 2.9-1.3 2.6-0.2 0.5 0.3 1.7-0.8 1.1-0.8 4.1-1.8h0.5l0.3 0.3 3.2-0.1 1.3-0.2 1.6-0.9 0.6-0.1 2.5 0.3 0.5 0.2v0.5l1.4-0.2 9.5-4.6 2.5-1 0.2-0.5-0.3-0.6-1.4-0.1 0.1-0.8 1.9-3.7 2.3-6-0.7-0.7 0.6-0.5 1.2-0.3 2.5-2.4 2 0.8 0.6 4.7 2.5 1.1 4.4 1.1 3-0.4 1.6 1-0.1 1.3-0.9 1.6-0.3 2.2 1.2 6.7-0.5 0.7-3.1 1.8-6 1.9-2.8 1.7-3.5 3.7-0.1 1.7 0.3 1.2-0.2 1.6-0.7 1.5-1.8 0.5-6.6-0.2-5.8 0.7-2.4-0.5-0.5-0.3v-0.7l1-1.5 0.7-1.4-0.1-0.7-0.8-0.1-2.8 1.1-0.2 0.7 0.3 0.8 1.4 1.2 0.2 0.9-0.6 0.5-1.6 0.6-1.6-0.1-8 1.1zm-5.1 2l-0.7-1 2.1-1.5 1.9 0.9 0.4 0.7-2.5 0.5-0.4-0.3h-0.4z"/>
	<path id="BR-RN" class="s0" d="m609.6 183.2l-1 0.2-3.5-0.2-1 0.4-2.5-1.1-2.1-0.3-5.9 0.4-0.5-0.4-3.4-0.4-0.6-0.4 0.1-1-0.5-0.4h-1.3l-1.9 1.4-0.3 1.4 0.7 0.8 0.6 1.6-1-0.4-0.5 0.6 0.1 1.4 0.5 1-0.5 1.2-0.5 0.7-2.4 1-0.8-0.8 0.5-1.5-0.9-1.2-1.9-0.3-1.8 0.1-3.2 1.3-0.2-0.3-0.4-1.4-0.3-0.2-3.5-0.5 0.1-1.7 0.2-0.3 0.8-0.3 0.4-0.4 0.4-1.7 0.5-1 3-3.2-0.1-1.2-0.5-0.4-0.6-0.1-3.3 1.1-1.4 0.1-3.2 1.2-0.4 0.9-0.1 1.1-0.8 0.7-3.3 1.6-1.1 1.2-2.9-0.6-0.9-0.5-1.9-1.6-0.6 0.5-0.7 0.3-0.6-0.1 0.3-2 1.5-2.2 0.8-0.9 0.5-0.1 0.8 0.5 1-0.2 0.6-1.1 1.4-1.6 1.4-2.4-0.1-0.7 0.6-1.7 0.9-0.6 0.9-1.1 3.3-6.7 2.6-2 4.9-1.6 0.4 0.8 0.9 0.7h3.1l1.2 0.4 1.7 1.8 1.3 0.5 3.4-0.3 2.9 0.5 2.5-0.3 2.3-0.7 4.5 0.9 1.3 0.1 1.9 0.8 1.1 0.8 0.6 1 2.3 4.7 0.5 1.8v0.8l1.5 5.3 0.2 1.7 0.7 0.6 0.9 2.7z"/>
	<path id="BR-RO" class="s0" d="m187.6 291.2l-1.3-1.4-0.4-1.9-1.6-0.5-0.9 0.3-1.8 0.1-4-1.8-0.1-0.4-0.6-0.7-1.3 0.6-2-1.6-1.5-1-0.8-1.5-0.3-1.4-1.1-0.4-1.7 1.2-1.3-0.1-1.4-0.8-0.8-1.3-3.2-1.6-1.9-0.1-1.2 0.5-0.9 0.8-1.4-0.1-0.3-0.3-2.1-0.5-3.1-0.3-0.8-0.4-1.1-1.2-0.3-2-1.6-0.5-1.9-1-0.8-1.7-0.3-0.2-2.7-0.3-0.4-0.3-0.9-3.7-0.8-0.9-0.5 1.1-0.7-0.3-0.3-0.6 0.7-1.5-0.9-1.6-1.3-0.4-1.3-3.4-0.2-1.7 1.6-2.9-0.2-1.7-1.2-1.9-0.7-2.2-0.1-2.3 0.6-0.5 0.4-1.3 1-1.1 0.4-1.5-0.2-1.5-0.5-0.8v-1.6l0.5-1.6-1.2-2.2-1-0.4-1.1 1v0.5l-0.9 1h-0.6l-2.1-1.1-5.2 0.1-5.6 1.8h-1.7l-1.5 0.5-3-1.3 3.3-2.5 1.9-0.6 1.6-1.8 0.1-0.6-0.1-1.3 3.9 0.3 2.9-0.4 0.7 0.4 2.3 2.3h0.4l1.2-0.8 0.1-0.7 0.4-0.5 1.1-0.5 0.8 0.1 1.4-0.4 1.3-1.2 1.8-1 0.4 0.1 0.6 2.2 0.7 0.6 0.7-0.1 2.5-3.2-0.2-1.7 0.5-0.9 1.7-1.2h0.5l0.8 0.6 1.8 0.1 1.2-1.1 2.2-0.4 3.8 0.5-0.2-1.5 0.1-1.8 2.1-1.2 0.8-1.2 0.3-1-0.1-0.4-0.9-0.7v-0.7l1.2-1.6 2.5-0.5 0.2-0.2v-1.2l1.7-0.5 1.4-2.6h10.7l2.2 1.1 0.4 0.5 0.8 1.9 1.4 1.3 2.5 0.9 1.3 3.3 0.4 0.2 1-0.1 0.6 0.2 0.7 2.9 3.2 1.5 0.7-0.2 0.6-1.8 1.9-1.1 1.4 0.3 0.3 0.4v0.7l1.4 1 0.6 1.2-0.8 1.4-1.3 5 0.1 0.4 0.8 0.4 0.2 0.7 0.2 1.3 0.8 2.3-0.9 1.7 0.4 1.9-1 3.5-0.1 0.8 0.3 1.8 1.5 2.7-0.9 9 17.2 0.1-0.3 0.6 1.2 1.1 3.5-0.1 1.2 0.1 1 0.4 1.4 3.6-0.1 0.8-1.4 1.7-1.4 1.1-0.1 1.3 0.4 3.3 0.6 0.5 0.9-0.1 1.5 3.4v2l0.5 1.5v1.7l-0.6 2.3-1.6 2-0.6 2.2-0.5 0.9-0.5 0.4-1.6 0.5-0.9 1.1-1.5 3.8-0.5 2.4-4.1 2.6-1.5 1.4h-0.7l-2.6-1.6-1.3-1.4-7.1 1-1.3-0.5-0.2-0.3-3.4 0.7-0.5-0.2-0.5-1.3z"/>
	<path id="BR-RR" class="s0" d="m234.9 61.7l1.6 16.9h-18.5v0.6l-2.3 3.3-1.7 3v1.2l-1.2 2.6-0.1 0.7 0.2 0.7 1.2 1.4-0.1 0.5-0.4 0.4-2 0.6-1.4 1.4-1.3 0.4-1.8-0.2-0.9-2.5-1.9-2-2.8-1-1.6 0.1-0.6 0.9-2 0.7-1.3 0.7-1 1.2-0.9 3 0.4 1.8-0.2 1.7-0.8 2.3 0.4 2.1-2.3-1-1.4 0.4h-0.5l-1-2.1-1.5-1.6-2-1.3-0.5-0.1-5-4.4 0.1-1.1 1.9 0.3 1.1-1.3 0.1-0.6-1.1-4.3-0.6-0.9-1.2-0.9-0.9-2.2-0.3-4.9 0.6-1 0.7-3-0.6-1.6-0.4-1.6 1.6-1.5v-0.4l-0.9-1.1-0.2-2.3-1.6-4.8-2.8-3.7 0.7-1.5 0.9-3.3-0.4-0.7-2-0.9-1.4-0.1-0.8 0.2-1-0.4-1.2-1.2-0.1-0.9-0.6-0.1-1.1 0.4h-0.6l-0.8-0.4-0.7-0.7 0.3-0.5 0.2-2.3-0.3-0.2-3.4-0.2-3.7 0.1-3.3-0.7-0.2-0.6 0.8-1.8 0.1-1.4-0.7-1.8-2-3.5-0.7-2.1-0.5-3.7 0.8-1.5-0.1-1-1.8-2-2.2-1-2.8-2.8-1-1.8-0.3-1-1.2-0.6-0.2-0.4v-0.9l0.3-0.3 0.9 0.1 1.1 0.6 1 1.8 0.6 0.1 3.4-0.5 1.3 0.1 1.9 0.6 0.6 1.2 0.6 1.9 0.5 0.3h1l0.7-0.7 1-0.4 3.2 0.2h0.4l1.3 1.2 0.6 0.2 0.6-0.2 0.6-1.5 1.3 0.1 1.4 0.9 4 4.6 1 0.6 0.7 0.1 1.5-0.7 0.8-1.1 0.1-0.9-0.9-2.7 0.4-1.8 0.5-0.2 1.9-0.1 1-1.1 1.6-1.1 0.7 0.1 3.9 1.3 0.6-0.2 0.8-0.7 1-0.3 1.2 0.4 1-0.2 1.3-1.3 1-0.3 1.2 0.3 1.1-0.1 0.7-0.9v-1.3l3-1.8 2.4 0.2 2.7-0.4 0.9-1.1 0.1-0.8 0.6-1.1 0.8-0.1 1.8-0.9 1.1-1 1.1-1.8-1.2-3.5-1.2-0.4 0.7-0.2 1.4 0.1 0.8 0.3 3.6-0.1 1-0.9 0.8-0.2 1.4 0.4 0.5 1.3 1 0.8 0.5 1.4-0.7 4.9-0.7 1.3-1.2 0.7v0.9l1.6 0.4 1.7-0.2 2.3 0.8 1.8 1.1-0.9 1.4v1.2l2.4 3.4 0.2 1.5-1.5 2.9-1.9 1.5-0.7 1.5 0.2 0.3 0.1 2.2-1.5 2.4-0.9 2.8-0.3 2.6-0.1 2.6 1 1.9 0.5 1.8v1.4l1.6 1 0.9 0.2 0.1 0.7-0.5 5.1 0.2 0.8 1.8 0.3-0.7 1.1 0.5 0.5 2.1 0.8 1.5 1.9 2.6 2.7z"/>
	<path id="BR-RS" class="s0" d="m322.3 638.8h-0.4l-1.9-1.1-0.2-0.5 0.5-4.2-0.5-4.3 0.2-1.1 0.6-1.2 2.8-2.4 0.9-1.5 2.3-2.6-1.5-1.7-1.1-0.6-2.2-0.6-2.3-2.2-1.2-1.6-0.1-1.6-0.5-1.2-1.2-2-2.1-2.3-0.6-0.6-2.4-1.2-1.5 0.2-1.9-1.5-1.5-1.6-1.2-0.8-0.2-1.7-1.9-2.2-3.3-0.4-0.9-0.5-1.8-1.6-1.7 0.1-2.2-1.4-1.9-3.7-1.1-1.5-2.5-2.1-0.7 0.1-0.7 1.8-2.6 2.2-2.7 0.1 0.1-2.8 0.4-1.3-0.4-1-3.6-4.3-2.4-1.8-2.2-2-1.7-2.2-2.7-2.2-1.9-0.1-2.1 0.2-1.2 1.4v0.9l-1.1 1h-1.1l-0.6-0.5-3.1 0.2-0.7-0.5-0.1-0.9-0.5-0.2 0.8-0.3 1.1-0.7 2.5-2.7 0.1-1.9 0.6-1.2 0.8-0.5 1.3-0.1 0.6-0.2 1-1 5.4-6.5 0.6-1.4 0.2-1.1 0.8-1.1 1.2-0.8 1.4-0.5 2-4.2 0.1-0.6 0.3-0.4 1.6-0.8 1.6-1.8 0.9-1.2 0.5-1.3 1.3-2.1 1-0.2 1.5 0.1 0.6 0.8 0.5-1.3-0.2-0.5-1.4-0.9v-0.3l0.3-0.3 1.1-0.4 0.8-1 2.8-0.9 1-1.1 0.1-0.9 0.9-0.9 2.2-1.2 2.4-0.4 1.8-1.8 0.2-1.1 1.3-2.3 0.3-0.1 0.1 0.4 0.3 0.2 1.3-0.2 2.4-1.1 2.7-0.6 1.2-0.6 2.1-2.3h0.5l0.7-0.4 1-1.3 2.3-0.8 0.3 0.4 3.5 0.4 3.3-1.1 0.5-0.9 1.4 0.6-0.2 0.9h3.1l1.7 1 2.5-0.4 1.9 1.2 2.6-0.4 1.6 0.2 2.8-0.2 2.2 0.9 2.5 1.4 1 2.5 1.6 0.1 0.1-0.4 1.8-0.4 5.5 3.6 1.4 1.5h0.7l1.6 1 3 3.4 1.7 2.3 0.4 1.4 2.2 2.7 1.2 0.5 6.7 1.1 2.1-0.4 3.3 0.3 0.9 2.4-2.1 1.6-1.2 0.4-0.8 1.8 0.2 2.2-0.3 1.6-0.6 1.3-1.1 0.2-1.3 1.7-0.1 1.4 1.8 1.2 0.3-0.2-0.3-1v-1l1.5-0.8 1.6 0.6 0.7 1 1.2 0.8h0.5l-1.4 1.7-3.9 7-4.2 11.6-6.3 10.5-5.5 6.7-6.5 5.9-6.1 3.7-3.1 4.3-0.2-0.4 0.7-1.6 0.3-2.2-1.2-1.7 0.1-0.4 1-0.2 1 0.4 0.5 0.6 1.1 0.1 2.5-1.4 0.9-0.7 2.8-3.7 0.8-0.7 0.4 0.2 1-0.2 1.1-0.9 0.9-1.2 0.4-1.5 0.2-0.9-0.3-2.1 0.2-1.4 1.6-0.1 0.7 0.3 0.3 0.8 0.4-0.2-0.3-1.4 0.5-2.1 0.5-0.6 2.7-1.5 0.7-1.1 0.5-2.8-0.2-2.3 0.6-0.6 0.5 0.8h0.3l0.5-0.4 0.4-3.1-0.1-0.4-0.9-1.3h-0.7l-0.3 0.7 0.2 0.4-0.1 0.6-0.4 0.2-1.5-0.1-2 0.4-0.3 1.6-0.6 0.1-0.8-0.4 0.1-1.8-0.8-0.8-1 0.3-0.6-0.5-0.8-1.3-0.4-1.4 0.2-0.6-0.7-0.7-0.6 2.7 0.4 2.3 1.3 2.1-0.6 0.8-0.7 2.6 0.4 3-0.2 0.8-0.5-0.4 0.3-0.3-0.1-0.7-0.4-1.2-0.5-0.4-0.5 0.6v1.4l-1.5 3.3v1.9l0.2 0.5-0.7 0.7-1.6 0.6-0.6 1.6-4.1 1.6-0.7 0.5-0.6 1.6-0.1 2.3-0.9 2.2-2.4 1.3-0.1 1.8 0.5 0.8 0.2 1-0.9 0.6-0.3 1.5 0.5 0.6 0.6-0.1 1.3 0.6 0.2 0.9-2.1 1.7-2.4 4.5-1.9 6.9-2 4.4-1.7 2.6-7.8 7.5z"/>
	<path id="BR-SC" class="s0" d="m379.6 558.3h-0.5l-1.2-0.8-0.7-1-1.6-0.6-1.5 0.8v1l0.3 1-0.3 0.2-1.8-1.2 0.1-1.4 1.3-1.7 1.1-0.2 0.6-1.3 0.3-1.6-0.2-2.2 0.8-1.8 1.2-0.4 2.1-1.6-0.9-2.4-3.3-0.3-2.1 0.4-6.7-1.1-1.2-0.5-2.2-2.7-0.4-1.4-1.7-2.3-3-3.4-1.6-1h-0.7l-1.4-1.6-5.5-3.5-1.8 0.3-0.1 0.5-1.6-0.2-1-2.4-2.5-1.4-2.3-0.9-2.7 0.1-1.6-0.1-2.6 0.4-1.9-1.2-2.6 0.4-1.6-1h-3.1l0.2-0.9-1.4-0.6-0.5 0.8-3.3 1.2-3.5-0.4 1.4-2.9 0.8-2.1-0.6-3.3 0.4-3.2v-2.5l0.9-1.8h3.7l0.7-0.3h0.5l1.1 0.2 0.3 0.5 2 1.4 2.7 0.1 2.3-0.6 5.3 1.7 4.3 0.3 1 0.6 0.2 0.5 1.5 1.1 3.8 0.5 4.2-0.2 1.4 1.9 0.2-0.5 0.7-0.4h0.9l0.9-0.8-0.9-3 0.7-1.6 0.7-0.8 2-1.1 3.6 0.4 1.9-1 0.7-0.9 0.6-1.4 1.5-0.7 1.1-0.1 1.5 0.7 0.8 0.1 2.3-0.2 2.8-0.7h0.8l1 0.4 3.2 2.6 1.2 0.6 1.4 0.1 3.4-2.1 1.3-1.4 1.6-0.6 0.1 0.4 0.8 0.1 1.7-0.3 0.3-0.4h5.3l-0.4 1.4 0.5 1.6-0.1 0.4-1.5 1.1-1-0.4-0.8-2.6v1.1l0.6 2.8 1.7 1.6 0.6 1-1 2.3-0.2 2.3 0.1 0.4 0.8 0.7 0.2 5.9 0.3 0.6 0.5 0.2 0.7-0.6 0.4 0.8 0.1 0.8-0.5 0.1-0.4-0.3-1.2 0.6-0.4 3.9 0.6 2.6-0.6 0.7 0.4 2 0.9 1.8-0.9 2.4-0.5 4-1.7 4.7-0.4-0.1-0.3-0.8 0.2-1-0.9-1.1-0.3 0.3 0.2 2.4 1.1 0.8-0.9 1.7-1.6 0.7-4.1 3-2.8 2.6-3.8 4.4zm17.9-26.6l-0.2-0.4 0.3-1.8 0.7-2.4-0.4-1.2 0.2-1 1.4-0.7h0.2l0.7 1-0.6 2.5-0.8 0.9-0.6 1.2 0.2 1.2zm-0.4-24.4l-1.9-2 2.6-2.5 0.2 0.1 0.7 1-0.9 1.4z"/>
	<path id="BR-SE" class="s0" d="m570.2 262l-2.9 0.8-1.5-0.6-0.6-0.3-0.5-0.8-1.9-0.9-0.6-0.5-0.1-0.4 0.3-0.4 0.2-1.4-0.2-0.4-1.4-1.5-0.5-1.5-1.1-0.7-1-1.6v-0.7l0.6-1.6 0.3-0.3h1.7l1.1 0.7 2.6-1 0.7-0.5 0.3-0.6-0.8-2.7 0.1-0.9 0.7-1.6v-3.1l-0.7-1.2-2-1.9-1.3-2.5-0.2-2.2 0.7-1.1 6.4 2.9 3.7 1 5.4 3.1 1.3 2.4 1.8 1.5 1.7 0.8h0.4l3.6 2.2 0.6 1.3-2.4 0.8-4.5 2.9-1 0.9-1.6 2.2h-0.3l0.1-1.1-1-1.8-1 0.1 0.3 1.2h1.3l0.2 0.2-0.5 2-1.3 2.1-0.5-0.3-0.4-0.7-1-0.2 0.2 0.7 1.1 0.6-0.2 1.8-0.9 1.1-0.9 2.1-0.8 0.1-0.3-0.4 0.5-1.4 0.4-0.2 0.3-0.4 0.4-1-0.8-0.4 0.1 0.7-0.5 1.1-0.5 0.5-0.2 1.1 0.3 0.7-0.3 0.5z"/>
	<path id="BR-SP" fill-rule="evenodd" class="s0" d="m404.8 488.2l-0.1-1.3-1.4-0.6-0.8-3.3 0.4-2-2.1-0.5-0.8 0.1-1.1 2.8-0.6 0.8-1.1-0.5-0.3-0.8 0.7-3.3 0.8-0.6 0.2-0.4-1.6-1.3-1.6-0.1-1.6 0.2-0.5-0.4-3.4 0.5-2.4 0.1-1-0.2-0.6-0.4-0.3-2 1.3-2.1 0.2-1.1-0.2-0.4-0.6-0.3-1-2 0.1-0.9-0.5-0.7-0.7-0.2-1.2-1.2-1.5-3 0.4-0.5 0.1-1.8-1.3-1.5-0.4-1.9 0.2-0.8 0.3-0.6v-2.7l-0.9-1.8-3.6-2.8-1.1-1.5-3 0.8-5.3-0.1-0.6-0.5-1.7-0.2-0.4 0.4-1.7-0.1-0.7-1.3-0.7-0.5-3.5-0.8-1.7-0.9-0.8-1h-2.6l-1.1 0.6-1.3-0.2-2.6-1.1-2.5-0.4-1.5-0.8-1.2-0.3-0.7 0.4-0.4 0.6-1.2 0.6-3.3-0.3-4 0.1-3.8-0.6-3.2 2.3 0.8-1.1 0.7-1.6 1.3-1.1 7.5-4.5 2-1.9 1.3-2.4 1.7-1.7 0.4-1.2 1.4-1.1 0.3-1.2-0.3-0.8 2-2.3 1.2-2.3v-1l-0.3-1.9 0.3-0.4 0.9-0.5 2.6-3.7 0.2-2.9 0.6-1.7 1-0.3 0.7-0.6 2-2.7 1.2-1 0.5-0.2 1.3-0.1 1.5-0.8 0.3-0.4 0.4-2.4 1.2-1.1 2.2-1.2 1.9-0.3 1.4-1.7 1.5-0.6 0.8 0.1 1.7 1.6h2.6l4.2 1 1.7-0.4 1.6 0.3 2-0.6 2.2 1.4 1.7 0.8-0.1 0.9 0.3 1.4 1.2 2.1h0.6l0.6-0.3 0.6-0.9 0.4-1.1 0.3-0.2h0.6l0.3 0.4 0.3 1v2.7l1.2 0.6 0.4-0.5-0.3-2.5 0.5-1.2 0.5-0.5 8.1-0.7 1-1.2 1.5 1.5 1.2 0.4 2.7-0.7 0.5-1-0.2-0.5 0.3-0.6 2.4-0.1 1.6 0.8 0.9-0.6 1.3-0.3 3.3 3.3 0.2 1.1-0.6 1-0.3 2.3 0.6 0.7 1.9 1.2 0.4 1.5-0.1 0.6-1.5 2-0.2 1.9 0.8 0.8 0.3 0.6 0.4 2.2 1.3 1.8 0.8 2v0.8h1.6l0.8-0.3 0.2-0.4h1l3.7 1.3 0.3 0.4-0.1 1.2-0.7 2.2-1.8 2.7 0.2 3-0.2 3.4-0.5 1.6 0.7 1.6 1.8 1.2 1.8 0.9 0.5 1.7-1.2 0.7 2 3.3 1.2 0.2 2-0.2 0.2 0.5 3.6-1 0.5 0.4 1.3-0.3 0.8-1v-0.8l-0.2-0.2 0.2-2.3 1.2-0.4 0.1 0.4-0.4 0.5v0.5h2.4l2.3-0.2 1.8-0.7 1.3-1.2 1.9-1 2.2-0.3 1.2-0.7 1.3 0.5 0.6 1.2 1.2 1.6 1.8 0.4 3.1-0.5h1.7l0.8 1.6-1.7 2.2-1.5 0.7-2.7 0.3-0.5-0.1-2.4 1-1.1 1.1-1.1 3.5 0.1 0.5 1.6 1.7 0.5 0.2-0.1 0.2-1.7 0.5-1-0.9-1.5 1.2-0.4 0.6 0.2 0.2-0.7 0.7-3.2 1.5-2.3 0.7-0.3 0.5 0.1 0.9 0.5 1.6-0.4 0.4-1.4 0.2-0.7-0.6-1.3-0.3-3.1-0.5-0.9 0.2-1.3 0.3-1.7 0.8-0.5 0.5-1.2 2.2-1.3 0.6-0.5-0.2 0.5-0.4-0.4-1.3-1.2-0.8-0.8 1.2 0.2 0.8-0.3 0.6-7.6 4.2-1 0.8-0.3 1.2-3.2 3-3.3 2-1.9 0.5-4.5 3.2-2.3 2h-0.7l-0.4 0.7 0.9 0.4h0.6l0.9-0.3v0.7l-0.6 1.4-1.3 0.8zm44.3-23l-1.5-0.7-1.2 0.2-0.5-0.4 0.1-0.7 1-0.7 1.1-1.8 0.7 0.2 0.6 0.7 0.2 2.9z"/>
	<path id="BR-TO" class="s0" d="m433.6 282.1l-5.3 1.4-1.8 1.3-2.5 1.1h-1.6l-4.5 1-2.5 2.1-1.8 0.9-0.5-0.2-1.5-2.6-0.5-0.1-0.6 3.3-0.6 0.1-3.4-0.7-3.1-1.4 0.5-1.6-0.2-0.7-4.5 0.5-2.8-0.3-0.5 0.5-0.3 1-0.8 0.7h-1.1l-0.6-3.1-1.1-3.7-1.1-1.9-1.1-1.3-1.2 1-1.5 2.4-1.6 5.9-0.6 0.2-4.1-1.4-3.1-1.7-3.9-0.4-2.2-1-2.4-0.4 0.5-2.4 1.2-1.9v-1.7l-0.5 0.3-1.8 2.1-0.7 1.2-0.2 1.9-0.3 0.5h-0.8l-1-0.6-1-3.3 0.8-2.8-0.5-3-0.5-0.6v-1.6l0.5-3.3-1.1-2.2v-0.5l0.8-0.9 0.2-0.9-1.4-1.3-0.1-0.9 1.9-6 0.1-2.9 0.5-3 1.9-5.3 0.4-0.2 0.4-0.9 0.5-3.1 1.1-1.3 0.5-1.9 0.7-1 1.6-3.7 1.1-4.4 1.2-1.6 1.2-1.1 1.2-1.7 1-1.9 1.4-0.9 1-0.2 0.8-0.8 0.9-1.6 0.2-1 1.7-3.2 1.1-0.8 1.7-5.2 0.7-4-0.1-0.3-0.8-0.3-1.7-1.8-0.6-0.9-0.1-0.9 0.1-0.6 1.4-1.7 1.3-2.1v-2.6l-0.5-2.2 0.2-0.4 2.5-1.7 3.4-1.2 2.5-1.2 0.2-0.5-0.1-1.5 0.9-1.3 1.5-1.3 1.3-0.2 0.1-1.3-0.2-1.2 0.2-0.5 1.5-0.4 0.6-0.5 0.9-2.7-1-1.4-0.1-1.4 0.3-0.3h1l0.7-0.4 0.4-0.7v-0.6l-1.3-1.2-0.8-0.1-0.4-0.3-1-1.7-1.3-0.1-1.9 0.2-2.3-0.8 0.5-0.6 2.7-1.9 1.9-0.5 0.9 0.1 2.8 1.5 1.4 0.1 0.9-0.6 1.8 0.3 0.6 0.7v1l0.3 0.4h1.2l3.4 1.4 0.9 1.1 0.4 3.5 0.7 1.5-0.2 3.7 0.2 1.1 0.7 1.1v0.4l-1.8 6.2-0.3 2.3 0.3 1-0.3 1.6-1.7 2.1-1.8 0.6-0.2 0.8 2 1.3 0.4-0.3 1.4 0.2 0.2 0.4 0.1 0.9-0.6 1.2 0.8 1.4 0.9-0.1 3 4.2 0.9 0.8 2.3 3.1 2.2-1.4 4.2-0.9 1.8 1.2 0.1 1.8-0.6 3.2 0.4 1.4-3.4 0.3-1.4 0.5-0.5 0.6-0.7 1.4-0.8 2.7 0.4 1.3-2.6 2.6-0.3 0.7 0.2 0.4 2.1 0.3 0.9 0.7 0.8 1.5v1.7l0.7 1 3.8 2 0.1 0.5-1.6 1.8 0.1 1.7 2.2 1.6 1 2.9 1.3 2 0.7 0.2 1.8-0.3 1 0.3 0.8 0.5 0.6 0.8 1.3 0.7 2.9 0.2-0.7 0.6-0.2 1-0.5 0.5-3.9 2-3.2 2.6-0.2 0.4 1.3 1.8-0.3 0.4-1 0.2-0.9 0.7-1.6 3.4-1 0.8-0.5 1.1 0.3 0.9 1.8 2 3.6 0.7 1.9 1v0.7l-0.5 0.5-2.1 0.8-0.4 0.9 0.1 0.5 0.3 0.4 1.1-0.2 0.9 0.3 0.6 0.5 0.3 0.6-1 0.7-1.1 0.5-2 1.6-0.2 0.9v2.9l0.3 1.2 1 0.7 1 0.2 0.4 0.3 0.2 0.4v1.1l-1.3 2.4z"/>
</svg>